<?xml version="1.0" encoding="utf-8"?>
<!-- Generator: Adobe Illustrator 25.2.0, SVG Export Plug-In . SVG Version: 6.00 Build 0)  -->
<svg version="1.1" id="Layer_1" xmlns="http://www.w3.org/2000/svg" xmlns:xlink="http://www.w3.org/1999/xlink" x="0px" y="0px"
	 viewBox="0 0 218 108" style="enable-background:new 0 0 218 108;" xml:space="preserve">
<g>
	<path d="M17.5,96.2c-2,0-3-0.9-3-2.6c0-0.5,0.2-1.2,0.5-1.8c0.7-1.6,2.4-3.9,5.2-7C26.2,79,33,74.4,40.5,71.1l4.5-2l2.1-2.3
		c5.1-5.3,8.9-9.2,11.4-11.7l1.3-1.4c-4.5,2.9-9.1,5.7-13.8,8.4c-5.7,3.4-11.7,6.2-17.8,8.3c-2.5,0.8-4.9,1.1-7.4,1.1
		c-0.2,0-1.1,0-2.5-0.1c-1.5,0-2.5-1.4-3.1-4l-0.1-1.4c0-3.8,2-8.2,6-13.3c4-5.1,8.6-9.7,13.6-13.7C43.1,32,51.2,27,58.9,24.2
		c2.6-1.1,5.2-1.6,7.7-1.7c3.4,0,5.7,1.2,6.9,3.7c0.2,0.7,0.3,1.4,0.3,2.2c0,1.5-0.5,3.1-1.5,4.7c-3.5,5-8,9-13.3,12.2
		c-5.2,3.4-10.7,5.9-16.4,7.5h-0.3c-0.6,0-0.9-0.3-0.9-0.9c0-0.9,0.4-1.5,1.3-1.8c1.3-0.3,2.6-0.7,3.8-1.1c5.1-1.9,9.9-4.4,14.5-7.5
		c6.1-3.9,9.7-7.7,10.9-11.5l0.1-1.1c0-2.5-1.6-3.7-4.7-3.7c-2,0-4.1,0.5-6.2,1.4c-9.3,3.6-18.7,9.9-28.3,18.7
		c-5.9,5.2-10.3,10.6-13.3,16.2c-1,1.9-1.5,3.5-1.5,4.7c0,1.1,0.4,1.9,1.2,2.5s1.7,0.9,2.6,0.9c1.3,0,2.8-0.2,4.5-0.6
		c6.4-1.6,14.6-5.5,24.6-11.6c5.2-3.1,10.3-6.4,15.4-9.9l0.9-0.8c0.7-0.9,1.4-1.4,2.1-1.4c0.8,0,1.3,0.5,1.3,1.5
		c0,0.3-0.2,0.7-0.5,1c-2.9,3.6-7,8-12.2,13.2c-1.7,1.7-3.3,3.4-4.8,5.1c4.8-1.8,9.5-3.3,14.3-4.5h0.2c0.5,0,0.7,0.2,0.7,0.7
		c0,0.5-0.3,0.9-0.9,1.1c-5.7,1.5-11.3,3.3-17,5.5l-2.3,2.4c-1.6,1.6-3.3,3.4-5.2,5.4c-5.4,6-11.3,11.3-17.7,16.1L24.7,93
		c-1.8,1.4-3.8,2.4-5.9,3.1L17.5,96.2z M17.7,93.3c0.2,0,0.5-0.1,0.8-0.2c1.5-0.7,3-1.6,4.3-2.8l0.6-0.3
		c5.7-4.6,11.8-10.5,18.5-17.6l-2.3,1c-7.1,3.2-13.3,7.6-18.7,13.2c-1.3,1.4-2.4,2.9-3.3,4.5c-0.3,0.7-0.5,1.2-0.5,1.5
		c0,0.2,0,0.3,0.1,0.5C17.2,93.2,17.4,93.3,17.7,93.3z"/>
	<path d="M76.1,73.1c-1.5,0-2.6-0.6-3.4-1.7c-0.4-0.7-0.6-1.4-0.6-2.1c0-0.6,0.1-1.2,0.3-1.8c-2,1.5-4.2,2.9-6.6,4
		c-1.1,0.5-2.1,0.8-3.1,0.8c-0.7,0-1.2-0.4-1.5-1.1c-0.1-0.2-0.1-0.5-0.1-0.8c0-0.4,0.1-0.9,0.2-1.5c0.6-1.8,1.9-3.6,3.9-5.4
		c1.1-1.1,2.3-2,3.6-2.9c1.3-0.9,2.7-1.5,4.1-1.8c1.5,0,2.6,0.5,3.3,1.4c0.2,0.2,0.3,0.5,0.3,0.9c0.5-0.5,1.1-0.9,1.6-1.2
		c0.5-0.3,1-0.5,1.5-0.5c0.8,0,1.3,0.3,1.3,0.9c0,0.5-0.2,1.1-0.7,1.8c-0.5,0.7-1.1,1.4-1.8,2.1c-0.7,0.8-1.3,1.6-1.8,2.6L76.6,67
		c-0.7,0.8-1,1.7-1,2.6c0.2,0.7,0.7,1,1.7,1c1.1,0,2.4-0.3,3.7-0.9c3.6-1.7,6.9-4,9.9-7c0.3-0.2,0.6-0.3,0.8-0.3
		c0.4,0,0.6,0.2,0.7,0.5c0,0.3-0.2,0.6-0.5,0.9c-4.5,4.4-9,7.3-13.5,8.9C77.6,72.9,76.8,73.1,76.1,73.1z M64.5,69.6
		c1.9-0.4,4.6-1.9,8.2-4.6h0.1l1.3-0.9l0.3-0.3c0.2-0.2,0.3-0.5,0.3-0.8l0.2-0.7c0-0.2-0.1-0.5-0.2-0.7c-0.1-0.3-0.4-0.4-0.9-0.4
		c-0.8,0-2.1,0.7-3.7,2C67.9,65,65.9,67.2,64.5,69.6z"/>
	<path d="M89.4,82.2c-1.5,0-2.6-0.5-3.6-1.4C85.3,80,85,79.1,85,78.1c0-0.5,0.1-1,0.2-1.5c0.9-3.4,2.5-6.8,4.7-9.9
		c2.2-3.2,4.5-6.3,7-9.3c7.2-8.6,15.2-16.4,23.9-23.3l0.8-0.6c2.7-2.3,5.5-4.2,8.5-5.7l0.6-0.1c0.6,0,1.1,0.2,1.4,0.7l0.1,0.5
		c0,0.9-3.2,3.8-9.7,8.6c-3,2.4-5.9,4.9-8.9,7.6c-7.6,7.1-14.4,14.7-20.5,22.8c-2.3,2.8-3.9,5.7-4.9,8.9l-0.1,1
		c0,1.4,0.8,2.1,2.5,2.1c0.8,0,1.6-0.2,2.4-0.6c3.1-1.2,6.1-2.7,9-4.5c6-3.4,11.5-7.5,16.6-12.3c0.3-0.2,0.5-0.2,0.7-0.2
		c0.1,0,0.2,0,0.3,0.1c0.2,0.1,0.2,0.3,0.2,0.7c0,0.2-0.1,0.5-0.3,0.7c-6.2,5.5-12.9,10.3-20,14.5l-1,0.5
		C94.7,80.9,91.7,82.1,89.4,82.2z"/>
	<path d="M114.4,82.2c-1.5,0-2.6-0.5-3.6-1.4c-0.6-0.8-0.9-1.6-0.9-2.6c0-0.5,0.1-1,0.2-1.5c0.9-3.4,2.5-6.8,4.7-9.9
		c2.2-3.2,4.5-6.3,7-9.3c7.2-8.6,15.2-16.4,23.9-23.3l0.8-0.6c2.7-2.3,5.5-4.2,8.5-5.7l0.6-0.1c0.6,0,1.1,0.2,1.4,0.7l0.1,0.5
		c0,0.9-3.2,3.8-9.7,8.6c-3,2.4-5.9,4.9-8.9,7.6c-7.6,7.1-14.4,14.7-20.5,22.8c-2.3,2.8-3.9,5.7-4.9,8.9l-0.1,1
		c0,1.4,0.8,2.1,2.5,2.1c0.8,0,1.6-0.2,2.4-0.6c3.1-1.2,6.1-2.7,9-4.5c6-3.4,11.5-7.5,16.6-12.3c0.3-0.2,0.5-0.2,0.7-0.2
		c0.1,0,0.2,0,0.3,0.1c0.2,0.1,0.2,0.3,0.2,0.7c0,0.2-0.1,0.5-0.3,0.7c-6.2,5.5-12.9,10.3-20,14.5l-1,0.5
		C119.7,80.9,116.7,82.1,114.4,82.2z"/>
	<path d="M142.6,71.9c-0.6,0-1.6-0.1-2.9-0.2c-1.3-0.2-2-1.3-2.2-3.3c0.2-2,1.1-3.8,2.7-5.4c1.6-1.6,3.4-2.8,5.3-3.7
		c1.3-0.7,2.6-1.1,4-1.1c0.5,0,1,0.1,1.4,0.3c0.7,0.4,1,0.9,1,1.6v0.7c0,0.5-0.4,1.1-1.1,1.8c-1.1,1.1-2.4,1.9-3.9,2.5
		c-1.5,0.6-3.1,0.9-4.7,0.9c-0.5,0.6-0.8,1.2-0.9,1.8c0,1.2,0.7,1.7,2.2,1.7c2.3,0,4.6-0.6,6.9-1.7c2.9-1.4,5.6-3.2,8.2-5.4
		c0.2-0.2,0.4-0.3,0.6-0.3c0.5,0,0.7,0.2,0.8,0.7c0,0.3-0.2,0.6-0.5,0.9c-3.8,3.4-8,5.9-12.6,7.5C145.4,71.7,144,71.9,142.6,71.9z
		 M144.2,64c1.3-0.2,2.6-0.7,3.8-1.4c0.9-0.5,1.5-1,1.6-1.5l-0.7,0.2C147.3,61.9,145.7,62.8,144.2,64z"/>
	<path d="M155.4,74.5H155c-0.2,0-0.4-0.1-0.5-0.3c-0.1-0.2-0.2-0.4-0.2-0.6c0-0.3,0.2-0.6,0.5-0.9c2.8-4.1,6.6-8.5,11.3-13.2
		l0.5-0.6c1.2-1.3,2.4-2.3,3.8-3.1c0.2-0.2,0.5-0.2,0.7-0.2c0.5,0.2,0.8,0.5,0.8,0.9l-0.1,0.5c-0.8,1.3-1.7,2.5-2.9,3.7l-1.5,1.6
		l2.6-2.1c1.5-1.1,2.8-1.7,3.9-1.7c0.6,0.2,1,0.4,1.3,0.9c0.2,0.4,0.4,0.9,0.6,1.4c0.2,0.8,0.7,1.5,1.5,2l0.7,0.1
		c1,0,1.9-0.5,2.8-1.5c0.2-0.2,0.5-0.3,0.7-0.3h0.3c0.2,0,0.3,0.2,0.3,0.6c0,0.2-0.1,0.3-0.2,0.6c-1.5,2-3.4,3-5.7,3
		c-2,0-3.2-0.8-3.6-2.5l-0.1-1.8h-0.1c-0.2,0-0.5,0.1-0.9,0.3v0.1c-1.5,0.8-2.8,1.7-3.9,2.9c-1.4,1-2.7,2.1-4,3.2l-3.7,3.3l-0.2,0.1
		l-2.9,3.2C156.2,74.3,155.8,74.5,155.4,74.5z"/>
	<path d="M167.7,93.6c-1.9,0-3-0.8-3.2-2.4c0-2.8,1.9-6.1,5.7-9.9c6.2-5.7,14.2-10.6,23.9-14.6l4-4.8l0.5-0.7c0.3-0.6,0.5-1,0.5-1.1
		c0-0.4-0.3-0.6-0.8-0.6c-0.4,0-1,0.2-1.8,0.5h-0.2c-2.7,1.1-5.3,2.6-7.8,4.4l-2.8,1.8c-1.8,1.1-3.6,2.1-5.5,2.8
		c-0.5,0.2-1,0.3-1.5,0.3s-0.9-0.1-1.4-0.4c-0.5-0.3-0.7-0.8-0.7-1.6c0-1.1,0.5-2.3,1.6-3.7c2.4-3.1,5.1-5.4,8-6.9
		c0.2-0.2,0.5-0.2,0.7-0.2c0.7,0,1,0.3,1,1c0,0.7-0.5,1.4-1.5,2.2c-2.8,2.5-4.7,4.5-5.9,6.2c-0.2,0.4-0.3,0.6-0.5,0.7
		c0.6-0.1,1.2-0.3,1.7-0.6l0.5-0.1c1.8-0.8,3.9-2,6.3-3.6c2.7-1.9,5.4-3.3,8.3-4.3l0.2-0.1c1.1-0.3,1.8-0.5,2.1-0.5l1,0.1
		c1.1,0.3,1.7,1.1,1.7,2.4c0,1.1-0.7,2.6-2.2,4.5l6.2-2.1c0.4,0,0.6,0.2,0.7,0.6c0,0.5-0.3,0.9-0.9,1.1c-2.6,0.8-5.2,1.8-7.7,2.8
		c-4.1,5.3-8.5,10.2-13,14.6c-0.2,0.2-0.3,0.4-0.6,0.6c-6.1,6.7-11.3,10.5-15.6,11.4L167.7,93.6z M168.1,90.4
		c1.5-0.2,3.1-1.1,4.9-2.5c3.5-2.6,6.8-5.6,9.9-8.9c2.1-2.1,5.1-5.3,8.7-9.5c-11.5,5.1-19.4,11-23.8,17.5c-0.6,1.2-0.9,2-0.9,2.4
		c0,0.2,0,0.4,0.1,0.6C167.1,90.3,167.5,90.4,168.1,90.4z"/>
</g>
</svg>
