<?xml version="1.0" encoding="utf-8"?>
<!-- Generator: Adobe Illustrator 25.1.0, SVG Export Plug-In . SVG Version: 6.00 Build 0)  -->
<svg version="1.1" id="Layer_1" xmlns="http://www.w3.org/2000/svg" xmlns:xlink="http://www.w3.org/1999/xlink" x="0px" y="0px"
	 viewBox="0 0 309 161" style="enable-background:new 0 0 309 161;" xml:space="preserve">
<g>
	<path d="M36.2,147.2l-0.6,0.1c-0.7-0.3-1.1-1-1.3-2.1c0.6-1.9,1.3-3.7,2.2-5.6c0.8-1.8,1.7-3.6,2.6-5.4c0.9-2.4,2.1-5.1,3.5-7.9
		c0.7-1.4,1.3-2.8,1.9-4.3l0.8-1.4c4.6-10.7,8.8-21.6,12.5-32.8c-5.7,1.1-13.6,2.3-23.6,3.7c-0.2,0.2-1.8,0.4-4.7,0.8
		c-7.2,1-11.3,1.4-12.1,1.2C11.8,93.9,8,93.1,6,90.9c-0.8-1-1.2-2-1.4-2.9c-0.2-1.1,0.2-2.5,1-4.1c0.9-1.6,2-3.1,3.5-4.6
		c6.6-7.2,13.9-13.6,21.9-19.2C41.3,53,48.7,49.1,53.5,48.4c1.2-0.2,2.5-0.2,3.8-0.2c4.7,0.5,7.7,2.9,9.1,7.3
		c0.6,4.5,0.4,8.8-0.8,12.9c-0.2,0.5-0.3,1.1-0.3,1.8c-1,4.5-2.2,8.9-3.5,13.3l0.4-0.1c10-21.1,16.9-35.4,20.6-42.9l2.2-4.5
		c3.3-7,7-13.7,10.9-20.3c0.4-0.7,0.9-1.1,1.4-1.1c0.2,0,0.6,0,1.1,0c0.4,0.1,0.9,0.4,1.3,0.9c0.4,0.5,0.6,1,0.7,1.3
		c0.1,0.6-1.7,4.4-5.4,11.5l-2.1,3.9L67.2,82.6c2.8-0.4,5.5-0.8,8.2-1.3c2.7-0.4,5.4-0.9,8-1.4l31.4-5.1c2.6-6.8,5.3-13.4,8.1-19.9
		c3.1-7.8,6.3-15.6,9.7-23.4c6.9-16.3,11.1-24.5,12.7-24.8c1.7,0,2.6,0.7,2.8,1.9c0.1,1-2.6,7.6-8.2,19.9
		C134.6,39.8,128,54.9,120,73.9l13.8-2.2c1.1-0.2,1.8,0.3,1.9,1.4c0.2,1.1-0.3,1.9-1.4,2.3c-6.8,1-10.8,1.6-12.2,1.9l-3.9,0.6
		l-2.3,5.5c-4.4,10.8-10.6,26.7-18.5,47.6c-0.3,0.7-0.7,1.1-1.4,1.1c-0.8,0.1-1.3,0-1.7-0.4c-0.4-0.4-0.6-0.7-0.6-1l0-1.1
		c3-8.7,6.1-17.3,9.5-25.8l9.6-25.1l-47.8,7.8l-4.7,9.7c-4,8.3-7.9,16.8-11.7,25.2l-7.4,16.4C38.9,143.9,37.2,147.1,36.2,147.2z
		 M33.9,88.1c8.4-1.3,16.6-2.7,24.9-4.1c1.8-6.1,3.3-12.3,4.5-18.4c0.1-0.3,0.1-0.6,0-1c0.7-2.9,0.9-5.5,0.6-7.7
		c-0.2-1.6-1.1-3-2.5-4c-2-1.5-4.2-2.1-6.8-1.7c-1.9,0.4-3.6,1-5.3,1.7C35,59.6,22.2,69.4,11.1,82.2c-0.5,0.3-1.2,1.2-2.3,2.6
		c-0.6,0.9-0.9,1.7-0.8,2.6c0.4,2.9,7.2,3.4,20.5,1.5L33.9,88.1z"/>
	<path d="M143.9,95.3c-0.9,0.1-2.4,0.2-4.6,0.3s-4.2-1.5-5.9-4.7l-0.5-2.2c-0.3-2.4,0.2-4.8,1.7-7.4c1.5-2.6,3.4-4.7,5.9-6.5
		c1.7-1.4,3.7-2.3,5.9-2.8c0.9-0.1,1.7-0.1,2.5,0.2c1.9,0.5,2.9,1.7,3.2,3.6c0.1,0.9-0.1,1.9-0.5,2.9c-1.1,1.9-2.7,3.6-4.9,4.9
		s-4.5,2.2-7.1,2.5c-0.3,0.8-0.3,2-0.1,3.6c0.2,0.5,0.8,0.9,1.7,1.3s1.9,0.5,2.9,0.3c3.6-0.5,7-1.9,10.1-4.3c3.8-2.8,7-6.3,9.6-10.4
		c0.2-0.4,0.4-0.6,0.7-0.7c0.8-0.1,1.4,0.2,1.9,0.9c0.1,0.6,0,1.1-0.2,1.6c-4,6.2-9.1,11.1-15.5,14.6
		C148.7,94.3,146.4,95,143.9,95.3z M141.5,82.5c1.9-0.7,3.7-1.7,5.3-3.1c1-0.9,1.5-1.8,1.5-2.7l-1.1,0.5
		C144.9,78.5,143,80.2,141.5,82.5z"/>
	<path d="M170.9,108.5c-2.4,0.3-4.6-0.1-6.7-1.3c-2.1-1.6-3.5-3.7-4-6.3c-0.8-5.6-0.4-11.2,1.1-16.8c3.9-15.3,10.5-30.3,19.6-44.9
		c2.7-4.6,5.9-9.4,9.6-14.4c2.8-4.2,6.2-7.9,10.1-11c0.2-0.2,0.5-0.3,0.9-0.3c1-0.1,1.8,0,2.4,0.5c0.6,0.5,0.9,1,1,1.5
		c0.1,0.4,0,0.8-0.2,1.4c-2.1,3.5-4.4,6.8-7,10c-5.2,7-9.3,12.9-12.2,17.8c-7.9,13.1-14.1,26.6-18.3,40.5c-1.7,4.8-2.4,9.8-2.1,15
		c0.3,2,1.4,3.4,3.3,4.1c0.9,0.2,1.9,0.3,2.9,0.2c1.1-0.2,2.3-0.6,3.4-1.4c4.2-2.6,8.1-5.7,11.7-9.1c7.3-6.8,13.6-14.5,18.7-23.1
		c0.2-0.3,0.5-0.5,0.9-0.5c0.9-0.1,1.4,0.3,1.5,1.3l-0.1,1c-6.5,10.1-14.1,19.2-23.1,27.4c-2.2,2.1-4.5,3.9-6.7,5.5
		C175.5,107,173.2,108.1,170.9,108.5z"/>
	<path d="M211.5,102.7c-2.4,0.3-4.6-0.1-6.7-1.3c-2.1-1.6-3.5-3.7-4-6.3c-0.8-5.6-0.4-11.2,1.1-16.8c3.9-15.3,10.5-30.3,19.6-44.9
		c2.7-4.6,5.9-9.4,9.6-14.4c2.8-4.2,6.2-7.9,10.1-11c0.2-0.2,0.5-0.3,0.9-0.3c1-0.1,1.8,0,2.4,0.5s0.9,1,1,1.5
		c0.1,0.4,0,0.8-0.2,1.4c-2.1,3.5-4.4,6.8-7,10c-5.2,7-9.3,12.9-12.2,17.8c-7.9,13.1-14.1,26.6-18.3,40.5c-1.7,4.8-2.4,9.8-2.1,15
		c0.3,2,1.4,3.4,3.3,4.1c0.9,0.2,1.9,0.3,2.9,0.2c1.1-0.2,2.3-0.6,3.4-1.4c4.2-2.6,8.1-5.7,11.7-9.1c7.3-6.8,13.6-14.5,18.7-23.1
		c0.2-0.3,0.5-0.5,0.9-0.5c0.9-0.1,1.4,0.3,1.5,1.3l-0.1,1c-6.5,10.1-14.1,19.2-23.1,27.4c-2.2,2.1-4.5,3.9-6.7,5.5
		C216.2,101.2,213.9,102.3,211.5,102.7z"/>
	<path d="M252,83.4c-1.2,0.2-2.6-0.1-4.1-0.8c-2.6-1-4.1-3.4-4.7-7.2c-0.4-3,0.1-6.2,1.5-9.6c-0.8-1.2-1.3-2.4-1.5-3.6
		c-0.2-1.6,0.3-3.3,1.5-5c1.2-1.7,2.9-2.8,5-3.2c1.2-0.2,2.5-0.1,3.7,0.2c4.6,1.8,7.2,5.2,8,10.2l0.1,0.8l0.2,0
		c3.1-0.8,6-2.1,8.8-3.8l0.4,0c0.5-0.1,0.9,0,1.1,0.2c0.2,0.2,0.4,0.6,0.4,1.1c0,0.5-0.3,1-0.8,1.4c-3.2,1.9-6.5,3.3-10.1,4.3
		c0,6.5-2.4,11.2-7.3,14.2C253.5,83,252.7,83.3,252,83.4z M258.1,66.1l-0.2-1.3c-0.3-1.9-0.9-3.5-1.9-4.9c-1.5-1.8-3.4-2.7-5.7-2.6
		c-1.5,0.2-2.6,0.8-3.3,1.8s-0.9,2-0.8,3.2l0.2,0.2c0.8-1.5,1.9-2.6,3.2-3.3c0.3-0.3,0.8-0.5,1.3-0.6c0.9-0.1,1.8,0.3,2.6,1.2
		c0.3,0.3,0.5,0.7,0.5,1.1c0.2,1.2-0.3,2.1-1.3,2.7c-0.1,0.1-0.2,0.3-0.2,0.4s-0.1,0.2-0.1,0.3s-0.2,0.2-0.3,0.5
		c-0.1,0.3-0.3,0.6-0.4,0.8s-0.2,0.5-0.3,0.8c0.1,0.1,0.3,0.2,0.5,0.1s0.4,0,0.5,0.1c1.4,0.1,2.9,0,4.4-0.2L258.1,66.1z M252.3,78.9
		c0.6-0.1,1.4-0.7,2.4-1.7c2-2.2,3.1-4.8,3.5-7.9l-1.5,0.2c-2.1,0.3-4.2,0.2-6.3-0.2l-0.4,1.6l0,0.2c-0.5,1.7-0.7,3.3-0.5,4.8
		c0.1,0.9,0.4,1.6,1,2.2C251.1,78.8,251.7,79,252.3,78.9z"/>
	<path d="M281.4,69.4c-1.5,0.2-2.3-0.3-2.5-1.6c-0.1-0.9,0.5-3.3,1.9-7.2c0.4-0.9,0.7-1.9,1-2.9c0.3-1,0.6-2,0.8-2.9
		c2.4-8,4.2-13.5,5.3-16.4l2.4-7.4l1.1-2.8c1-3.1,2.1-6.1,3.3-9.1c0.4-0.8,1-1.3,1.7-1.4c2.1-0.3,3.3,0.3,3.5,1.8l0,1
		c-1.7,6.1-3.6,12-5.7,17.8c-0.8,2.2-1.6,4.2-2.2,6.2c-3.9,11.1-6.3,17.7-7.3,19.6c-0.4,1.5-0.9,2.8-1.5,4
		C282.7,68.9,282.1,69.3,281.4,69.4z"/>
</g>
<g>
	<g>
		<path d="M279.1,73.4c0,1.8-0.3,3.5-0.7,5.2c-0.4,1.7-0.8,3.4-1.5,5.1c0-1.8,0.3-3.5,0.7-5.2C277.9,76.8,278.3,75.1,279.1,73.4z"/>
	</g>
	<g>
		<path d="M282.6,79.8c-1.6,0-3.2-0.2-4.8-0.6c-1.6-0.3-3.1-0.8-4.6-1.4c1.6,0,3.2,0.2,4.8,0.6C279.6,78.7,281.1,79.1,282.6,79.8z"
			/>
	</g>
</g>
</svg>
