<?xml version="1.0" encoding="utf-8"?>
<!-- Generator: Adobe Illustrator 25.1.0, SVG Export Plug-In . SVG Version: 6.00 Build 0)  -->
<svg version="1.1" id="Layer_1" xmlns="http://www.w3.org/2000/svg" xmlns:xlink="http://www.w3.org/1999/xlink" x="0px" y="0px"
	 viewBox="0 0 697 53" style="enable-background:new 0 0 697 53;" xml:space="preserve">
<style type="text/css">
	.st0{opacity:0.85;}
	.st1{fill:#CCFFD9;}
	.st2{fill:#99BFA3;}
	.st3{fill:#66806C;}
	.st4{fill:#D6FFE0;}
	.st5{fill:#738F7A;}
	.st6{fill:#FFFFFF;}
</style>
<g class="st0">
	<g class="st0">
		<g>
			<path class="st1" d="M576.5,38c-0.5,0.2-1.1,0.4-1.6,0.6c-1-0.1-2.2-0.2-3.2-0.4c-0.3,0.7-0.7,1.4-1.2,2.1
				c-0.8,0.5-1.6,1-2.3,1.4c2.1,0.8,3,0.9,4.6,1.9c-0.4,0.4-0.8,0.8-1.4,1.2c-1.6-0.2-3.3-0.4-5-0.6c-0.8-0.1-1.8-0.2-2.6-0.3
				c-0.3-0.3-0.5-0.6-0.7-0.9c-1.5,0.3-3,0.6-4.5,0.9c-0.5,0-0.9-0.1-1.4-0.2c-0.7-0.3-1.3-0.5-2.1-0.8c-0.2,1.1-2.1-0.1-2.9,0.5
				c-2.8-0.5-4.7-2.1-5.8-1c-0.6-0.5-2.2-0.9-3.9-1c-1.6,1.7-1.7-1.5-3.4,0.2c-0.3-0.8-3.6-1.2-4.5-0.5c-4.8-0.7-10.5-1.1-15.6-1
				c-2.8,0-8-0.3-10.3-1.5c-0.9,0.1-0.5,0.7-0.8,1.1c-0.5-0.2-1.9,0-1.7-0.5c-0.2-0.4-0.8-0.4-1.2-0.4c-0.6,0.1-0.6,0.5-0.7,0.7
				c-7.2-2.7-13,1-20.1-1.7c-0.1,1.3-2.5,0.1-2.8,1.4c-2.5,0-5.1,0-7.5,0c-3.2,0.2-6.8-0.6-10.1-0.8c-1.4-0.6-2.5-0.3-2.9,0.2
				c-2.3-0.2-4.6-0.3-6.9-0.5c-1.7-0.7-2.9-0.8-5-0.3c-1.5-0.2-3.1-0.3-4.5-0.5c-2.6-0.7-4.2-0.7-3.9,0.1c-0.3,0-0.6-0.1-0.9-0.1
				c-1.4-0.1-2.8-0.1-4.2-0.2c-0.4,0-0.9,0.1-1.4,0.1c-1-0.2-2.1-0.4-3.1-0.6c-1.2-0.5-2,0.3-2.5,0.5c-1.5-0.2-3-0.3-4.5-0.5
				c-2-0.6-2.5,0.1-3.2-0.1c-2.7-0.3-5.5-0.6-8.2-0.9c-1.4,0.4-2.5,0.2-3.7,0.1c-0.1-0.2-0.2-0.4-0.3-0.6c-0.5,0-0.9-0.1-1.3-0.2
				c-1.6,0.3-2.8,0.3-4,0.7c-0.4,0-0.9-0.1-1.3-0.2c-0.2-0.1-0.5-0.2-0.9-0.4c-0.9-0.1-1.8-0.2-2.6-0.3c-0.9,0-1.6,0-2.4,0
				c-0.5,0.1-1,0.2-1.6,0.4c-0.2-0.3-0.4-0.5-0.7-0.7c-0.9,0-1.6,0-2.4,0c-0.9-0.1-1.5-0.2-2.3-0.3c-0.8,0.2-1.4,0.4-2.1,0.6
				c-1.4,0-2.3-0.4-2.8-1.4c-0.8,0.2-1.7,0.4-2.5,0.5c-0.4,0-0.7-0.1-0.9-0.1c-1.5,0.2-3,0.4-4.4,0.7c-2.4-0.2-4.5,0.3-6.9-0.5
				c-0.6,0.2-1.1,0.5-1.6,0.7c-0.9,0-1.6,0-2.4,0c-1.3,1-4.2-0.5-5.8,0.5c-1.3-0.2-2.7-0.3-4-0.5c0.2-0.6,0.3-1.1,0.5-1.6
				c0.4-0.2,0.8-0.5,1.1-0.7c0.7,0.1,1.5,0.3,2.2,0.5c1.3,0.6,1.4-0.7,2.1-0.6c1.4-0.1,2.8-0.3,4.3-0.3c1.2,0.1,2.4,0.3,3.6,0.4
				c2.6-0.3,5.2-0.6,7.8-0.8c0.9,0.1,1.8,0.2,2.7,0.3c1.4,0,2.8,0.1,4.1,0.2c-0.3-0.5-0.6-1-0.9-1.5c1.1-0.7,3.8,0.2,3.2-1.3
				c4.3,0,9.5,1.5,12.5-0.8c1.9-1.3,3-1.2,4.2-1.2c0.3,0.3,0.7,0.6,1.1,0.9c0.3,0.6,0.7,1,1,1.3c1.1,0.4,1.5-0.4,2.1-0.6
				c0.6-0.6,1.2-1.1,1.9-1.7c4,0.2,8,0.5,12,0.8c1.8,1,2.7-0.2,3.8-0.4c0.6,0.1,1.2,0.1,1.8,0.2c0.9,0.2,1.8,0.4,2.7,0.5
				c2.4,0.7,2.1-0.4,2.9-0.2c0.3-0.1,0.6-0.2,1-0.2c3,1.3,3.5-0.2,4.6,0.2c0.5,0.2,1,0.5,1.6,0.8c0.4-0.2,0.7-0.3,1-0.5
				c0.4,0,0.7,0.1,1,0.1c3,0.8,1.7-0.8,3.5-0.4c0.4,0.1,0.8,0.3,1.2,0.4c0.8-0.1,1.6-0.2,2.4-0.3c0.2,0.2,1,0.9,1.4,1.5
				c0.2,0,0.3,0,0.5,0c1.9-0.9,5.9-0.8,8.2-0.5c1.7-0.3,4.6,0.3,6.8,0.8c1.7-0.9,3.9-0.3,5.5,0c1.5,0.2,3,0.3,4.5,0.5
				c1.5,0.2,3,0.3,4.5,0.5c0.7-1.1,2.1-0.2,2.6-0.8c1-0.3,3.8,0,4.4,0.8c0.3,0,0.6,0.1,0.9,0.1c2-0.8,2.1-0.3,4.5-0.9
				c3.6,0.5,7.2,1,10.8,1.5c0.8,0,0.3-0.7,1.1-0.5c2-0.3,0.8,1,2.5,1.2c1.3-1.1,3.5,0.1,4.5-0.9c2.2,1.6,5.6,0.3,8.5,1.2
				c4.8,0,9.7,0,14.5,0c2,0.1,4.8,0.7,6.5,1.5c0.4,0,0.8,0.1,1.3,0.2c1,0.2,2.1,0.4,3.1,0.6c0.2-0.4,0.5-0.7,0.7-1
				c3.8,0.5,7.6,1,11.2,1.5c3.4-0.6,5.6,0.3,9.2,0.5c0.8-0.2,1.3-0.7,2.2-0.6c0.6,0.1,1.2,0.1,1.8,0.2c2.9-0.2,4.7,0,6.4,0.5
				c1.2,0.1,2.5,0.3,3.6,0.4C581.2,38.6,578.4,38.2,576.5,38z"/>
		</g>
		<g>
			<path class="st2" d="M568.8,35.9c-0.8-0.1-1.4,0.4-2.2,0.6c-3.6-0.2-5.8-1.1-9.2-0.5c-3.7-0.5-7.5-1-11.2-1.5
				c-0.2,0.3-0.5,0.6-0.7,1c-1-0.2-2.1-0.5-3.1-0.6c-0.5,0-0.9-0.1-1.3-0.2c-1.8-0.9-4.5-1.5-6.5-1.5c-4.9,0-9.8,0-14.5,0
				c-2.9-0.9-6.3,0.5-8.5-1.2c-1,1-3.1-0.2-4.5,0.9c-1.7-0.1-0.5-1.5-2.5-1.1c-0.8-0.3-0.3,0.4-1.1,0.4c-3.5-0.5-7.2-1-10.8-1.5
				c-2.3,0.6-2.5,0.1-4.5,0.9c-0.4,0-0.7-0.1-0.9-0.1c-0.6-0.8-3.5-1.1-4.4-0.8c-0.5,0.6-1.9-0.3-2.6,0.8c-1.5-0.2-3-0.3-4.5-0.5
				s-3-0.3-4.5-0.5c-1.6-0.4-3.8-0.9-5.5,0c-2.2-0.4-5.1-1.1-6.8-0.8c-2.2-0.3-6.3-0.4-8.2,0.5c-0.2,0-0.3,0-0.5,0
				c-0.4-0.7-1.1-1.4-1.4-1.5c-0.8,0.1-1.6,0.2-2.4,0.3c-0.4-0.2-0.9-0.3-1.2-0.4c-1.7-0.4-0.5,1.2-3.5,0.4c-0.3,0-0.6-0.1-1-0.1
				c0,0.2-0.1,0.3-0.2,0.6c-0.3,0-0.6-0.1-0.9-0.1c-0.6-0.3-1.1-0.5-1.6-0.8c-1.1-0.4-1.6,1-4.6-0.2c-0.2-0.5-0.4-1-0.5-1.5
				c0.4-0.3,0.8-0.7,1.3-1c3,0.5,3.3,0,5.1,0c1,0.6,2.2,0.4,3.1,0.6c0.9,0.2,1.7,0.4,2.6,0.6c5.6-0.7,8.6,0,13.1-0.2
				c2.5,0.8,3.3,0.3,4.8-0.3c-3.2-1.1-3.1-0.1-4.6-0.3c-0.4-0.3-0.7-0.6-1.1-0.9c-4,0.5-8-0.3-10.9-1.2c-1.2,0.2-2.4,0.5-3.5,0.7
				c-1.1,0-2.3,0.1-3.4,0.2c-0.9-0.6-1.8-1.1-2.7-1.7c-3.1-0.9-4.7-1.1-6-1.5c-1.2,0.1-2.4,0.3-3.5,0.5c-1.8-0.3-3.5-0.6-5.4-0.9
				c0.2-0.6,0.4-1.3,0.6-1.9c0.8,0.1,1.5,0.2,2.3,0.3c3.2,1.7,3.7,0.5,5.5,0.6c0.2,0.3,0.4,0.5,0.8,0.7c0.9-0.1,1.9-0.1,2.8-0.3
				c1.8,0.6,3.4,1.1,5.1,1.7c1.6-1.4,3.1-1,4-0.9c0.7,1.1,2.7,0,4.2,0.2c0.6-0.3,2-0.2,2.9-0.5c0.7,0.1,1.2,0.1,1.9,0.2
				c0.1,0,0.3,0,0.4,0c-0.1,0.3-0.2,0.6-0.3,0.8c1,0.2,2.1,0.4,3.1,0.6c1.4-0.4,2.2-0.3,3.4-0.2c0.5-0.5,0.9-1,1.4-1.5
				c0.6,0.1,1.2,0.1,1.8,0.2c0.4,0.2,0.8,0.4,1.2,0.7c1-0.3,2-0.5,3.1-0.8c0.3,0.1,0.5,0.2,0.8,0.3c0.5,0,0.9,0.1,1.4,0.2
				c0.2,0.6,0.5,1.2,0.8,1.8c1.7-1.3,4.7,0.4,6.8-0.6c2.5,0.9,3.2,0.8,4,0.7c0.3,0.2,0.5,0.4,0.8,0.7c-0.4,0.3-0.8,0.6-1.3,1
				c0.1,0.2,0.3,0.4,0.3,0.6c1,0.1,2.2,0.2,3.2,0.4c-1.6,0.6-2.9,0.8-3.3-0.1c-0.8,0-1.6,0-2.4,0c-5,0.5-10.2-1-13.7,0.4
				c1.9,0.7,2.9,1.1,3.5,0.6c7.6,1.1,17.3,0.3,25.4,2.6c0.9-0.3,1.7-0.6,2.6-0.9c4.5,0.3,9.6,1.5,13.3,1c-0.2,0.2,0.1,0.4,0.3,0.6
				c1.9,0.4,2.4-1.1,3.7-1.2c0.8,0.3,1.7,0.5,2.6,0.8c0.5,1.6,2.9-0.2,4.5,0.2c1.4,0.4,3,0.7,4.3,1.1c2.1,0.1,6.2,0.2,7.5-1.4
				c0.4-0.1,0.7-0.1,1-0.2c2.9,0.1,5.9,0.3,8.8,0.4c-0.2,0.6-0.4,1.3-0.6,1.9c0.6,0.5,2.1,0.4,3.1,0.6c0.5,0,0.8,0.1,1.3,0.2
				c0.3-0.2,0.5-0.3,0.7-0.5c1.5,0.2,3,0.3,4.5,0.5c0.9-0.3,0.6-1,1.8-1.2c0.7,0.1,1.2,0.1,1.9,0.2c0.4,0.6,0.9,1.2,1.3,1.8
				c0.3,0.5,1.5,0.3,2.2,0.5c0.8-0.7,2.8-0.4,4-0.9c0.9,0.1,1.8,0.2,2.7,0.3c0.3,0.5,1.5,0.3,2.2,0.5c1.2,1.1,2.2,0.9,2.4,1.4
				C568.5,35.7,568.6,35.8,568.8,35.9z"/>
		</g>
		<g>
			<path class="st1" d="M561.1,33.4c-1.2,0.5-3.2,0.2-4,0.9c-0.7-0.2-1.8,0-2.2-0.5c-0.4-0.6-0.9-1.2-1.3-1.8
				C556.1,32.5,558.6,32.9,561.1,33.4z"/>
		</g>
		<g>
			<path class="st1" d="M545.5,32.5c-0.2,0.2-0.4,0.3-0.7,0.5c-0.5,0-0.8-0.1-1.3-0.2c-1-0.2-2.5-0.1-3.1-0.6
				c0.2-0.6,0.4-1.3,0.6-1.9c1.7,0.3,3.2,0.5,4.9,0.9c2,0.2,4,0.5,5.8,0.7c-1.1,0.2-0.9,0.9-1.8,1.2C548.5,32.8,547,32.7,545.5,32.5
				z"/>
		</g>
		<g>
			<path class="st1" d="M532.9,24.7c-1.5,1.7-4.2-0.1-5.9,1c-0.4-0.3-0.8-0.6-1.2-0.9c0.1-0.3,0.2-0.7,0.3-1.1
				c1.1-0.3,2.1-0.5,3.1-0.8c1.3,0.5,2.5,1,3.7,1.5C533,24.5,533,24.6,532.9,24.7z"/>
		</g>
		<g>
			<path class="st1" d="M507.2,18.7c-0.3-0.3-0.7-0.5-1.1-0.7c0.1-0.3,0.2-0.5,0.2-0.8c1.1-1.2,2.5-0.4,3.9-0.4
				c-0.3,0.5,0,1.3-0.9,1.6C508.5,18.5,507.9,18.5,507.2,18.7z"/>
		</g>
		<g>
			<path class="st3" d="M510.5,24.4c-0.7-0.4-1.3-0.7-2-1c-1.1-0.4-1.8,0.2-2.9,0.2c-0.8,0.2-1.7,0.4-2.5,0.6
				c-0.2,0.3-0.5,0.6-0.7,1c-0.9-0.2-1.8-0.4-2.6-0.6c-0.2-0.5-0.4-1-0.5-1.5c-3.7-1.2-4.8-0.1-6.6,0.1c-0.3,0-0.6-0.1-0.9-0.1
				c-1.3-0.2-2.6-0.5-4-0.7c-0.6,0-1.3,0-1.9,0c-1,0-1.9,0-2.8,0c-0.3,0-0.6-0.1-0.9-0.1c-0.9-0.1-1.9-0.2-2.7-0.3
				c-0.4,0-0.7-0.1-0.9-0.1c-1.1,0-2.1-0.1-3.2-0.1c-0.4,0-0.7-0.1-0.9-0.1c-1.8,0-3.4,0-5.2,0c-0.3,0-0.6,0.1-0.9,0.1
				c-0.5,0-0.9-0.1-1.4-0.2c-0.3-0.1-0.5-0.2-0.8-0.3c-1.9-0.6-4.2-1.2-4.3,0c-0.6-0.1-1.2-0.1-1.8-0.2c-0.8-0.1-1.7-0.4-2.6-0.6
				c-1.6,0.8-3.5,0.6-5,0.8c-0.1,0-0.3,0-0.4,0c-0.7-0.1-1.2-0.1-1.9-0.2c-0.7-0.3-1.4-0.7-2-1c-0.9-0.1-1.8-0.2-2.6-0.3
				c-0.8,0.8-3.3,0.9-2.7-0.3c-1.7,0.6-2.9,0.1-3.8-0.1c-0.6,0-1.3,0-1.9,0.1c-0.9,0.9-2.3,0.4-3.1,0.8c-1.2-0.1-2.4-0.3-3.6-0.4
				c-0.5-0.3-1.1-0.5-1.6-0.8c-0.9,0.9-2.9,0.7-2.9,0.2c-0.3-0.5-0.5-1,0.2-0.6c-2-0.2-3.3-0.5-3.4,0.2c-1.4,0-2.8,0-4.2,0
				c-0.8-0.1-1.7-0.4-2.7-0.5c-0.1,0.2-0.2,0.5-0.2,0.8c-0.9-0.1-1.8-0.2-2.6-0.3c-1.4-0.3-2.7-0.5-4.1-0.8
				c-0.1,0.3-0.2,0.6-0.3,0.8c-1.6-0.2-3.3-0.4-4.9-0.5c-1.1,0.9-2.5,0.4-3.5,0.4c-0.6-0.6-0.7-1.5-3.1-0.6c-0.9,0-1.9,0-2.7,0
				c-1.9-0.2-3.7-0.4-5.5-0.6c-0.8,0.7-2.8,0.4-4,0.9c-1.2-0.3-2.3-0.6-3.5-1c-4.1-0.2-6.5,0.4-10.4,0.5c-1.8-0.5-3-0.4-2.6-0.8
				c1.4-1,3-0.6,3.6-1.3c1.1,0,2.2,0,3.3,0.1c0.7-1.1,4,0.6,4.1-1.2c0.9,0.3,1.8,0.6,2.6,0.9c3.9-0.2,9.1,0.1,13.3-0.5
				c1,0.2,2,0.4,3,0.6c0.6-0.1,1.4,0.4,1.9-0.1c1.4-0.2,4.7-0.1,5.8,1.2c0.3,0,0.6,0.1,0.9,0.1c2-0.7,2.9-0.3,3.5-0.7
				c-0.2-0.9,1.6-0.5,2.5-0.6c1.6-0.1,1,0.6,2.4,1.4c1.6-1.1,3.9-0.6,4.6-1.4c4.8,1.6,9.6,0.3,14.7,1.1c0.3,0.3,0.7,0.6,1,1.2
				c0.8-0.1,1.7-0.3,2.5-0.5c0.7-0.2,1.4-0.4,2-0.6c3.7,2.3,5.5-1.9,8.3,0.6c0.6,0,1.3,0.4,1.9-0.1c-0.3-1,1-0.7,2-0.6
				c-0.1,0.4-0.5,1.1,0.6,1.2c1.7,0.6,3-0.8,4-0.9c1.3,0.1,2.7,0.3,4,0.5c3.7,0.5,7.2,1,10.8,1.5c0.6,0,1.1,0.2,1.5-0.1
				c-0.3-1,1-0.8,2.1-0.6c-0.3,0.3,0.1,0.4,0.3,0.6c1.7,0,2.3-0.5,4.2-0.1c-0.2,0.7,1,0.6,1,1.3c5.5-0.8,11.2,0.6,17.3,0.3
				c-3.4-1.8-8.8-2.4-12.1-1.9c-1.6,0.2-0.8-0.6-2.1-0.8c-3.5,0.7-7.9-0.8-11.6-0.5c-3.3,0-8.6-0.7-11.2-0.2
				c-0.8-0.3-1.7-0.5-2.6-0.8c-0.1-0.6-0.2-1.2-0.3-1.7c1.3-0.1,2.5-0.1,3.8-0.1c0.7-1,2.8,0,4.2,0c1.5,0.2,3,0.3,4.5,0.5
				c0.9-0.3,1.6-0.9,2.6-0.9c1.4,0.4,2.9,0.7,4.4,1.1c4.8-0.1,9.9,0.8,14.8,0.9c3.6,0.4,5.6,0.3,7.4,0.3c2.1,0.3,4.1,0.6,6.2,1
				c-0.1,0.3-0.2,0.5-0.2,0.8c-0.8,0.2-1.7,0.4-2.5,0.6c-0.9,1.2,1.9,0.9,3,1.1c0.1,0,0.3,0,0.4,0c2.5,0.9,3.5,1,4.4,1.1
				c0.9,0.2,1.8,0.4,2.7,0.5c0,0.5,0,0.9,0,1.4c-0.2,0.6-0.4,1.1-0.5,1.6C512.4,24.4,511.5,24.4,510.5,24.4z"/>
		</g>
		<g>
			<path class="st1" d="M473.5,14c-1,0-1.7,0.6-2.6,0.9c-1.5-0.2-3-0.3-4.5-0.5c0.6-0.6,1.1-1.2,1.5-1.8c1.7,0.1,3.4,0.2,5.1,0.3
				C473.2,13.2,473.3,13.7,473.5,14z"/>
		</g>
		<g>
			<path class="st4" d="M401.9,35.8c-3.4,0.2-5.1,1.7-7.7,0.5c-0.9,0-1.8,0-2.8,0c-2.4,0.7-6.1-0.3-9.1-0.7
				c-1.5,2.6-5.8,0.5-7.9,1.6c-2.4-0.2-3.6-1.3-6.1-1.6c-2.2,1.2-5.4,0.5-5.9,2.4c-1.1-0.1-2.2-0.2-3.1-0.6
				c-1.5,0.9-3.4,0.4-5.3,0.3c-0.9,0.2-1.7,0.6-2.6,0.8c-4-1-6,0.3-9.8-0.3c-1.4,0.5-4-0.2-4.2,1.5c-2.8-0.4-4.4-0.1-6.8,0.6
				c1.3,1.5,4.5,1.2,4.2,3c-2.4,2-6.3-1.7-7.3,0.9c-0.9-0.2-2.6-0.1-2.6-0.6c-2.4-0.6-2.9-2.6-5.5-3.4c-0.9-0.3-2.5-0.8-1.8-1.6
				c0.5-0.5,1.2-1,1.8-1.5c0.8,0,1.6,0,2.3,0c0.7,0.3,1.4,0.7,2,1c0.9-0.4,2.4-0.5,2.7-1.1c1.7,0.5,2.2,0.5,3.8-0.4
				c0.9-0.5,1.9-1,2.8-1.4c2.2,0,4.4,0.1,6.6,0.2c2.1,0.1,4.3,0.1,6.5,0.2c1.3-0.7,3.7-0.3,5.4-0.8c0.4,0.1,0.8,0.3,1.2,0.4
				c1-0.1,1.9-0.1,2.9-0.2c1.3,0.2,2.7,0.3,4,0.5c1.6-1,4.5,0.6,5.8-0.5c0.8,0,1.5-0.1,2.4,0c0.5-0.2,1-0.5,1.6-0.7
				c2.4,0.8,4.5,0.3,6.9,0.5c1.5-0.2,3-0.4,4.4-0.7c0.3,0,0.6,0.1,0.9,0.1c0.8-0.1,1.7-0.3,2.5-0.5c0.5,1,1.4,1.4,2.8,1.4
				c0.8-0.2,1.4-0.4,2.1-0.6c0.8,0.1,1.4,0.2,2.3,0.3c0.8,0,1.5-0.1,2.4,0c0.2,0.2,0.5,0.4,0.7,0.7c0.5-0.2,1.1-0.3,1.6-0.4
				c0.8,0,1.5,0,2.4,0c0.9,0.1,1.8,0.2,2.6,0.3C401.4,35.5,401.6,35.6,401.9,35.8z"/>
		</g>
		<g>
			<path class="st3" d="M366.7,19.5c0,0,0,0.2-0.1,0.3c-0.6,0-1.3,0-1.9,0c-1-0.1-2.2-0.2-3.2-0.4c-0.8-0.1-1.5-0.2-2.3-0.3
				c-0.5,1.1-2.7-0.1-4.3,0.4c-0.1,0.3-0.2,0.5-0.2,0.8c-0.1,0.2-0.4,0.3-0.6,0.5c0-0.1,0.1-0.2,0.1-0.3c-0.9-0.4-1.9-0.8-2.9-1.1
				c-0.8-0.1-1.5-0.2-2.3-0.3c-1,0.1-1,0.9-1.8,0.9c-0.4,0-0.9-0.1-1.3-0.1c-0.2,0.5-0.3,1.1-0.5,1.6c-0.9,0.4-1.3,0.8-2,0.6
				c-3.6-0.4-1.3,0.8-1.9,1.5c0.1,0.3,0.2,0.5,0.2,0.8c3.9,0.1,6.8-0.5,9.1-0.6c0.4,0.2,0.9,0.3,1.3,0.4c0.9,0,1.9,0,2.8,0
				c0.4-0.2,0.7-0.4,1.1-0.7c1.4,0.2,2.7,0.3,4,0.5c1.4,0.5,2.8,0.9,4.3,1.3c-0.5,0.4-1.1,0.6-1.7,1c-0.8-0.3-1.4,0.1-2.4,0.2
				c-3.6,0.5-6.6-0.9-8.5,0.4c-3.6-1.6-7.7,1.4-10.9-1.2c-1.3,0.6-2.5,1.2-3.8,1.8c0.4,0.4,0.6,0.8,1,1.2c-0.2,0.5-0.3,1.1-0.6,1.9
				c1.6,0.4,3.2,0.8,4.8,1.1c-1.9,1-3.1,0.5-4,0.9c-0.4,0-0.7-0.1-0.9-0.1c-1.2,0.3-2.5,0.7-3.6,1c-0.1,0-0.3,0-0.4,0
				c-1.4-0.3-2.6-0.7-4-1c-0.1,0-0.3,0-0.4,0c-1.2,1.2-2.6,0.8-4,0.7c-1.2-0.1-2.4-0.1-3.7-0.2c-0.2,0.1-0.5,0.2-0.6,0.2
				c0.1,0.5,0.3,1,0.5,1.5c0.2,0.6,2,0.2,1.5,1c-0.1,0.2-0.2,0.5-0.2,0.8c-0.2,0.2-0.5,0.3-0.6,0.5c-0.8,0-1.6,0-2.3,0
				c-1.2-0.4-0.5-1-0.5-1.5c-0.3-0.5-1.5-0.3-2.2-0.5c-2.9-1.9-3.5-0.6-6.2-1c-0.8-0.7-1.7-1.5-2.5-2.2c0.7-0.4,1.4-0.8,2.2-1.1
				c0.2-0.5,0.3-1.1,0.5-1.6c0.8,0.1,1.5,0.2,2.3,0.3c0.5-0.6,1-1.2,1.4-1.8c1,0.2,2.1,0.4,3.1,0.6c0.3-0.1,0.6-0.2,1-0.2
				c0.3,0.1,0.5,0.2,0.8,0.4c2,0.5,2.6-0.3,3.8-1.5c0.9-0.8,2.2,0,3.5-0.7c0.1-0.4,0.2-0.7,0.3-1.1c0.1-0.7,0.1-1.3,0.2-2
				c-0.7-0.1-1.2-0.1-1.9-0.2c-0.3-0.4-0.6-0.8-1-1.2c-0.5-0.5-2-0.6-3.2-0.4c-0.1,0-0.3,0-0.4,0c-0.2-0.9-0.4-1.7-0.6-2.6
				c-0.9-0.1,0.4-0.9-0.4-1.4c-1.1-0.1-2.2-0.2-3.2-0.4c0.6-0.3,1.2-0.6,1.7-1c0.5-0.3,0.9-0.6,1.3-1c-0.8-0.4-1.6-0.9-2.4-1.4
				c1.3-1,2.9-0.7,3.7-1.3c1.3,0.3,2.7,0.5,4,0.7c-0.2,0.6-0.4,1.2-0.6,1.9c0.8,0.1,1.5,0.2,2.3,0.3c1.9-1.4,4.1-0.9,6.3-0.7
				c-0.4,0.4-0.8,0.8-1.3,1.2c3.4,0.6,4.1-0.2,6.3,0.7c3-0.2,2.1-1,3.7-1.3c-4.2-1.5-5.7,0.5-7.7-0.9c0.3-0.7,0.8-1.4,1.2-2.1
				c0.5-0.1,1-0.2,1.5-0.4c2.6-0.3,5.1-0.5,7.8-0.8c2.8-0.6,6.2,0.2,9.5-0.3c0.8-0.1,1.6-0.2,2.4-0.3c3,0.9,4.3,0.3,5.6,0.1
				c0.3,0,0.6,0.1,0.9,0.1c-0.2,0.5-0.3,1.1-0.5,1.6c-2.9,0.4-4,1.5-5.6,1.3c-0.6-0.1-1.2-0.1-1.8-0.2c-0.5,0.1-1,0.2-1.5,0.4
				c-0.7-0.2-1.4-0.4-2.2-0.5c-1.7-0.4-2,1-3.2,1c-1.3-0.3-2.7-0.5-4-0.7c-1.6-0.2-0.8,1-1.9,1.5c0.8,0.1,1.5,0.2,2.3,0.3
				c1.5,0.6,2.2-0.6,3.5-0.4c0.7,0.3,1.3,0.7,2,1c2,0.9,1.5-1,3.1-0.8c3.4,1.5,3.3,0,5.1,0.3c2,1.1,2.5,0.2,3.5,0.7
				c0,0.2,0.2,0.4,0.3,0.6c0.7,0.3,1.4,0.6,2.1,0.8c1.2,0.1,2.4,0.3,3.6,0.4C367,18.6,366.9,19.1,366.7,19.5z"/>
		</g>
		<g>
			<path class="st1" d="M326.6,26.1c-1.2,0.7-2.5,0-3.5,0.7c-1.1-0.4-2.3-0.8-3.4-1.2c0.5-0.5,1-0.8,1.4-1.2c0.6-0.3,2-0.2,1.7-1
				c0.8-0.1,1.7-0.3,2.5-0.5c0.7,0.1,1.2,0.1,1.9,0.2c-0.1,0.6-0.1,1.3-0.2,2C326.8,25.4,326.7,25.8,326.6,26.1z"/>
		</g>
		<g>
			<path class="st2" d="M319.3,28.4c-0.2-0.1-0.5-0.3-0.8-0.4c-0.4,0-0.7,0.1-1,0.2c-1-0.2-2.1-0.5-3.1-0.6c-0.5,0.6-1,1.2-1.4,1.8
				c-0.8-0.1-1.5-0.2-2.3-0.3c-0.2,0.6-0.4,1.1-0.5,1.6c-0.8,0.4-1.5,0.8-2.2,1.1c-1.6-1-2.5-2-2.3-3.3c-1.9-0.9-2-0.9-2.4-1.4
				c0.1-0.5,0.3-0.9,0.5-1.6c0-0.5,0-0.9,0-1.4c-0.2-0.5-0.6-1-0.9-1.5c0.7-0.3,1.5-0.6,2.1-0.9c-0.4-0.6-0.9-1.2-1.3-1.8
				c0.4-0.3,0.8-0.7,1.3-1c1.3-0.4,2.7-0.8,4.1-1.2c1.4-0.3,2.6-0.6,4-0.9c0-0.2-0.2-0.4-0.2-0.5c0.5-0.5,0.9-1,1.4-1.5
				c0.9-0.4,1.8-0.7,2.7-1.1c0.8,0.4,1.6,0.9,2.4,1.4c-0.4,0.3-0.8,0.7-1.3,1c-0.5,0.3-1.1,0.6-1.7,1c1,0.1,2.1,0.2,3.2,0.4
				c0.8,0.5-0.5,1.3,0.4,1.4c0.2,0.8,0.4,1.7,0.6,2.6c-1.6,0.3-3.1,0.8-4.7,1.1c-0.8-0.3-1.7-0.6-2.5-0.9c-0.7,0.6-1.3,1.1-2,1.7
				c0.3,0.7,0.5,1.3,0.8,2c0.9-0.2,1.6-0.3,2.5-0.5c1.6,0.2,3.2,0.5,4.8,0.8c1.1,0.4,2.3,0.8,3.4,1.2
				C322,28.1,321.3,28.9,319.3,28.4z"/>
		</g>
		<g>
			<path class="st1" d="M315.2,23.8c-1.2-0.1-2.5-0.3-3.7-0.4c-0.1-0.1-0.2-0.3-0.4-0.3c0.8-0.5,1.6-0.9,2.4-1.4
				c0.8,0.3,1.7,0.5,2.5,0.9C315.8,22.9,315.5,23.3,315.2,23.8z"/>
		</g>
		<g>
			<path class="st4" d="M575.8,40.4c-1.2,0.5-2.4,0-5.2-0.1c0.4-0.7,0.8-1.4,1.2-2.1c1,0.1,2.2,0.2,3.2,0.4c0.2,0.2,0.5,0.4,0.7,0.7
				C576,39.8,575.9,40.1,575.8,40.4z"/>
		</g>
		<g>
			<path class="st4" d="M566,34.2c0.9-0.7,1.9-0.2,2.9-0.2c-0.2,0.5-0.3,1.1-0.5,1.6C568.3,35.1,567.2,35.3,566,34.2z"/>
		</g>
		<g>
			<path class="st4" d="M563.9,44c-2,0-4.2,0.9-5.2,0c1.5-0.3,3-0.6,4.5-0.9C563.4,43.4,563.6,43.7,563.9,44z"/>
		</g>
		<g>
			<path class="st4" d="M556.2,44.5c-0.8,0.1-1.6,0.2-2.4,0.3c-0.5-0.3-1.1-0.5-1.6-0.8c-3.3-0.3-6.8-0.6-10.1-0.8
				c-3.2,0.7-7.7-0.5-11.5-0.7c-3,0.8-7.6-0.7-11.1-0.4c-11.5-0.1-24.2-1.7-36-1.9c-0.2,0.5-1.3,0.1-2.1-0.8
				c0.3-1.3,2.7-0.1,2.8-1.4c7,2.7,12.9-1,20.1,1.7c0.1-0.3,0.1-0.6,0.7-0.7c0.5,0,1.1,0.1,1.2,0.4c-0.2,0.4,1.2,0.3,1.7,0.5
				c0.3-0.4-0.1-0.9,0.8-1.1c2.3,1.2,7.4,1.5,10.3,1.5c5.1-0.1,10.9,0.2,15.6,1c0.9-0.7,4.2-0.3,4.5,0.5c1.7-1.7,1.8,1.5,3.4-0.2
				c1.6,0.1,3.3,0.5,3.9,1c1.2-1.1,3,0.4,5.8,1c0.8-0.6,2.7,0.5,2.9-0.5c0.8,0.3,1.4,0.5,2.1,0.8C556.9,44.1,556.5,44.3,556.2,44.5z
				"/>
		</g>
		<g>
			<path class="st4" d="M544.3,39.3c1.3-0.7,1.9-0.6,2.5-0.5C548.4,40.3,544.6,39.7,544.3,39.3z"/>
		</g>
		<g>
			<path class="st4" d="M541.6,38.7c-4.3,1.5-6.7-0.1-10.3-0.3C535.1,38.1,538.2,37.9,541.6,38.7z"/>
		</g>
		<g>
			<path class="st4" d="M537.2,24.9c-1.2,1-4,0.6-4.2-0.2c0-0.1,0.1-0.2,0.1-0.3c-1.2-0.5-2.4-1-3.7-1.5c0.6-0.3,1.2-0.6,1.8-1
				c2.2,0,1.7,0.9,2.6,2c0.4,0,0.7-0.1,1-0.2c0.8,0.1,1.5,0.2,2.3,0.3c0.1,0.1,0.2,0.3,0.4,0.3C537.3,24.5,537.2,24.6,537.2,24.9z"
				/>
		</g>
		<g>
			<path class="st4" d="M531.2,30c-1-0.4-1.9-0.8-2.8-1.2c1.2-0.4,4-0.5,3.9,1C531.9,29.9,531.6,30,531.2,30z"/>
		</g>
		<g>
			<path class="st4" d="M525.3,29.4c-2-0.5-3.7-0.1-5.6-0.1c-3-0.4-5.2-0.9-7.1-1.1c-0.8-0.1-1.5-0.2-2.3-0.3
				c-0.2-0.7-1.8-0.5-1.5-1.3c0.5-0.8,1.1-1.6,1.6-2.3c1,0,1.8,0,2.8,0c1.5,0.2,3,0.3,4.5,0.5c0.8-0.2,1.5-1,2.5-0.5
				c1.8,0.1,3.7,0.2,5.5,0.3c0.4,0.3,0.8,0.7,1.2,0.9c-2.4,0.7-4.3,0.7-5.7,1.6c0.9,1,1.9-0.3,2.8,0c0.5,0.5,2.3,0.7,3.2,1.5
				C526.8,29,526,29.2,525.3,29.4z"/>
		</g>
		<g>
			<path class="st4" d="M520.2,38c0.3-0.8,1.2-1.2,2.6-0.8C523.1,38.4,521.5,38.8,520.2,38z"/>
		</g>
		<g>
			<path class="st4" d="M516.3,21.1c-0.8,0.1-1.6,0.2-2.4,0.2c-0.8-0.1-1.7-0.4-2.7-0.5c-0.9-0.1-1.8-0.2-4.4-1.1
				c0.1-0.3,0.2-0.7,0.3-1.1c0.7-0.1,1.4-0.2,2.1-0.3c0.7,0.2,1.4,0.3,2.2,0.5c0.8-0.1,1.5-0.2,2.4-0.3c0,1.6,1,1.5,1.8,1.6
				c0.2,0.1,0.5,0.3,0.8,0.4C516.4,20.7,516.3,20.9,516.3,21.1z"/>
		</g>
		<g>
			<path class="st4" d="M492.6,15.9c-4.9-0.1-9.9-1-14.8-0.9c-1.5-0.3-2.9-0.7-4.4-1.1c-0.2-0.4-0.3-0.8-0.5-1.2
				c3.6-1,8.2,0.8,11.8-0.1c2.4,0.9,6.1,0.9,8.1,2.3c1.4,0,2.8,0,4.2-0.1c0.5-0.3,3.3-0.3,3,1.1C498.2,16.3,496.2,16.4,492.6,15.9z"
				/>
		</g>
		<g>
			<path class="st4" d="M463.8,38.6c-1.5,0.6-3,0.7-2.9,0.2C461.3,38.2,462.4,38,463.8,38.6z"/>
		</g>
		<g>
			<path class="st4" d="M466.4,14.4c-1.4,0-3.5-0.9-4.2,0c-1.3,0-2.5,0.1-3.8,0.1c-1-0.1-2.2-0.2-3.2-0.4c0-0.1,0.1-0.2,0.1-0.3
				c-0.6-0.5-1.2-1.1-1.8-1.6c-1.2-0.1-2.2,0.3-3.4,0.4c-0.4,0-0.7-0.1-0.9-0.1c-1.2-0.1-2.5-0.3-3.6-0.4c-0.7,0.4-1.5,0.3-2.5,0.6
				c-0.4,0-0.7-0.1-0.9-0.1c-0.7,0.3-1.5,0.6-2.1,0.9c-1.5-0.2-3-0.3-4.5-0.5c-2.4-0.4-5.7-1.7-9-1.3c-3.3-0.2-6.4-0.4-9.7-0.5
				c-2,0.2-4.2,0.2-6.5-0.2c-1.7-1.4-3.8-0.1-6.1-0.1c-0.1,0.2-0.4,0.3-0.6,0.5c-0.2,0-0.4,0-0.5-0.1c-0.6-0.2-1.1-0.4-1.7-0.5
				c-1.3,0-2.6,0.1-3.8,0.1c-2,0-4.1-0.1-6-0.1c-0.1-0.2-0.3-0.4-0.3-0.6c0.7-0.6,1.3-1.1,1.9-1.7c2.6,0.4,6.5-1.8,7.6,1.1
				c1.3-2.1,3.2-1,3.9-0.7c1.1-0.2,2.4-0.5,3.5-0.7c2.3-0.1,0.9,0.7,2.3,1.6c0.8-0.7,1.7-1.3,2.5-1.9c3.8,0.7,7.7,0.2,10.9,0.9
				c0.1-0.8,2.2-0.7,3.5-0.4c3,0.3,6,0.7,9,1c0.2,0.3,0.5,0.3,0.9,0.1c-0.1-1.4,3.1-0.6,3.8-1.5c1.1,0.1,1.2,1.1,1.7,1.9
				c1.2-0.3,2.3-0.5,3.5-0.7c0.7,0.7,2.7,0.2,3.4,0.9c3.4-0.4,2.6,1.4,4.5,0.5c0-0.2,0.1-0.3,0.2-0.5c2,1.3,6.1-0.5,7,1.6
				c0.6-0.1,1.4,0.4,1.9-0.1c1.1,0.1,3.3-0.7,4.4,0.8C467.4,13.2,467,13.8,466.4,14.4z"/>
		</g>
		<g>
			<path class="st2" d="M463,26.5c-1.4,0.5-2.3,1.1-4.8,0.3c-4.5,0.2-7.5-0.5-13.1,0.2c-0.9-0.2-1.7-0.4-2.6-0.6
				c-0.9-0.1-1.8-0.2-2.7-0.3c-0.1-0.1-0.2-0.2-0.4-0.3c-1.8,0-2.1,0.5-5.1,0c-0.5,0.3-0.9,0.6-1.3,1c0.1,0.5,0.3,1,0.5,1.5
				c-0.4,0-0.7,0.1-1,0.2c-0.5-0.3-1.1-0.5-1.6-0.8c-0.4,0-0.7-0.1-0.9-0.1c-0.2-0.2-0.5-0.4-0.7-0.6c-0.4,0-0.7-0.1-0.9-0.1
				c-0.4,0.4-0.8,0.8-1.4,1.2c-0.6-0.1-1.2-0.1-1.8-0.2c-0.2-0.3-0.4-0.6-0.6-0.9c-1.6,0.6-3.1,0.6-3.2,1.3c-4-0.3-7.9-0.5-12-0.8
				c-1.3-0.3-2.7-0.5-4-0.7c-1.3-0.2-1,0.8-2.1,0.9c-1.2,0-2.3-0.1-4.2,1.2c-1.1-0.4-2.2-0.7-3.4-1c-0.7-2.9-3.6,0.5-6.2-1
				c-1,0.8-2.2,0.2-3.3-0.1c-1.8-0.2-3.6-0.4-5.5-0.6c-0.8-0.1-1.5-0.2-2.3-0.3c-2.7,0.8-5.2-0.4-5.9,1c-2-0.4-4-0.6-5.7-1.5
				c-0.3,0-0.6,0.1-0.9,0.1c0.1,0.6,0.1,1.4,0.2,2c1.2,0.8-0.2,1-0.5,1.6c0.1,0.3,0.2,0.5,0.2,0.8c0.2,0.1,0.5,0.2,0.9,0.4
				c1.5,0.2,3,0.5,4.4,0.8c2,0.6,2.1-0.7,3.9-0.4c0.9,0.3,2.6,0.3,2.5,1.1c-2.6,0.2-5.1,0.5-7.8,0.8c-1.2-0.1-2.4-0.3-3.6-0.4
				c-1.5,0.1-2.9,0.2-4.3,0.3c-0.8-0.1-0.9,1.2-2.1,0.6c-0.7-0.1-1.5-0.3-2.2-0.5c-0.4,0.2-0.7,0.4-1.1,0.7
				c-0.7-0.2-1.4-0.5-2.1-0.8c-0.5,0-0.9-0.1-1.4-0.2c-0.2,0.2-0.4,0.4-0.6,0.5c0,0.2-0.1,0.3-0.2,0.6c-1.8-0.5-3.5-1-5.2-1.5
				c-1.5-0.1-3.1-0.2-4.6-0.2c-1.6-0.4-3.2-0.7-4.8-1.1c-0.1-0.1-0.2-0.2-0.4-0.3c1.2-1.5-0.1-2.1,0-2.8c1.3-0.6,2.5-1.2,3.8-1.8
				c3.3,2.6,7.3-0.3,10.9,1.2c2-1.3,5,0,8.5-0.4c1-0.2,1.6-0.5,2.4-0.2c0.6-0.3,1.2-0.6,1.7-1c-1.4-0.4-2.9-0.8-4.3-1.3
				c-1.3-0.1-2.6-0.3-4-0.5c-0.4,0.2-0.7,0.5-1.1,0.7c-1,0-2,0-2.8,0c-0.5-0.1-0.9-0.3-1.3-0.4c-2.3,0.2-5.2,0.7-9.1,0.6
				c0-0.3-0.1-0.5-0.2-0.8c0.6-0.7-1.6-1.9,1.9-1.5c0.7,0.2,1.1-0.2,2-0.6c0.2-0.6,0.4-1.1,0.5-1.6c0.5,0,0.9,0.1,1.3,0.1
				c0.8,0,0.7-0.8,1.8-0.9c0.8,0.1,1.5,0.2,2.3,0.3c1.2,0.3,2.2,0.6,3.4,0.9c0.1-0.3,0.2-0.5,0.2-0.8c1.6-0.5,3.8,0.7,4.3-0.4
				c0.8,0.1,1.5,0.2,2.3,0.3c-0.1,0.4-0.2,0.7-0.4,1.1c1.9,0.1,2.7-0.5,3.6-0.8c0.6,0,1.3,0,1.9,0c0-0.1,0.1-0.2,0.1-0.3
				c0.1-0.5,0.3-0.9,0.5-1.6c0.1-0.3,0.2-0.6,0.2-0.8c0.3,0,0.6,0.1,0.9,0.1c-0.4,0.4,0.8,0.3,2.6,0.8c4-0.1,6.3-0.7,10.4-0.5
				c1.2,0.4,2.3,0.7,3.5,1c1.2-0.6,3.2-0.2,4-0.9c1.8,0.2,3.6,0.4,5.5,0.6c0.9,0,1.9,0,2.7,0c1-0.8,3.7-0.8,3.3,0.1
				c-0.1,0.2-0.1,0.4-0.2,0.6c1,0,2.4,0.5,3.5-0.4c1.6,0.2,3.3,0.4,4.9,0.5c0.1-0.3,0.2-0.6,0.3-0.8c1.4,0.3,2.7,0.5,4.1,0.8
				c0.9,0.1,1.8,0.2,2.6,0.3c0.1-0.3,0.2-0.6,0.2-0.8c0.9,0.2,1.8,0.4,2.7,0.5c1.5,0,2.8,0,4.2,0c0.1-0.7,1.4-0.4,3.4-0.2
				c-0.6-0.4-0.5,0.1-0.2,0.6c0,0.4,2,0.6,2.9-0.2c0.5,0.2,1.1,0.5,1.6,0.8c1.2,0.1,2.4,0.3,3.6,0.4c0.8-0.4,2.2,0.2,3.1-0.8
				c0.6,0,1.3-0.1,1.9-0.1c0.9,0.3,2,0.7,3.8,0.1c-0.6,1.1,1.9,1.1,2.7,0.3c0.9,0.1,1.8,0.2,2.6,0.3c0.7,0.4,1.3,0.7,2,1
				c-0.9,0.3-2.3,0.3-2.9,0.5c-1.5-0.2-3.5,0.9-4.2-0.2c-0.9,0-2.4-0.5-4,0.9c-1.7-0.6-3.4-1.1-5.1-1.7c-0.9,0.1-1.9,0.2-2.8,0.3
				c-0.3-0.2-0.5-0.4-0.8-0.7c-0.8,0.2-1.7,0.4-2.5,0.6c-1-0.3-3.2,0.1-2.9-1.2c-0.8-0.1-1.5-0.2-2.3-0.3c-0.2,0.6-0.4,1.3-0.6,1.9
				c1.9,0.3,3.6,0.6,5.4,0.9c1.1-0.2,2.3-0.3,3.5-0.5c1.3,0.4,2.9,0.6,6,1.5c0.9,0.6,1.8,1.1,2.7,1.7c1.1-0.1,2.3-0.1,3.4-0.2
				c1.1-0.2,2.3-0.5,3.5-0.7c2.8,0.9,6.9,1.7,10.9,1.2c0.4,0.3,0.7,0.6,1.1,0.9C459.9,26.4,459.8,25.4,463,26.5z"/>
		</g>
		<g>
			<path class="st4" d="M454,38.3c-1.5,0.5-4.2,0.2-5-0.3C451.2,37.4,452.3,37.5,454,38.3z"/>
		</g>
		<g>
			<path class="st4" d="M444.5,37.5c-1.7,0.6-3.6,0.6-3.9,0.1C440.3,36.8,441.9,36.8,444.5,37.5z"/>
		</g>
		<g>
			<path class="st4" d="M439.8,37.5c-1.9,1.3-2.8,0.4-4.2-0.2C437,37.4,438.4,37.4,439.8,37.5z"/>
		</g>
		<g>
			<path class="st4" d="M434.2,37.4c-2.4,0.5-4.8,0.6-5.6-0.1c0.6-0.2,1.3-1.1,2.5-0.5C432,37,433.1,37.2,434.2,37.4z"/>
		</g>
		<g>
			<path class="st4" d="M424,36.8c-1.5,0.5-4,0.8-3.2-0.1C421.5,37,422,36.2,424,36.8z"/>
		</g>
		<g>
			<path class="st4" d="M408.8,36c-2.7,0.6-5.8,1-5.6-0.1c1.2-0.4,2.5-0.4,4-0.7c0.5,0,0.9,0.1,1.3,0.2
				C408.7,35.6,408.7,35.8,408.8,36z"/>
		</g>
		<g>
			<path class="st4" d="M385.4,10.8c-2.5,0.6-1.3-1.2-3.1-0.4c-2.7-0.1-6,0.2-9,0.4c-0.9-0.1-1.5-0.2-2.3-0.2
				c-0.9-0.4-1.7-0.8-2.5-1.1c-1.6-0.1-3.3,0.9-4.3,1.5c-0.6-0.1-1.2-0.1-1.8-0.2c-0.3,0-0.6-0.1-0.9-0.1c-1.3,0.2-2.6,0.8-5.6-0.1
				c-0.8,0.1-1.6,0.2-2.4,0.3c-3.3,0.5-6.7-0.2-9.5,0.3c-2.6,0.3-5.1,0.5-7.8,0.8c-0.6-0.8-1.3-1.7-2-2.5c2.4-0.4,4.6-1,7-1.1
				c3.6-0.1,6.1-0.7,9.9-0.3c0.5-1.4,3.6,1.2,4-0.7c1,0.2,2.4,0.8,3.6,0.4c-0.5-1.2,2.2-1.1,3-0.5c-0.3,0.3,0.1,0.4,0.3,0.6
				c0.5,0,1,0.2,1.4-0.1c-0.4-1,1.4-0.7,1.9-1.2c1.1,0.3,2.1-0.1,2.5-0.5c2.9-0.4,6.3,2.2,7.4,0c2-0.1,5.1,1.3,5.7-0.2
				c-0.6-1.3,2.2-0.5,1.5-1.8c6.8-0.3,4.4,3.1,7.1,5.6C388.2,10,386.8,10.4,385.4,10.8z"/>
		</g>
		<g>
			<path class="st4" d="M322.8,23.5c0.3,0.8-1.1,0.7-1.7,1c-0.4,0.4-0.8,0.8-1.4,1.2c-1.6-0.3-3.2-0.6-4.8-0.8
				c0.1-0.4,0.2-0.7,0.3-1.1c0.3-0.5,0.6-0.9,0.8-1.3c1.6-0.4,3.1-0.8,4.7-1.1c0.1,0,0.3,0,0.4,0c1.3-0.3,2.7-0.1,3.2,0.4
				c0.4,0.4,0.7,0.8,1,1.2C324.4,23.1,323.6,23.3,322.8,23.5z"/>
		</g>
		<g>
			<path class="st4" d="M320.7,12.4c-0.9,0.6-2.4,0.3-3.7,1.3c-0.9,0.4-1.8,0.7-2.7,1.1c-0.5-0.3-1-0.7-1.5-1
				c0.2-0.5,0.3-0.9,0.4-1.3c2.6,0.1,5-1.8,7.2-0.6C320.5,12,320.6,12.2,320.7,12.4z"/>
		</g>
		<g>
			<path class="st2" d="M525.9,24.7c-1.8-0.1-3.6-0.2-5.5-0.3c0.3-0.8,0.5-1.6,0.8-2.4c0.3,0,0.6,0.1,0.8,0.1c1.4,0.5,2.9,1,4.2,1.6
				C526.1,24,526,24.4,525.9,24.7z"/>
		</g>
		<g>
			<path class="st2" d="M531.2,30c-1.3,1.5-5.3,1.4-7.5,1.4c-1.4-0.3-2.9-0.7-4.3-1.1c-1.1,0.2-2.3,0.3-3.4,0.5
				c-1.3-0.2-2.7-0.8-3.7-1.5c-1.3,0.1-1.8,1.6-3.7,1.2c-0.2-0.1-0.5-0.3-0.3-0.6c-3.7,0.6-8.8-0.6-13.3-1c-0.9,0.3-1.7,0.6-2.6,0.9
				c-8.1-2.3-17.9-1.5-25.4-2.6c-0.6,0.5-1.6,0-3.5-0.6c3.5-1.5,8.8,0.1,13.7-0.4c0.8-0.1,1.6-0.2,2.4-0.3c0-0.2-0.2-0.4-0.3-0.6
				c0.5-0.4,0.9-0.6,1.3-1c-0.2-0.2-0.4-0.5-0.8-0.7c-0.7,0.1-1.4,0.2-4-0.7c-2.1,1-5.1-0.6-6.8,0.6c-0.3-0.6-0.6-1.2-0.8-1.8
				c0.3,0,0.6-0.1,0.9-0.1c1.8,0,3.4,0,5.2,0c0.3,0,0.6,0.1,0.9,0.1c1.1,0,2.1,0.1,3.2,0.1c0.3,0,0.6,0.1,0.9,0.1
				c0.9,0.1,1.8,0.2,2.7,0.3c0.3,0,0.6,0.1,0.9,0.1c1,0,1.9,0,2.8,0c0.6,0,1.3,0,1.9,0c1.4,0.2,2.7,0.5,4,0.7c0.4,0,0.7,0.1,0.9,0.1
				c1.8-0.1,2.8-1.2,6.6-0.1c0.1,0.5,0.3,1,0.5,1.5c0.8,0.1,1.7,0.4,2.6,0.6c0.2-0.4,0.5-0.7,0.7-1c0.9-0.2,1.7-0.4,2.5-0.6
				c1.1,0,1.8-0.6,2.9-0.2c0.7,0.3,1.4,0.7,2,1c-0.5,0.8-1.1,1.6-1.6,2.3c-0.3,0.8,1.3,0.6,1.5,1.3c0.8,0.1,1.5,0.2,2.3,0.3
				c1.9,0.2,4.1,0.7,7.1,1.1c1.9,0,3.6-0.3,5.6,0.1c0.7-0.2,1.4-0.4,2.1-0.6c0.4,0,0.7,0.1,0.9,0.1C529.3,29.3,530.2,29.6,531.2,30z
				"/>
		</g>
		<g>
			<path class="st5" d="M461.1,17.7c-1.3-0.1-2.7-0.3-4-0.5c-1,0.2-2.4,1.5-4,0.9c-1.1-0.1-0.7-0.8-0.6-1.2c-1-0.1-2.3-0.4-2,0.6
				c-0.5,0.5-1.3,0-1.9,0.1c-2.8-2.6-4.6,1.6-8.3-0.6c-0.6,0.2-1.4,0.4-2,0.6c-0.8,0.2-1.7,0.4-2.5,0.5c-0.3-0.6-0.7-0.9-1-1.2
				c-5.1-0.8-9.9,0.5-14.7-1.1c-0.7,0.8-3,0.3-4.6,1.4c-1.4-0.8-0.8-1.5-2.4-1.4c-0.9,0.1-2.7-0.3-2.5,0.6c-0.6,0.4-1.6,0-3.5,0.7
				c-0.3,0-0.6-0.1-0.9-0.1c-1-1.3-4.3-1.4-5.8-1.2c-0.5,0.5-1.3,0-1.9,0.1c-1-0.2-2-0.4-3-0.6c-4.3,0.6-9.5,0.3-13.3,0.5
				c-0.8-0.3-1.7-0.6-2.6-0.9c-0.1,1.8-3.4,0.1-4.1,1.2c-1-0.1-2.2-0.1-3.3-0.1c-0.6,0.6-2.2,0.3-3.6,1.3c-0.4,0-0.7-0.1-0.9-0.1
				c-0.1,0.2-0.2,0.5-0.2,0.8c-1.9-0.4-3.9-0.8-5.7-1.2c-0.1-0.2-0.3-0.4-0.3-0.6c-1-0.5-1.5,0.5-3.5-0.7c-1.8-0.3-1.6,1.2-5.1-0.3
				c-1.6-0.2-1.1,1.6-3.1,0.8c-0.7-0.4-1.3-0.7-2-1c-1.2-0.1-2,1.1-3.5,0.4c-0.8-0.1-1.5-0.2-2.3-0.3c1.1-0.5,0.4-1.7,1.9-1.5
				c1.3,0.3,2.7,0.5,4,0.7c1.2,0,1.5-1.5,3.2-1c0.7,0.1,1.5,0.3,2.2,0.5c0.5-0.2,1-0.3,1.5-0.4c0.6,0.1,1.2,0.1,1.8,0.2
				c1.6,0.2,2.7-0.9,5.6-1.3c0.2-0.6,0.4-1.1,0.5-1.6c0.6,0.1,1.2,0.1,1.8,0.2c1-0.6,2.7-1.6,4.3-1.5c0.8,0.4,1.6,0.8,2.5,1.1
				c0.8,0.1,1.4,0.2,2.3,0.2c3-0.2,6.3-0.5,9-0.4c1.8-0.8,0.6,1,3.1,0.4c0.9,0.3,1.7,0.7,2.5,1.1c1.3,0.4,2.3-0.8,3.5-0.7
				c1.1,0.8,2.3,1.5,3.5,2.3c0.9-0.4,1.9-0.9,2.8-1.3c1,0.3,1.9,0.7,3,1.1c0.2-0.9,2.3-1.1,2.5-1.9c0.1,0,0.3,0,0.5,0.1
				c0.8,0.3,1.6,0.7,2.4,1.1c1.4-0.5,2.8-1.3,4.3-1.5c2.2,0.4,4.5,0.4,6.5,0.2c3.3,0.1,6.4,0.3,9.7,0.5c3.3-0.4,6.5,0.9,9,1.3
				c1.5,0.2,3,0.3,4.5,0.5c0.9,0.6,1.8,1.1,2.7,1.7c1.3,0.5,2.1-0.4,2.5-0.5c0.9,0.2,1.8,0.4,2.7,0.5c1.2-0.2,0-1.7,1.9-1.4
				c0.3,0.1,0.5,0.2,0.8,0.3c1.6,0,3.1,0,4.7,0c1,0.1,2.2,0.2,3.2,0.4c0.1,0.5,0.2,1.1,0.3,1.7c0.9,0.3,1.8,0.5,2.6,0.8
				c2.6-0.5,7.9,0.2,11.2,0.2c3.7-0.3,8,1.2,11.6,0.5c1.3,0.1,0.5,0.9,2.1,0.8c3.3-0.4,8.6,0.2,12.1,1.9c-6,0.3-11.8-1-17.3-0.3
				c0-0.7-1.2-0.5-1-1.3c-1.9-0.4-2.6,0.1-4.2,0.1c-0.2-0.2-0.6-0.4-0.3-0.6c-1-0.1-2.3-0.4-2.1,0.6c-0.4,0.3-0.9,0.1-1.5,0.1
				C468.3,18.7,464.8,18.1,461.1,17.7z"/>
		</g>
		<g>
			<path class="st2" d="M491.3,25.8c-1.5-0.1-3.1-0.1-4.6-0.2c0.2,0.4,0.3,0.8,0.6,1.2c-0.9-0.1-1.8-0.2-2.7-0.3
				c0.4-0.3,0.8-0.7,1.3-1c-0.9-0.3-1.8-0.5-2.6-0.8c0.1-0.4,0.2-0.7,0.4-1.1c0.3,0,0.6,0.1,0.9,0.1c0.9,0.3,1.8,0.6,2.6,0.9
				c1.5,0.3,2.9,0.7,4.4,1.1C491.4,25.6,491.4,25.7,491.3,25.8z"/>
		</g>
		<g>
			<path class="st2" d="M455.2,14.2c-1.6,0-3.1,0-4.7,0c-0.3-0.1-0.5-0.2-0.8-0.3c0.1-0.4,0.2-0.7,0.4-1.1c1.1-0.1,2.1-0.6,3.4-0.4
				c0.6,0.5,1.2,1.1,1.8,1.6C455.2,14,455.2,14.1,455.2,14.2z"/>
		</g>
		<g>
			<path class="st2" d="M425,27.8c-1.1,0.2-2,1.3-3.8,0.4c0.1-0.7,1.6-0.8,3.2-1.3C424.6,27.2,424.8,27.5,425,27.8z"/>
		</g>
		<g>
			<path class="st2" d="M407.3,29.1c-0.7,0.2-1,1-2.1,0.6c-0.3-0.3-0.7-0.6-1-1.3c-0.4-0.3-0.8-0.6-1.1-0.9c1.1-0.1,0.8-1.1,2.1-0.9
				c1.3,0.2,2.7,0.5,4,0.7C408.6,28,407.9,28.5,407.3,29.1z"/>
		</g>
		<g>
			<path class="st2" d="M410.3,11.1c-1.5,0.2-2.9,1-4.3,1.5c-0.8-0.4-1.6-0.8-2.4-1.1c0.2-0.2,0.4-0.4,0.6-0.5
				c0.9-0.2,1.7-0.6,2.6-0.8c1.2,0.1,2.5,0.3,3.7,0.4C410.3,10.9,410.3,11,410.3,11.1z"/>
		</g>
		<g>
			<path class="st2" d="M402.1,20.5c1.7-0.4,3.9-0.9,3.6,0.4C404.4,20.7,403.3,20.6,402.1,20.5z"/>
		</g>
		<g>
			<path class="st2" d="M398.9,33.4c-1.8-0.4-3.6-0.8-5.3-1.1c-0.4,0.3-0.8,0.7-1.3,1c-2.2-0.7-3.5-0.5-3.8,0.2c-1.4,0-2.8,0-4.2,0
				c-0.1-0.3-0.2-0.5-0.2-0.8c-1.3-0.2-2.7-0.3-4.1-0.5c-0.9-0.1-1.8-0.2-2.7-0.3c-2.6,0.2-5.1,0.5-7.8,0.8c-1-0.8-1.9-1.5-3-2.3
				c-0.3-0.1-0.6-0.2-0.9-0.4c0-0.3-0.1-0.5-0.2-0.8c0.3-0.7,1.7-0.8,0.5-1.6c-0.1-0.6-0.1-1.4-0.2-2c0.3,0,0.6-0.1,0.9-0.1
				c1.7,0.8,3.6,1.1,5.7,1.5c0.6-1.4,3.2-0.2,5.9-1c0.8,0.1,1.5,0.2,2.3,0.3c1.9,0.2,3.7,0.4,5.5,0.6c1.1,0.3,2.4,0.9,3.3,0.1
				c2.6,1.5,5.5-1.9,6.2,1c1.2,0.3,2.2,0.6,3.4,1c-3,2.3-8.2,0.8-12.5,0.8c0.6,1.5-2.1,0.6-3.2,1.3c0.2,0.5,0.6,1,0.9,1.5
				c0.6-0.3,1.2-0.6,1.7-0.9c2-0.4,5.2,0.6,7.9,0.3c2.2,0.4,4.5,0.7,6.7,1.1C399.9,33,399.3,33.3,398.9,33.4z"/>
		</g>
		<g>
			<path class="st2" d="M391.5,11.2c-1.2-0.1-2.2,1.1-3.5,0.7c-0.8-0.4-1.6-0.8-2.5-1.1c1.4-0.4,2.8-0.8,4.2-1.2
				c0.5,0.2,1.1,0.5,1.6,0.7c0,0.2,0.2,0.4,0.3,0.6C391.5,11,391.5,11.1,391.5,11.2z"/>
		</g>
		<g>
			<path class="st2" d="M371,10.6c-0.9-0.4-1.7-0.8-2.5-1.1c-1.6-0.1-3.3,0.9-4.3,1.5c1-0.6,2.7-1.6,4.3-1.5
				C369.3,9.8,370.2,10.2,371,10.6z"/>
		</g>
		<g>
			<path class="st2" d="M364.8,19.8c-0.9,0.3-1.6,0.9-3.6,0.8c0.1-0.4,0.2-0.7,0.4-1.1C362.6,19.6,363.7,19.7,364.8,19.8z"/>
		</g>
		<g>
			<path class="st2" d="M355.7,35c-1,0.1-1.9,0.1-2.9,0.2c-0.5-0.1-0.9-0.3-1.2-0.4c-1.7,0.5-4.1,0.1-5.4,0.8
				c-2.2-0.1-4.4-0.1-6.5-0.2c-2.2-0.1-4.4-0.1-6.6-0.2c-0.9,0.4-1.9,0.9-2.8,1.4c-1.2-0.1-2.4-0.3-3.6-0.4c0.6-0.5,1.3-1,1.8-1.5
				c1.5,0.4,2.6-0.3,4.6,0.2c0.1-0.5,0.3-0.9,0.4-1.3c1.2-0.3,2.5-0.7,3.6-1c2-0.1,3.6,0,5-0.8c1.5,0.1,3.1,0.2,4.6,0.2
				c1.7,0.5,3.4,1,5.2,1.5c0.1-0.2,0.1-0.4,0.2-0.6c0.1-0.2,0.4-0.3,0.6-0.5c0.5,0,1,0.1,1.4,0.2c0.7,0.3,1.4,0.6,2.1,0.8
				C356,33.9,355.9,34.4,355.7,35z"/>
		</g>
		<g>
			<path class="st2" d="M356,10.5c3,0.9,4.3,0.3,5.6,0.1C360.3,10.8,359.1,11.4,356,10.5z"/>
		</g>
		<g>
			<path class="st2" d="M314.9,24.8c-0.9,0.2-1.7,0.3-2.5,0.5c-0.3-0.7-0.5-1.3-0.8-2c1.2,0.1,2.5,0.3,3.7,0.4
				C315.1,24.1,315,24.4,314.9,24.8z"/>
		</g>
		<g>
			<path class="st2" d="M313.2,16.8c-1.4,0.3-2.6,0.6-4,0.9c0-0.5,0-0.9,0-1.4c1.3,0,2.6-0.1,3.8-0.1
				C313,16.4,313.1,16.6,313.2,16.8z"/>
		</g>
		<g>
			<path class="st3" d="M445.1,14.8c-0.5,0.2-1.2,1-2.5,0.5c-0.9-0.6-1.8-1.1-2.7-1.7c0.7-0.3,1.5-0.6,2.1-0.9
				c0.3,0,0.6,0.1,0.9,0.1C443.7,13.4,444.5,14.1,445.1,14.8z"/>
		</g>
		<g>
			<path class="st3" d="M397.7,12.2c-0.9,0.4-1.9,0.9-2.8,1.3c-1.1-0.8-2.3-1.5-3.5-2.3c0-0.1,0.1-0.2,0.1-0.3c1.9,0,4,0.1,6,0.1
				C397.9,11.5,397.8,11.8,397.7,12.2z"/>
		</g>
		<g>
			<path class="st2" d="M520.4,24.4c-1-0.5-1.7,0.3-2.5,0.5c-1.5-0.2-3-0.3-4.5-0.5c0.2-0.5,0.3-1.1,0.5-1.6c0-0.5,0-0.9,0-1.4
				c0.8-0.1,1.6-0.2,2.4-0.2c1.7,0.2,3.2,0.5,4.9,0.9C520.9,22.8,520.7,23.5,520.4,24.4z"/>
		</g>
		<g>
			<path class="st2" d="M506.9,19.8c-0.1,0-0.3,0-0.4,0c-1.1-0.3-3.8,0.1-3-1.1c0.8-0.2,1.7-0.4,2.5-0.6c0.4,0.2,0.8,0.4,1.1,0.7
				C507.1,19,507,19.4,506.9,19.8z"/>
		</g>
		<g>
			<path class="st2" d="M463,22.1c-0.4-0.3-0.8-0.5-1.2-0.7c0.1-1.3,2.5-0.6,4.3,0C465,21.5,464,21.8,463,22.1z"/>
		</g>
		<g>
			<path class="st2" d="M458.6,22.7c-1.2-0.1-2-0.2-3.4,0.2c-1-0.2-2.1-0.5-3.1-0.6c0.1-0.3,0.2-0.6,0.3-0.8c1.4-0.2,3.4-0.1,5-0.8
				c0.9,0.2,1.8,0.4,2.6,0.6C459.5,21.7,459.1,22.1,458.6,22.7z"/>
		</g>
		<g>
			<path class="st2" d="M449.7,13.9c-1.9-0.3-0.7,1.2-1.9,1.4c-0.8-0.1-1.7-0.4-2.7-0.5c-0.7-0.7-1.4-1.3-2.1-1.9
				c1.1-0.3,1.8-0.2,2.5-0.6c1.1,0.1,2.4,0.3,3.6,0.4c0.3,0,0.6,0.1,0.9,0.1C449.9,13.2,449.8,13.5,449.7,13.9z"/>
		</g>
		<g>
			<path class="st2" d="M397.7,12.2c0.1-0.4,0.2-0.7-0.1-1.2c1.3,0,2.6-0.1,3.8-0.1c0.5,0.1,1.1,0.3,1.7,0.5c-0.2,0.9-2.3,1-2.5,1.9
				C399.6,12.9,398.7,12.5,397.7,12.2z"/>
		</g>
		<g>
			<path class="st2" d="M337.8,24.9c-0.9,0.2-1.7,0.5-2.6,0.8c-1.1,0-1.9-0.5-2.1-0.8c0.7-0.3,1.5-0.6,2.1-0.9
				c-0.1-0.6-0.2-1.4-0.3-2c1,0.1,2.2,0.2,3.2,0.4c1.1,0.6,0.6,1.4,1.6,2.2C339.2,24.7,338.5,24.8,337.8,24.9z"/>
		</g>
		<g>
			<path class="st2" d="M333.1,35c-2-0.5-3.1,0.2-4.6-0.2c-0.5,0.5-1.2,1-1.8,1.5c-0.2,0-0.3,0-0.5-0.1c-2.3-1-2.8-0.3-3.6-0.4
				c0.5-0.8-1.3-0.4-1.5-1c-0.2-0.5-0.4-1-0.5-1.5c0.1,0,0.3-0.1,0.6-0.2c1.2,0.1,2.4,0.1,3.7,0.2c1.5,0,2.9,0.5,4-0.7
				c0.1,0,0.3,0,0.4,0c1.3,0.4,2.6,0.7,4,1c0.1,0,0.3,0,0.4,0C333.4,34,333.3,34.5,333.1,35z"/>
		</g>
		<g>
			<path class="st2" d="M333.7,14.4c-0.3,0-0.6,0.1-1,0.2c-2.2-0.2-4.4-0.7-6.3,0.7c-0.8-0.1-1.5-0.2-2.3-0.3
				c0.2-0.7,0.4-1.3,0.6-1.9c0.7-0.2,1.4-0.4,2-0.6c2.7-0.1,5.2-0.4,8.1-0.2C334.4,13,334,13.7,333.7,14.4z"/>
		</g>
		<g>
			<path class="st5" d="M329.2,32.5c-0.1,0-0.3,0-0.4,0c-0.9-0.3-1.7-0.7-2.5-1.1c1.3-0.2,2.6-0.5,3.9-0.7c0.2,0.2,0.5,0.4,0.8,0.6
				C330.5,31.7,329.8,32.1,329.2,32.5z"/>
		</g>
		<g>
			<path class="st5" d="M331.8,23.4c-1.4-0.2-2.7-0.3-4.1-0.5c2-0.7,4-1.1,4.3,0C331.8,23.2,331.8,23.3,331.8,23.4z"/>
		</g>
		<g>
			<path class="st5" d="M318.5,30.8c-1,0.6-2.2,0.2-3.2-0.1c-0.7,0.1-1.3,0.2-2,0.3c-0.3-0.1-0.5-0.2-0.8-0.4
				c0.1-0.5,0.3-0.9,0.4-1.3c0.8,0.3,1.7,0.6,2.5,0.9c0.3-0.1,0.7-0.3,1-0.5C317.2,30.1,317.9,30.4,318.5,30.8z"/>
		</g>
		<g>
			<path class="st5" d="M315.2,35.4c0.2,1,0.4,1.9,0.5,2.8c-3.1,0.7-2.9-0.6-5-2c0.7-0.3,1.5-0.6,2.1-0.9c-0.9-0.4-1.6-0.8-2.5-1.1
				c0-0.1,0.1-0.2,0.1-0.3c2.7,0.4,3.3-0.9,6.2,1C316.3,35.2,315.7,35.3,315.2,35.4z"/>
		</g>
		<g>
			<path class="st4" d="M531.3,38.4c-1.1,0.9-2.8,0.4-3.8,0.1c-1,0-1.8,0-2.8,0c0.5-0.8,1.4-1.5,3.1-0.8
				C529.1,37.9,530.2,38.2,531.3,38.4z"/>
		</g>
		<g>
			<path class="st4" d="M529.3,22.9c-1,0.2-2,0.5-3.1,0.8c-1.3-0.5-2.8-1.1-4.2-1.6c0.7-0.5,1.2-0.7,1.8-1
				C526.1,21.2,528,21.8,529.3,22.9z"/>
		</g>
		<g>
			<path class="st2" d="M433.4,28.2c-0.4,0-0.7,0.1-1,0.2C432.7,28.3,433,28.2,433.4,28.2z"/>
		</g>
		<g>
			<path class="st2" d="M421.6,21.3c-0.2,0.1-0.5,0.3-0.6,0.5c-0.2,0-0.4,0-0.5,0c-1.1,0-2.3,0.1-3.4,0.1c-2.6-0.2-5.1-0.4-7.7-0.6
				c-0.9-0.1-1.8-0.2-2.7-0.3c0.9-0.2,1.7-0.6,2.6-0.8c0-0.1,0.1-0.2,0.1-0.3c0.8,0,1.6,0,2.4,0c1,0.2,2,0.4,3.1,0.6
				c1.2,0.5,2-0.4,2.5-0.5C418.6,20.4,420.1,20.8,421.6,21.3z"/>
		</g>
		<g>
			<path class="st2" d="M421.9,21.3c-0.1,0-0.3,0-0.4,0C421.6,21.3,421.8,21.3,421.9,21.3z"/>
		</g>
		<g>
			<path class="st3" d="M310.5,34.1c0,0.1,0,0.2-0.1,0.3C310.4,34.2,310.5,34.1,310.5,34.1z"/>
		</g>
		<g>
			<path class="st2" d="M463.4,26.6c-0.2,0-0.3,0-0.5,0C463.1,26.5,463.2,26.5,463.4,26.6z"/>
		</g>
		<g>
			<path class="st5" d="M341.4,15.3c-1.6,0.3-0.7,1.1-3.7,1.3c-2.2-0.9-2.9-0.1-6.3-0.7c0.5-0.5,0.9-0.8,1.3-1.2
				c0.4-0.1,0.7-0.1,1-0.2C335.7,15.8,337.2,13.8,341.4,15.3z"/>
		</g>
		<g>
			<path class="st5" d="M341.9,15.1c-0.1,0-0.3,0.1-0.5,0.2C341.5,15.2,341.8,15.1,341.9,15.1z"/>
		</g>
		<g>
			<path class="st5" d="M455.2,14.2c0-0.1,0.1-0.2,0.1-0.3C455.2,14,455.2,14.1,455.2,14.2z"/>
		</g>
		<g>
			<path class="st5" d="M326.4,31.4c-0.5,0.2-0.8,0.5-1.2,0.7c-1.3,0-2.4,0-3.7-0.1c-0.6-0.4-1.1-0.6-1.5-1c0.2-0.2,0.4-0.4,0.6-0.5
				C324.2,30.1,325.1,30.8,326.4,31.4z"/>
		</g>
		<g>
			<path class="st2" d="M432.4,28.4c-0.8-0.1-0.5,0.9-2.9,0.2c-0.8-0.1-1.7-0.4-2.7-0.5c0.5-0.5,1-0.8,1.4-1.2
				c0.3,0,0.6,0.1,0.9,0.1c0.2,0.2,0.5,0.4,0.7,0.6c0.3,0,0.6,0.1,0.9,0.1C431.3,27.8,431.9,28.1,432.4,28.4z"/>
		</g>
	</g>
</g>
<g>
	<g id="XMLID_1_">
		<g>
			<path class="st6" d="M316.3,23.8c-11,1.2-22.2,2.1-33.1,3.9c0-0.3,0-0.6,0-0.9c5.3-0.1,10.5-0.8,15.7-1.6
				c5.9-0.9,11.9-2.5,17.9-2.6c0.8,0,0.9-1.3,0.1-1.3c-5.4,0.1-10.6,1.5-15.9,2.3c-5.9,1-11.9,1.4-17.9,2.1c0-0.2,0-0.5,0-0.7
				c10.8,0.1,22.1-2.8,31.7-7.6c0.7-0.4,0.2-1.4-0.5-1.1c-10.3,4.5-20.2,6.6-31.3,7.6c0-0.2,0-0.4-0.1-0.6c0.1,0,0.1,0,0.2,0
				c11.6-1.1,21.3-5.9,32-9.9c0.4-0.1,0.4-0.6,0.2-0.9l0.2-0.1c2.4,3.6,3.6,8.4,4,12.6c0.7,8.1-2.7,19.9-12.8,19.7
				c-4.5-0.1-8.9-3.1-12.8-5c-1.8-0.9-3.6-1.8-5.5-2.7c8.3,3,17.5,5.7,25.6,1.8c0.6-0.3,0.2-1.2-0.5-0.9
				c-10.3,4.2-21.4-1.5-31.3-4.3c0-0.2,0.1-0.3,0.1-0.4c10,2.7,20.9,5.3,31.3,2.7c0.7-0.2,0.5-1.2-0.2-1.1
				c-10.6,1.9-20.5-0.4-30.8-2.8c0-0.1,0.1-0.3,0.1-0.4c10.8,1.2,23,3.5,33.7,0.6c0.6-0.2,0.4-1.1-0.2-1
				c-11.2,1.6-22.1,0.1-33.3-0.7c0,0,0,0,0,0c11.1-0.2,22.5-1.2,33.5-2.2c0.7-0.1,0.6-1.3-0.1-1.2c-11,0.5-22.3,1.1-33.3,2.4
				c0-0.2,0-0.4,0.1-0.6c11.1-0.7,22.3-2.4,33.4-3.7C317.4,24.9,317.1,23.7,316.3,23.8z"/>
			<path class="st6" d="M311.7,9.7c-9.5,4.9-19.1,7.7-29.1,11c-0.1,0-0.2,0.1-0.2,0.1c-0.1-0.2-0.1-0.4-0.1-0.5c0.1,0,0.3,0,0.4,0
				c8.9-3.4,18.1-7.2,26.6-11.6c0.4-0.2,0.3-0.8-0.1-0.9l0.1-0.3c2.7,0.7,4.8,2.5,6.4,5l-0.2,0.1c-0.1-0.2-0.4-0.4-0.6-0.3
				c-5,1.4-9.6,4.1-14.5,5.9c-5.6,2.1-11.4,3.3-17.4,4c-0.1,0-0.1,0-0.2,0.1c0-0.2-0.1-0.4-0.1-0.5c0.1,0,0.1,0,0.2,0
				c10.1-2.5,20.5-5.5,29.5-10.9C312.9,10.4,312.4,9.3,311.7,9.7z"/>
			<path class="st6" d="M308.9,7.8c-9.1,3.1-18.1,7.3-26.8,11.4c-0.1,0-0.2,0.1-0.2,0.2c-0.1-0.2-0.1-0.3-0.2-0.5
				c6.7-3.9,13.6-8.2,20.9-10.8c2.5-0.9,4.7-1,6.6-0.5l-0.1,0.3C309.1,7.8,309,7.8,308.9,7.8z"/>
			<path d="M276.9,30.3c0.2-0.6,0.5-1.1,0.7-1.6c0.1-0.3,0.5-0.3,0.7-0.2c0.3,0.2,0.3,0.5,0.2,0.7c-0.2,0.5-0.4,1-0.7,1.5
				C277.5,31.2,276.7,30.9,276.9,30.3z"/>
			<path d="M273.9,30.4c-0.4,0.2-1-0.3-0.7-0.7c0.4-0.6,1.2-1.1,1.8-1.5c0.5-0.4,1.2,0.3,0.7,0.7c-0.3,0.3-0.6,0.5-0.9,0.8
				C274.6,29.9,274.3,30.2,273.9,30.4z"/>
			<path d="M271.8,27.9c0.3-0.6,1.1-0.1,0.9,0.5c-0.2,0.5-0.5,1.1-0.8,1.5c-0.3,0.5-1.1,0.1-0.9-0.4C271.1,29,271.5,28.5,271.8,27.9
				z"/>
			<path d="M269.1,27.9c0.4-0.5,1.2,0,0.9,0.5c-0.4,0.5-0.7,1.1-1.1,1.5s-1-0.1-0.8-0.6C268.3,28.8,268.8,28.4,269.1,27.9z"/>
			<path d="M266.7,29.6c-0.3,0.2-0.8-0.1-0.8-0.4c0-0.7,0.5-1.3,0.9-1.8c0.4-0.6,1.2-0.1,0.9,0.6C267.5,28.5,267.2,29.2,266.7,29.6z
				"/>
			<path d="M264.3,29.7c-0.4,0.4-0.9-0.1-0.9-0.5c0.1-0.5,0.4-0.9,0.6-1.3c0.1-0.3,0.5-0.3,0.7-0.2c0.3,0.2,0.3,0.5,0.2,0.7
				C264.7,28.9,264.6,29.4,264.3,29.7z"/>
			<path d="M260.6,28.6c0.2-0.4,0.6-0.8,0.9-1.2c0.4-0.4,1,0.2,0.8,0.6c-0.3,0.4-0.5,0.9-0.9,1.2C260.9,29.6,260.4,29.1,260.6,28.6z
				"/>
			<path d="M257.5,29.3c0.2-0.5,0.5-1,0.8-1.5c0.4-0.6,1.3,0,0.9,0.6c-0.3,0.5-0.5,1-0.9,1.4C258,30.2,257.3,29.8,257.5,29.3z"/>
			<path d="M255.5,27.5c0.4-0.7,1.3-0.1,1,0.6c-0.2,0.5-0.4,1-0.8,1.4c-0.4,0.4-1,0-0.9-0.5C255,28.4,255.3,28,255.5,27.5z"/>
			<path d="M252.8,28.7c0.1-0.4,0.4-0.7,0.6-1c0.4-0.6,1.3,0,0.9,0.6c-0.2,0.3-0.4,0.7-0.6,1C253.3,29.6,252.6,29.2,252.8,28.7z"/>
			<path d="M251.6,28.4c-0.2,0.4-0.5,0.9-0.9,1.1c-0.3,0.2-0.8,0-0.8-0.4c0-0.5,0.4-0.9,0.7-1.3C251.1,27.2,252,27.8,251.6,28.4z"/>
			<path d="M248.7,29.1c-0.3,0.3-1,0-0.8-0.5c0.1-0.3,0.3-0.5,0.4-0.8c0.4-0.6,1.2,0,0.9,0.5C249,28.7,248.9,28.9,248.7,29.1z"/>
			<path d="M246.3,29.6c-0.2,0.4-1,0.2-1-0.3c0.1-0.3,0.1-0.6,0.3-0.9c0.2-0.6,1.2-0.4,1,0.3C246.6,29,246.5,29.3,246.3,29.6z"/>
			<path d="M243.3,28.7c0.2-0.6,1.2-0.3,1,0.3c-0.1,0.4-0.2,0.8-0.4,1.1c-0.3,0.5-1,0.1-0.9-0.4C243,29.3,243.2,29,243.3,28.7z"/>
			<path d="M241.9,29.6c-0.3,0.5-1,0.2-1-0.3c0-0.4,0.1-0.8,0.2-1.1c0.2-0.7,1.2-0.4,1.1,0.3C242.1,29,242.1,29.3,241.9,29.6z"/>
			<path d="M239.6,28.5c-0.1,0.3-0.2,0.6-0.5,0.8c-0.3,0.3-1,0.1-0.9-0.4c0-0.4,0.2-0.7,0.4-1C239,27.2,239.9,27.9,239.6,28.5z"/>
			<path d="M236.3,28.8c-0.1,0.2-0.2,0.5-0.5,0.7c-0.4,0.3-1.1,0.1-1-0.4c0.1-0.4,0.2-0.6,0.3-0.9C235.5,27.3,236.7,28,236.3,28.8z"
				/>
			<path class="st6" d="M239.2,29.3c0.2-0.2,0.3-0.5,0.5-0.8c0.3-0.7-0.7-1.3-1-0.6c-0.2,0.3-0.3,0.6-0.4,1
				C238.2,29.4,238.9,29.6,239.2,29.3z M273.9,30.4c0.4-0.2,0.6-0.5,0.9-0.7c0.3-0.3,0.6-0.5,0.9-0.8c0.5-0.4-0.2-1.1-0.7-0.7
				c-0.6,0.5-1.4,0.9-1.8,1.5C272.9,30.1,273.5,30.6,273.9,30.4z M276.9,30.3c-0.2,0.6,0.6,0.9,1,0.4c0.3-0.4,0.5-1,0.7-1.5
				c0.1-0.3,0.1-0.6-0.2-0.7c-0.2-0.1-0.6-0.1-0.7,0.2C277.4,29.2,277,29.8,276.9,30.3z M256.5,28.1c0.3-0.7-0.6-1.3-1-0.6
				c-0.2,0.5-0.5,0.9-0.6,1.4c-0.1,0.5,0.5,1,0.9,0.5C256.1,29.1,256.3,28.6,256.5,28.1z M258.2,27.8c-0.3,0.5-0.6,0.9-0.8,1.5
				c-0.1,0.5,0.5,0.9,0.8,0.5c0.4-0.4,0.6-0.9,0.9-1.4C259.5,27.8,258.6,27.2,258.2,27.8z M250.7,29.5c0.4-0.2,0.6-0.7,0.9-1.1
				c0.4-0.6-0.6-1.2-1-0.6c-0.3,0.4-0.6,0.8-0.7,1.3C249.9,29.5,250.4,29.7,250.7,29.5z M263.4,29.2c-0.1,0.4,0.5,1,0.9,0.5
				c0.3-0.4,0.5-0.8,0.6-1.2c0.1-0.3,0.1-0.6-0.2-0.7c-0.2-0.1-0.6-0.1-0.7,0.2C263.8,28.3,263.5,28.8,263.4,29.2z M261.5,27.4
				c-0.3,0.4-0.7,0.8-0.9,1.2c-0.2,0.5,0.3,1,0.8,0.6c0.4-0.3,0.6-0.8,0.9-1.2C262.6,27.6,261.9,27,261.5,27.4z M270.9,29.6
				c-0.2,0.5,0.6,0.9,0.9,0.4c0.3-0.5,0.5-1,0.8-1.5c0.3-0.6-0.5-1.1-0.9-0.5C271.5,28.5,271.1,29,270.9,29.6z M270,28.5
				c0.4-0.5-0.5-1-0.9-0.5c-0.3,0.4-0.8,0.9-1,1.4c-0.2,0.5,0.3,1,0.8,0.6S269.6,28.9,270,28.5z M267.7,27.9
				c0.3-0.6-0.5-1.1-0.9-0.6c-0.4,0.5-0.9,1.2-0.9,1.8c0,0.4,0.4,0.7,0.8,0.4C267.2,29.2,267.5,28.5,267.7,27.9z M253.3,27.7
				c-0.2,0.3-0.4,0.6-0.6,1c-0.2,0.5,0.5,0.9,0.9,0.5c0.3-0.3,0.4-0.6,0.6-1C254.6,27.7,253.7,27.1,253.3,27.7z M247.9,28.6
				c-0.2,0.5,0.5,0.8,0.8,0.5c0.2-0.2,0.3-0.5,0.5-0.7c0.4-0.6-0.5-1.1-0.9-0.5C248.1,28.1,248,28.4,247.9,28.6z M242.9,29.7
				c-0.1,0.5,0.6,0.9,0.9,0.4c0.2-0.3,0.3-0.7,0.4-1.1c0.2-0.6-0.7-0.9-1-0.3C243.2,29,243,29.3,242.9,29.7z M246.6,28.7
				c0.2-0.7-0.8-0.9-1-0.3c-0.1,0.3-0.2,0.6-0.3,0.9c-0.1,0.5,0.8,0.7,1,0.3C246.5,29.3,246.6,29,246.6,28.7z M234.8,29
				c-0.1,0.6,0.7,0.7,1,0.4c0.2-0.2,0.3-0.4,0.5-0.7c0.4-0.8-0.8-1.5-1.2-0.7C235,28.4,234.9,28.6,234.8,29z M279.5,33.1
				c-15.4-2-31.3-2.4-46.8-3.1c0-0.3-0.1-0.7-0.3-0.9c0.1-1.2,0.1-2.5,0.1-3.8c0-1.5,0.1-2.9,0-4.3c8.1-0.1,16.2-0.5,24.4-0.8
				c7.5-0.3,15.1-0.3,22.6-1.1C280.9,23.7,281,28.5,279.5,33.1z M242.1,28.6c0.1-0.7-0.9-1-1.1-0.3c-0.1,0.4-0.3,0.7-0.2,1.1
				c0.1,0.5,0.7,0.8,1,0.3C242.1,29.3,242.1,29,242.1,28.6z"/>
			<path class="st6" d="M230,20.3c-0.3,1.6-0.4,3.2-0.5,4.8c-0.1,1.1-0.2,2.3-0.2,3.5c-27.1-0.7-54.2-1.4-81.4-2
				c-6.9-0.1-13.9-0.3-20.8-0.4c-0.5,0-2.6,0.2-2.9-0.1c-0.2-0.6-0.3-1.2-0.4-1.9c-1-1.5-0.8-2.2,0.6-1.9c1.4-0.5,3.7-0.1,5.3-0.1
				c3.6,0,7.2,0,10.8-0.1c13.9-0.2,27.8-0.4,41.6-0.7C198.1,21.2,214.1,21.1,230,20.3z"/>
			<path d="M127.2,26.2c6.9,0.2,13.9,0.3,20.8,0.4c27.1,0.6,54.2,1.2,81.4,2c0-1.1,0.2-2.3,0.2-3.5c0.1-1.6,0.2-3.2,0.5-4.8
				c-15.9,0.8-31.9,0.9-47.9,1.2c-13.9,0.3-27.8,0.5-41.6,0.7c-3.6,0.1-7.2,0.1-10.8,0.1c-1.5,0-3.8-0.4-5.3,0.1
				c-1.4-0.3-1.7,0.4-0.6,1.9c0.2,0.6,0.3,1.2,0.4,1.9C124.6,26.4,126.7,26.2,127.2,26.2z M280.2,16.7c5-3.3,10.3-6.2,15.8-8.9
				c4.1-2,8.5-4.4,13.2-3.4c9.5,1.9,12.7,13.1,13.4,21.5c0.8,8.5-2.4,18.2-11.1,21.4c-4.4,1.6-8.6,0.4-12.7-1.5
				c-6-2.8-11.9-5.9-17.9-8.8c-0.5-0.2-0.8-0.6-0.9-1c-0.3-0.1-0.6-0.3-0.8-0.6c-16,0.3-32.3-1.3-48.2-2.3c-1-0.1-1.5-0.9-1.4-1.6
				c-18.1-0.4-36.3-0.8-54.4-1.2c-16.3-0.4-32.7-0.7-49-1.2c-3.3-0.1-9.1-1.1-7.7-5.9c1.4-5.2,9.4-4,13.2-4.1
				c32.9-0.9,66.1-1.9,99-1.3c0.3,0,0.6,0.1,0.8,0.3c0.2-0.1,0.4-0.1,0.6-0.1c8-0.4,16.1-0.6,24.1-0.8
				C264.1,16.8,272.3,16.2,280.2,16.7z M232.4,21c0.1,1.4,0.1,2.9,0,4.3c0,1.2,0,2.5-0.1,3.8c0.2,0.3,0.3,0.6,0.3,0.9
				c15.5,0.7,31.4,1,46.8,3.1c1.5-4.6,1.4-9.4-0.1-14c-7.5,0.9-15.1,0.9-22.6,1.1C248.6,20.5,240.5,20.8,232.4,21z M282.6,20.7
				c10-3.4,19.7-6.2,29.1-11.1c0.7-0.4,1.2,0.7,0.5,1.1c-9,5.5-19.4,8.5-29.5,10.9c-0.1,0-0.1,0-0.2,0c0,0.2,0.1,0.4,0.1,0.5
				c0,0,0.1,0,0.2-0.1c5.9-0.6,11.8-1.9,17.4-4c4.9-1.8,9.5-4.4,14.5-5.9c0.3-0.1,0.5,0.1,0.6,0.3c0.2,0.3,0.1,0.7-0.2,0.9
				c-10.8,4-20.4,8.8-32,9.9c-0.1,0-0.1,0-0.2,0c0,0.2,0,0.4,0.1,0.6c11.1-1,21.1-3.1,31.3-7.6c0.7-0.3,1.3,0.8,0.5,1.1
				c-9.6,4.8-21,7.8-31.7,7.6c0,0.2,0,0.4,0,0.7c6-0.7,11.9-1.1,17.9-2.1c5.3-0.9,10.5-2.2,15.9-2.3c0.8,0,0.7,1.3-0.1,1.3
				c-6,0.1-11.9,1.8-17.9,2.6c-5.2,0.8-10.5,1.5-15.7,1.6c0,0.3,0,0.6,0,0.9c10.9-1.8,22.1-2.7,33.1-3.9c0.8-0.1,1,1.1,0.2,1.2
				c-11.1,1.4-22.2,3-33.4,3.7c0,0.2,0,0.4-0.1,0.6c11-1.4,22.3-1.9,33.3-2.4c0.7,0,0.8,1.2,0.1,1.2c-11.1,1-22.4,2.1-33.5,2.2
				c0,0,0,0,0,0c11.2,0.9,22,2.3,33.3,0.7c0.6-0.1,0.8,0.8,0.2,1c-10.6,2.9-22.9,0.6-33.7-0.6c0,0.1,0,0.3-0.1,0.4
				c10.3,2.4,20.1,4.7,30.8,2.8c0.7-0.1,0.9,0.9,0.2,1.1c-10.4,2.5-21.2,0-31.3-2.7c0,0.1-0.1,0.3-0.1,0.4c9.9,2.8,21,8.5,31.3,4.3
				c0.6-0.2,1.1,0.7,0.5,0.9c-8.1,3.9-17.2,1.2-25.6-1.8c1.8,0.9,3.6,1.8,5.5,2.7c3.9,1.9,8.4,4.9,12.8,5
				c10.1,0.2,13.5-11.6,12.8-19.7c-0.4-4.2-1.6-9-4-12.6c-1.6-2.4-3.7-4.3-6.4-5c-1.9-0.5-4.1-0.4-6.6,0.5
				c-7.3,2.6-14.2,6.9-20.9,10.8c0.1,0.2,0.1,0.4,0.2,0.5c0-0.1,0.1-0.1,0.2-0.2c8.7-4.2,17.7-8.3,26.8-11.4c0.1,0,0.2,0,0.2,0
				c0.4,0.1,0.5,0.7,0.1,0.9c-8.5,4.5-17.7,8.2-26.6,11.6c-0.2,0.1-0.3,0-0.4,0c0,0.2,0.1,0.4,0.1,0.5
				C282.4,20.8,282.5,20.7,282.6,20.7z"/>
		</g>
	</g>
</g>
</svg>
