<?xml version="1.0" encoding="utf-8"?>
<!-- Generator: Adobe Illustrator 25.2.1, SVG Export Plug-In . SVG Version: 6.00 Build 0)  -->
<svg version="1.1" id="Layer_1" xmlns="http://www.w3.org/2000/svg" xmlns:xlink="http://www.w3.org/1999/xlink" x="0px" y="0px"
	 viewBox="0 0 631 123" style="enable-background:new 0 0 631 123;" xml:space="preserve">
<style type="text/css">
	.st0{enable-background:new    ;}
</style>
<g class="st0">
	<path d="M78.3,98.5H78c-0.9,0-1.3-1.7-1.3-5c0-4.4,1.8-10.1,5.5-17c3.1-6.5,6.9-12.8,11.3-18.9c4.4-6.1,9-12.1,13.8-17.9L119.5,25
		c3.6-4.1,7.2-8.4,10.6-12.7l2.4-3V9.2c-1.6,0.8-3.1,1.7-4.6,2.8l-6.2,4.9C115.5,22,107.7,29.7,98.1,40l-8.6,9
		c-5.7,6-11.3,11.1-16.8,15.4c-4,2.9-6.8,4.3-8.4,4.3c-0.3,0-0.7-0.1-1.2-0.3c-1-0.2-1.5-1.2-1.5-3c0-1,0.4-2.4,1.2-4.1
		c1.8-4.4,4.1-8.7,7.1-12.8c2.4-3.2,4.8-6.4,7.4-9.5l4.1-5c3.1-3.7,5-6.5,5.9-8.3c-3.2,1.1-7.3,4-12.6,8.7l-1.2,0.9
		c-9.7,8.4-19,17.1-28.1,26.1c-3.9,3.9-12.8,13.1-26.6,27.6c-0.4,0.3-0.9,0.4-1.6,0.4c-0.2-0.1-0.3-0.3-0.4-0.7
		c-0.3-0.2-0.5-0.4-0.6-0.6v-0.6l1.5-2.4c8.8-10.6,17.4-21.4,26-32.2c0.7-1,1.4-1.9,2.2-2.8c3-3.6,5.8-7.3,8.4-11.1
		c5-6.9,7.8-13.2,8.4-18.9c0-2.2-0.3-3.8-0.9-5c-1.2-2.1-3.2-3.1-6.1-3.1c-1.6,0-3.2,0.2-4.9,0.7c-4.7,1.5-9.2,3.7-13.3,6.8
		c-4.1,3.1-7.9,6.4-11.2,10c-6.7,7.8-11.7,16.1-15.1,25.1c-0.2,0.5-0.6,0.9-1.1,1.1c-0.5,0.2-1.1,0.4-1.6,0.4
		c-0.9-0.2-1.3-0.9-1.3-2.1c1.8-5.6,4.5-10.9,8-15.8c3.6-4.9,7.7-9.5,12.2-13.6C37.5,16,46.7,11,55.1,9.8l1.8-0.1c4,0,7,1.6,9,4.9
		c0.8,1.9,1.2,3.9,1.2,6.1c0,7.8-7,20-21.1,36.8l-4.4,5.3C53.4,50.5,64.7,40,75.4,31l0.6-0.3c3.7-3.4,7.1-5.9,10.2-7.4
		c0.1,0,0.1,0,0.1-0.1c1.2-0.6,2.4-1,3.7-1.3c0.7,0,1.2,0.1,1.6,0.2c0.3,0.1,0.5,0.5,0.5,1.1c0,3.5-3.2,9-9.5,16.4
		c-0.4,0.6-3.3,4.2-8.9,10.9v0.1c-2.8,3.2-5.2,6.7-7.2,10.3l-0.6,0.9c-0.9,1.3-1.3,2.3-1.3,3.1c0,0.6,0.2,0.9,0.6,0.9
		c1,0,2.3-0.6,3.8-1.8l0.3-0.1c6.8-4.7,13-10.2,18.6-16.5c0.6-0.4,3.3-3.2,8.3-8.6c3.2-3.4,6.5-6.8,9.9-10.2
		c7.6-7.9,15.4-14.7,23.3-20.4l2.5-2.1c0.1,0,0.1,0,0.1-0.1c1-0.8,1.8-1.3,2.5-1.6h0.6c0.8,0.1,1.4,0.4,1.8,1
		c0.4,0.6,0.6,1.2,0.6,1.8c0,1.6-0.8,3.3-2.5,5.3c-4.7,6.5-9.7,12.8-15.1,18.9l-1.3,1.8C104.3,50.1,93.7,63.8,87,74.5
		c-5,8.2-7.5,14.6-7.5,19.2c0,1.1,0.1,2.1,0.3,3.1c0,0.6-0.1,1-0.4,1.3C79.1,98.4,78.7,98.5,78.3,98.5z"/>
</g>
<g class="st0">
	<path d="M108.4,72.1c-0.8,0-2-0.1-3.7-0.3c-1.7-0.2-2.6-1.6-2.8-4.3c0.2-2.6,1.4-4.9,3.5-6.9c2.1-2.1,4.4-3.6,6.9-4.7
		c1.7-0.9,3.4-1.4,5.2-1.5c0.7,0,1.3,0.1,1.8,0.4c0.9,0.5,1.3,1.2,1.3,2.1v0.9c0,0.6-0.5,1.4-1.5,2.4c-1.4,1.4-3.1,2.5-5,3.2
		c-2,0.8-4,1.2-6.1,1.2c-0.6,0.8-1,1.6-1.2,2.4c0,1.5,0.9,2.2,2.8,2.2c3,0,5.9-0.7,8.9-2.2c3.7-1.8,7.2-4.1,10.5-6.9
		c0.3-0.3,0.5-0.4,0.7-0.4c0.6,0,0.9,0.3,1,0.9c0,0.4-0.2,0.8-0.6,1.2c-4.9,4.3-10.3,7.5-16.2,9.6C112.1,71.8,110.3,72.1,108.4,72.1
		z M110.5,61.9c1.7-0.3,3.3-0.9,4.9-1.8c1.2-0.6,1.9-1.2,2.1-1.9l-0.9,0.3C114.5,59.2,112.5,60.3,110.5,61.9z"/>
	<path d="M131.2,72.1c-0.8,0-2-0.1-3.7-0.3c-1.7-0.2-2.6-1.6-2.8-4.3c0.2-2.6,1.4-4.9,3.5-6.9c2.1-2.1,4.4-3.6,6.9-4.7
		c1.7-0.9,3.4-1.4,5.2-1.5c0.7,0,1.3,0.1,1.8,0.4c0.9,0.5,1.3,1.2,1.3,2.1v0.9c0,0.6-0.5,1.4-1.5,2.4c-1.4,1.4-3.1,2.5-5,3.2
		c-2,0.8-4,1.2-6.1,1.2c-0.6,0.8-1,1.6-1.2,2.4c0,1.5,0.9,2.2,2.8,2.2c3,0,5.9-0.7,8.9-2.2c3.7-1.8,7.2-4.1,10.5-6.9
		c0.3-0.3,0.5-0.4,0.7-0.4c0.6,0,0.9,0.3,1,0.9c0,0.4-0.2,0.8-0.6,1.2c-4.9,4.3-10.3,7.5-16.2,9.6C134.9,71.8,133,72.1,131.2,72.1z
		 M133.2,61.9c1.7-0.3,3.3-0.9,4.9-1.8c1.2-0.6,1.9-1.2,2.1-1.9l-0.9,0.3C137.2,59.2,135.2,60.3,133.2,61.9z"/>
</g>
<g class="st0">
	<path d="M127.5,90.4c-0.7,0-1.2-0.2-1.5-0.7v-0.4c0-0.7,2.6-3.7,7.7-9l16-17.9c13.4-15.1,21-23.5,22.7-25.3h-1.5
		c-1.6,0.9-2.5,1.3-2.7,1.3c-0.5,0-0.7-0.2-0.7-0.7l0.1-0.6c-0.8-0.1-6-0.1-15.5-0.1c-3.7,0-6.8,0.1-9.2,0.1
		c-0.2,0.4-0.5,0.6-0.9,0.6l-3.4-0.1c-0.6-0.1-0.9-0.4-0.9-0.9c0-0.8,0.4-1.3,1.2-1.5c2.6-0.6,5.1-0.9,7.5-0.9
		c10.5,0,18.6,0.1,24.2,0.1c1.4-1.1,2.9-2.2,4.6-3.2l9.5-6.9c1.3-1.3,2.5-2.4,3.6-3.5c1.1-1,3.7-3,7.8-6c0.4-0.3,0.7-0.4,1-0.4
		c0.4,0,0.7,0.2,0.9,0.6c0,0.5-0.1,0.9-0.3,1.3l-3.7,4l-2.1,2.4c-0.5,0.4-0.9,0.8-1.3,1.3l-10,10.6c9,0.1,17.9,0.3,26.7,0.6
		c0.6,0.1,0.9,0.4,0.9,1c0,1.1-0.5,1.6-1.5,1.6l-28.5-0.7l-5.3,5.8c-9.7,10.6-16.2,17.5-19.3,20.7l-10.9,11.4
		c-1.2,1.4-5.8,6.3-13.7,14.8C128.5,90.2,128,90.4,127.5,90.4z"/>
</g>
<g class="st0">
	<path d="M225.7,119.8h-0.6c-3.3,0-5.6-1.4-6.6-4.3c-0.2-0.9-0.3-1.8-0.3-2.8c0-2.1,0.5-4.2,1.5-6.4c3.1-7,7.7-13.1,14-18.5
		c6.3-5.3,12.8-9.7,19.7-13.1c8.4-4.4,16.9-8,25.7-10.6l4.6-5.9l3.7-5c7-9.6,11-15,12.1-16.1l0.9-1.3c-3.6,3-7.3,5.9-11.1,8.7
		c-13.1,10.1-24.1,16.5-33.1,19.2c-1.3,0.4-2.5,0.6-3.7,0.6c-0.5,0-1.3,0-2.4-0.1c-1.1-0.1-2-0.8-2.9-2.1c-0.8-1.3-1.3-2.6-1.3-4
		c0-1.6,0.6-3.7,1.8-6.4c1.2-2.7,2.9-5.3,5.1-8c3.5-4.3,7.4-8.4,11.7-12.1l4.1-4c2.8-2.7,5.4-5.4,7.8-8.3l0.4-0.6
		c2.6-2.9,3.8-5.2,3.8-6.9s-0.9-3.1-2.7-3.8c-1.4-0.6-2.9-0.9-4.6-0.9c-3.8,0-7.8,0.8-11.8,2.4c-10.7,3.8-20.3,10.2-28.7,19.2
		c-3.1,5.6-5.3,11.9-6.6,18.8c-0.1,0.8-0.4,1.4-1,1.7c-0.5,0.3-1.1,0.5-1.6,0.5c-0.1,0-0.3,0-0.7-0.1c-0.3,0-0.5-0.8-0.5-2.1
		c0-1.7,0.2-3.3,0.6-5c0.7-3,2.6-6.9,5.8-12c2.8-4.7,7.6-9.4,14.5-13.9c6.4-4.4,13.1-7.8,20.2-10c3.9-1.3,8.1-1.9,12.4-1.9
		c3.1,0.1,5.7,1.1,7.7,3.1c0.8,1.1,1.2,2.3,1.2,3.5c0,2.2-0.7,4.4-2.2,6.8c-2.9,4.4-7.8,9.9-14.9,16.5c-3,2.9-5.9,5.8-8.7,8.9
		c-2.5,2.7-4.6,5.5-6.5,8.6c-1.7,2.5-2.5,4.6-2.5,6.4c0,0.5,0.1,0.9,0.3,1.3c0.5,1,1.2,1.5,2.2,1.5h0.9c0.8,0,1.7-0.1,2.8-0.4
		c4.5-1.3,9.4-3.5,14.6-6.6c10.8-6.4,23.1-15.5,36.8-27.2c2.3-2.7,4.7-5.2,7.2-7.5c0.4-0.3,0.8-0.4,1.2-0.4c1,0,1.5,0.4,1.5,1.2
		c0,0.3-0.1,0.6-0.4,1c-0.3,0.3-0.5,0.7-0.7,1.1c-2,2.8-5,6.8-9.2,12.1L297.5,47l-11.1,15.1c4.3-1.3,8.7-2.4,13.1-3.4h0.3
		c0.6,0,0.9,0.2,0.9,0.7c0,0.2-0.1,0.5-0.3,0.8c-0.2,0.3-2.3,1-6.4,1.8l-9.7,2.7l-2.5,3.4c-10.1,14.3-21.7,27.5-34.7,39.6
		C239.1,115.1,232,119.1,225.7,119.8z M225.4,116c2.4,0,5.2-1.1,8.6-3.2c11.9-8.1,26.3-23.3,43.1-45.6c-9.2,3-18.1,6.9-26.9,11.8
		c-6.7,3.6-12.8,8.2-18.2,13.7c-6,6-9.5,11.9-10.3,17.7l-0.1,1c0,2.6,1.1,4.1,3.2,4.6H225.4z"/>
</g>
<g class="st0">
	<path d="M300.6,74.8c-1,0-1.9-0.3-2.9-1c-0.9-0.7-1.5-1.9-1.6-3.5c0.2-3.1,1.7-6.4,4.6-9.7c-0.2-0.5-0.3-1-0.3-1.6
		c0-1.8,0.9-3.4,2.8-5c1.6-1.2,3.2-1.8,4.9-1.9c1,0,1.9,0.2,2.8,0.6c2.1,1.2,3.1,3.2,3.1,5.9c0,1.1-0.2,2.2-0.6,3.4
		c2.7-0.3,5.3-0.9,7.8-1.9h0.3c0.5,0,0.7,0.2,0.7,0.6c0,0.7-0.3,1.2-1,1.6c-3,1.1-5.9,1.8-8.7,2.2c-0.7,1.4-1.4,2.7-2.2,3.8
		c-2,3-4.6,5.1-7.8,6.4C301.8,74.7,301.2,74.8,300.6,74.8z M302.2,71.4c0.5,0,1.2-0.3,2.2-1c2.4-1.5,4.1-3.4,5.2-5.8h-1
		c-1.8,0-3.3-0.3-4.7-0.9l-0.7,1.2V65c-1.4,2.1-2.1,3.6-2.1,4.7C301,70.8,301.4,71.4,302.2,71.4z M310.8,62.1
		c0.4-1.1,0.6-2.1,0.6-3.1c0-2.8-1.2-4.3-3.7-4.6c-1.2,0-2.2,0.3-3,1c-0.8,0.7-1.4,1.5-1.6,2.4v0.1c1.8-1.7,3.3-2.5,4.6-2.5
		c0.7,0,1.2,0.4,1.6,1.2l0.1,0.6c0,0.2-0.1,0.5-0.3,1c-0.2,0.5-0.7,0.9-1.6,1.2c-0.3,0.3-0.5,0.5-0.6,0.5c-0.1,0.1-0.4,0.4-0.9,1.1
		l-0.4,0.4c0.1,0.1,0.2,0.1,0.4,0.1s0.3,0.1,0.4,0.1c1.1,0.2,2.2,0.3,3.2,0.3H310.8z"/>
	<path d="M331.2,73.7h-0.4c-1.8,0-2.7-0.9-2.7-2.7c0-1.4,0.4-2.8,1.2-4.3c-0.1,0-0.2,0-0.3,0.1c-0.1,0.1-0.3,0.2-0.6,0.5
		c-3.5,2.7-6.4,4-8.6,4l-1.2-0.1c-1.2-0.5-1.8-1.3-1.8-2.4v-1.2c0.1-1.2,1.3-3.3,3.5-6.5c3.7-4.8,7.2-7.7,10.3-8.7
		c1.2,0,1.8,0.4,1.8,1.2c0,0.3-0.1,0.6-0.3,0.9c-0.8,1.4-1.8,2.6-3,3.7l-0.4,0.3c-2.6,2.5-4.9,5.1-7.1,8c-0.4,0.4-0.8,1-1.2,1.8
		c0,0.1,0,0.1,0.1,0.1h0.4c1.1-0.2,2.3-0.7,3.7-1.6c0.1-0.1,0.2-0.1,0.4-0.1c2.4-1.4,5-3.3,8-5.8l0.1-0.1c0.7-0.9,1.6-1.9,2.8-3.1
		c1.2-1.2,2-1.9,2.5-2.1v0.1c0.5-0.2,0.9-0.3,1.2-0.3c0.7,0,1,0.3,1,0.9c0,0.8-0.3,1.7-0.9,2.7c-0.9,1.6-1.5,2.5-1.8,2.8
		c-2.4,2.8-4.4,5.5-6.2,8.3l-0.6,1c0,0.1,0,0.1,0.1,0.1c0.2,0,0.4,0,0.7-0.1l0.3-0.1c5.5-1.7,10.3-5.3,14.5-10.8
		c0.4-0.4,0.8-0.6,1.2-0.6c0.6,0.2,0.9,0.5,0.9,1c0,0.2-0.1,0.4-0.3,0.7c-2.5,3.1-5.3,5.7-8.6,7.8C336.7,71.8,333.6,73.3,331.2,73.7
		z"/>
</g>
<g class="st0">
	<path d="M337.4,75.3h-0.6c-0.3,0-0.5-0.1-0.7-0.4c-0.1-0.3-0.2-0.5-0.2-0.7c0-0.4,0.2-0.8,0.6-1.2c3.6-5.3,8.5-11,14.5-17l0.6-0.7
		c1.5-1.7,3.1-3,4.9-4c0.3-0.2,0.6-0.3,0.9-0.3c0.7,0.2,1,0.6,1,1.2l-0.1,0.6c-1,1.7-2.2,3.2-3.7,4.7l-1.9,2.1l3.4-2.7
		c2-1.5,3.6-2.2,5-2.2c0.8,0.2,1.3,0.6,1.6,1.1c0.3,0.5,0.5,1.2,0.7,1.8c0.3,1.1,0.9,1.9,1.9,2.5l0.9,0.1c1.3,0,2.5-0.6,3.5-1.9
		c0.3-0.3,0.6-0.4,0.9-0.4h0.4c0.3,0,0.4,0.2,0.4,0.7c0,0.2-0.1,0.4-0.3,0.7c-1.9,2.6-4.3,3.8-7.4,3.8c-2.6,0-4.1-1.1-4.6-3.2
		l-0.1-2.4h-0.1c-0.2,0-0.6,0.1-1.2,0.4v0.1c-1.9,1-3.5,2.2-5,3.7c-1.8,1.3-3.5,2.7-5.2,4.1l-4.7,4.3l-0.3,0.1l-3.7,4.1
		C338.3,75.1,337.8,75.3,337.4,75.3z"/>
</g>
<g class="st0">
	<path d="M428,100.8h-0.7c-0.3,0-0.5-0.3-0.7-0.9l-0.1-0.6c0-0.6,4.4-6.6,13.3-18.2l2.7-3.4c5.3-7,10.7-13.9,16.1-20.8l-14,0.6
		c-3.4,3.1-6.9,6.1-10.5,9c-10.9,9.6-20.7,16.9-29.2,22l-0.3,0.3c-3.2,2.3-6.6,3.8-10.2,4.7l-1.5,0.1c-0.9,0-1.8-0.2-2.8-0.6
		c-2-0.5-3-2-3-4.4c0-2.1,0.7-4.5,2.1-7.2c3.2-6.8,7.7-12.9,13.4-18.5l4.9-4.7h-11.8c-0.5,0-0.7-0.3-0.7-0.9c0-0.8,0.4-1.2,1.3-1.2
		c2.3-0.1,6.8-0.1,13.7-0.1c8.8-8.2,18.2-13.8,28.4-16.8c1.1-0.4,2.1-0.6,3.1-0.6c0.4,0,1,0.1,1.9,0.2c0.9,0.1,1.5,0.9,1.8,2.3
		c0,1.7-0.4,3.2-1.2,4.4c-1.8,2.6-3.1,3.8-3.8,3.8c-0.6,0-1-0.1-1.2-0.4v-0.1c0-0.3,0.1-0.6,0.4-0.9c2.4-2.4,3.5-4.3,3.5-5.8
		c0-0.9-0.6-1.3-1.9-1.3c-0.9,0-1.9,0.1-3,0.4c-8.4,2.7-16.7,7.5-25.1,14.6c10.3,0,20.8-0.2,31.3-0.6L499.1,7c0.6-0.3,1-0.4,1.2-0.4
		c0.6,0,1,0.2,1.2,0.7c0.1,0.1,0.1,0.2,0.1,0.4c0,0.4-0.2,0.8-0.6,1.3c-2.4,3.3-4.9,6.6-7.5,9.7l-0.4,0.6c-5.9,7.3-15.2,19-27.9,35
		l7.4-0.3c2.7-0.3,5.4-0.4,8.3-0.4c0.4,0.1,0.6,0.3,0.7,0.6c0,0.4-0.1,0.8-0.2,1.2c-0.1,0.4-2.7,0.7-7.8,0.9l-2.5,0.1
		c-2.8,0-5.3,0.1-7.7,0.3l-33.8,43.1C429,100.5,428.5,100.8,428,100.8z M392.7,91.3c3.1,0,7.6-2,13.6-6.1l0.3-0.3
		c6.3-4,12.3-8.4,18-13.1c5.7-4.7,11.3-9.5,16.7-14.3c-10.4,0.4-20.8,0.6-31.2,0.7c-10.5,9.1-17.3,18-20.2,26.7
		c-0.4,1.1-0.6,2.2-0.6,3.2C389.3,90.3,390.5,91.3,392.7,91.3z M447.2,55.1l13.1-0.4c7.8-9.9,15.7-19.9,23.8-29.8l5.5-6.9
		C474.7,31.3,460.5,43.7,447.2,55.1z"/>
</g>
<g class="st0">
	<path d="M467.9,75.3h-0.6c-0.3,0-0.5-0.1-0.7-0.4c-0.1-0.3-0.2-0.5-0.2-0.7c0-0.4,0.2-0.8,0.6-1.2c3.6-5.3,8.5-11,14.5-17l0.6-0.7
		c1.5-1.7,3.1-3,4.9-4c0.3-0.2,0.6-0.3,0.9-0.3c0.7,0.2,1,0.6,1,1.2l-0.1,0.6c-1,1.7-2.2,3.2-3.7,4.7l-1.9,2.1l3.4-2.7
		c2-1.5,3.6-2.2,5-2.2c0.8,0.2,1.3,0.6,1.6,1.1c0.3,0.5,0.5,1.2,0.7,1.8c0.3,1.1,0.9,1.9,1.9,2.5l0.9,0.1c1.3,0,2.5-0.6,3.5-1.9
		c0.3-0.3,0.6-0.4,0.9-0.4h0.4c0.3,0,0.4,0.2,0.4,0.7c0,0.2-0.1,0.4-0.3,0.7c-1.9,2.6-4.3,3.8-7.4,3.8c-2.6,0-4.1-1.1-4.6-3.2
		l-0.1-2.4h-0.1c-0.2,0-0.6,0.1-1.2,0.4v0.1c-1.9,1-3.5,2.2-5,3.7c-1.8,1.3-3.5,2.7-5.2,4.1l-4.7,4.3l-0.3,0.1l-3.7,4.1
		C468.9,75.1,468.4,75.3,467.9,75.3z"/>
</g>
<g class="st0">
	<path d="M474.3,90.4c-0.7,0-1.2-0.2-1.5-0.7v-0.4c0-0.7,2.6-3.7,7.7-9l16-17.9c13.4-15.1,21-23.5,22.7-25.3h-1.5
		c-1.6,0.9-2.5,1.3-2.7,1.3c-0.5,0-0.7-0.2-0.7-0.7l0.1-0.6c-0.8-0.1-6-0.1-15.5-0.1c-3.7,0-6.8,0.1-9.2,0.1
		c-0.2,0.4-0.5,0.6-0.9,0.6l-3.4-0.1c-0.6-0.1-0.9-0.4-0.9-0.9c0-0.8,0.4-1.3,1.2-1.5c2.6-0.6,5.1-0.9,7.5-0.9
		c10.5,0,18.6,0.1,24.2,0.1c1.4-1.1,2.9-2.2,4.6-3.2l9.5-6.9c1.3-1.3,2.5-2.4,3.6-3.5c1.1-1,3.7-3,7.8-6c0.4-0.3,0.7-0.4,1-0.4
		c0.4,0,0.7,0.2,0.9,0.6c0,0.5-0.1,0.9-0.3,1.3l-3.7,4l-2.1,2.4c-0.5,0.4-0.9,0.8-1.3,1.3l-10,10.6c9,0.1,17.9,0.3,26.7,0.6
		c0.6,0.1,0.9,0.4,0.9,1c0,1.1-0.5,1.6-1.5,1.6l-28.5-0.7l-5.3,5.8c-9.7,10.6-16.2,17.5-19.3,20.7l-10.9,11.4
		c-1.2,1.4-5.8,6.3-13.7,14.8C475.2,90.2,474.8,90.4,474.3,90.4z"/>
	<path d="M507.9,74.5c-1.7,0-2.5-0.9-2.5-2.8c0-1,0.4-2.2,1.2-3.5c2.1-3.4,4.7-6.5,7.8-9.2c3-2.8,5.4-4.3,7.2-4.6l0.3-0.1
		c1,0,1.5,0.4,1.5,1.2c0,0.9-0.7,1.9-2.2,3.1c-4.4,3.8-8.4,8-11.8,12.6h0.3c0.5,0,0.9-0.1,1.3-0.3c5.5-2.6,10.7-5.8,15.7-9.6
		c0.8-0.8,1.4-1.2,1.9-1.2c0.5,0,0.8,0.1,0.9,0.4l0.1,0.3c0,0.4-0.2,0.8-0.7,1.3c-2.7,2.3-5.5,4.3-8.4,6.2c0,0.1-0.1,0.1-0.1,0.1
		c-2.9,1.9-5.8,3.5-8.9,5C510.3,74.1,509.1,74.5,507.9,74.5z M525.7,51c-0.5,0-0.8,0-0.9-0.1c-0.6-0.2-0.9-0.6-0.9-1.2l0.3-1
		l0.7-1.2h0.1c0.1-0.2,0.2-0.3,0.4-0.4c0.1-0.1,0.2-0.2,0.3-0.3c0-0.1,0.1-0.2,0.2-0.2c0.1,0,0.2-0.1,0.2-0.1c0,0,0.1-0.1,0.2-0.2
		c0.4-0.3,0.8-0.5,1.2-0.5c0.4,0,0.6-0.1,0.7-0.2c0.5,0,0.8,0.1,1,0.2c0.2,0.1,0.3,0.2,0.4,0.3c0,0.1,0.1,0.1,0.3,0.3
		c0.1,0.1,0.2,0.5,0.2,1.1l-0.1,0.6c-0.2,0.7-0.6,1.2-1.2,1.6v0.1h-0.3c0,0.1-0.1,0.2-0.1,0.2c-0.1,0.1-0.2,0.1-0.4,0.2l-1.6,0.7
		H526L525.7,51z"/>
	<path d="M523.6,90.1c-0.7,0-1-0.3-1-1c0-0.7,0.4-1.5,1.3-2.4c6-6.7,12-13.4,18-20.2c6-6.7,12.1-13.5,18.2-20.2
		c-9.2,7.6-18.8,14.4-28.9,20.5c-1.4,0.8-2.1,1.8-2.1,3V70c-0.1,2-0.8,3.8-2.1,5.6c-0.7,0.9-1.5,1.6-2.4,2.1
		c-0.9,0.5-1.7,0.8-2.5,0.8c-1.1,0-1.9-0.4-2.5-1.3c-0.2-0.4-0.3-0.8-0.3-1.3c0-0.3,0.1-0.8,0.3-1.6c0.2-0.8,1.1-2,2.8-3.7h0.1
		c0.7-0.7,1.4-1.3,2.1-1.8c2.1-1.1,3.1-2.5,3.1-4.1c0.8-4.3,2.6-7.6,5.3-9.9c1.3-1.2,2.8-1.8,4.4-1.8l1.3,0.3c1,0.6,1.5,1.4,1.5,2.5
		c0,0.9-0.3,1.7-0.9,2.5c-0.8,0.6-1.5,0.9-2.1,0.9c-0.5,0-0.8-0.1-0.9-0.4c-0.1-0.2-0.2-0.4-0.3-0.5v-0.4c-0.1-0.2-0.3-0.3-0.6-0.3
		h-0.3c-0.3,0.1-0.6,0.3-1,0.5c-0.3,0.2-0.6,0.5-0.8,0.8c-1.6,2.1-2.7,4.2-3.2,6.5c13.7-8.3,26.4-17.9,38.3-28.9
		c-0.7,0-1.4,0.2-2.1,0.6c-0.7,0.4-1.2,0.6-1.4,0.6c-0.1,0-0.3-0.1-0.6-0.2s-0.4-0.3-0.4-0.5c0-0.2,0.1-0.4,0.3-0.6l-28.4,0.4
		c-1,0-1.5-0.2-1.5-0.7l0.1-0.7c0.5-0.8,1.4-1.2,2.8-1.2c5.3-0.2,10.6-0.3,16-0.3c4,0,8,0.1,12,0.1c1,0,1.9-0.1,2.7-0.4
		c0.8-0.3,1.7-0.8,2.6-1.5c4.7-3.9,9.5-7.8,14.3-11.6c4.8-3.8,7.4-5.8,7.8-6.1s0.9-0.4,1.4-0.4c0.4,0.1,0.6,0.3,0.6,0.7
		c-0.1,0.4-0.3,0.8-0.5,1.2c-0.2,0.4-0.5,0.8-0.8,1.2l-16.1,17c17.3,0.4,26,0.6,26.1,0.7c1.1,0,1.6,0.4,1.6,1.2
		c-0.4,0.9-1.3,1.3-2.8,1.3l-26-0.6c-0.4,0-0.8,0.1-1.2,0.2c-0.4,0.1-16.6,17.3-48.6,51.3C525.3,89.5,524.4,90.1,523.6,90.1z
		 M523.1,76.1c1.6-0.5,2.7-2,3.2-4.6c0-0.2,0-0.4,0.1-0.7c0-0.3,0.1-0.5,0.2-0.7c-1.2,0.8-2.3,1.7-3.2,2.7c-1,1-1.5,1.8-1.5,2.5
		c0,0.6,0.3,0.9,0.9,0.9H523.1z"/>
</g>
</svg>
