<?xml version="1.0" encoding="utf-8"?>
<!-- Generator: Adobe Illustrator 25.1.0, SVG Export Plug-In . SVG Version: 6.00 Build 0)  -->
<svg version="1.1" id="Layer_1" xmlns="http://www.w3.org/2000/svg" xmlns:xlink="http://www.w3.org/1999/xlink" x="0px" y="0px"
	 viewBox="0 0 631 123" style="enable-background:new 0 0 631 123;" xml:space="preserve">
<style type="text/css">
	.st0{font-family:'AmsterdamSignature-Italic';}
	.st1{font-size:147.6904px;}
	.st2{letter-spacing:-4;}
	.st3{letter-spacing:1;}
	.st4{letter-spacing:25;}
</style>
<text transform="matrix(1 0 0 1 -4.9857 100.7502)" class="st0 st1 st2">M</text>
<text transform="matrix(1 0 0 1 93.8143 100.7502)" class="st0 st1">ee</text>
<text transform="matrix(1 0 0 1 139.3043 100.7502)" class="st0 st1 st3">t</text>
<text transform="matrix(1 0 0 1 156.4343 100.7502)" class="st0 st1 st4"> </text>
<text transform="matrix(1 0 0 1 207.6843 100.7502)" class="st0 st1 st3">Y</text>
<text transform="matrix(1 0 0 1 288.9143 100.7502)" class="st0 st1">ou</text>
<text transform="matrix(1 0 0 1 334.8443 100.7502)" class="st0 st1 st3">r</text>
<text transform="matrix(1 0 0 1 358.4743 100.7502)" class="st0 st1"> </text>
<text transform="matrix(1 0 0 1 383.1343 100.7502)" class="st0 st1 st3">A</text>
<text transform="matrix(1 0 0 1 465.3943 100.7502)" class="st0 st1">r</text>
<text transform="matrix(1 0 0 1 486.0743 100.7502)" class="st0 st1 st3">tist</text>
</svg>
