<?xml version="1.0" encoding="utf-8"?>
<!-- Generator: Adobe Illustrator 25.2.1, SVG Export Plug-In . SVG Version: 6.00 Build 0)  -->
<svg version="1.1" id="Layer_1" xmlns="http://www.w3.org/2000/svg" xmlns:xlink="http://www.w3.org/1999/xlink" x="0px" y="0px"
	 viewBox="0 0 218 108" style="enable-background:new 0 0 218 108;" xml:space="preserve">
<style type="text/css">
	.st0{enable-background:new    ;}
</style>
<g class="st0">
	<path d="M17.8,103l-2.5-0.1c-4.1-0.3-7.2-2-9.2-5c-0.6-1.4-0.9-2.9-0.9-4.4c0-2.5,0.8-5,2.4-7.7c5.5-8.6,12.8-15.3,22-20.2l0.9-0.3
		c0.3,0,0.5,0.1,0.7,0.4c0.2,0.2,0.3,0.6,0.3,1c0,0.7-0.3,1.3-1,1.8c-2.3,1-4.4,2.2-6.4,3.7c-4.2,3-7.9,6.4-10.9,10.3
		c-3.1,3.9-4.6,7.3-4.6,10.1c0,2.4,1.1,4,3.2,4.9c1.5,0.7,3.3,1,5.6,1c4,0,8.1-0.6,12.3-1.9c4.7-1.4,9.3-3.3,13.7-5.9
		c4-2.3,7.5-5.1,10.5-8.6c2.4-3,3.5-5.9,3.5-8.9l-0.1-1.6c-0.6-3.4-2.2-6.4-4.7-8.7c-3.2-2.8-6.8-5.1-10.9-6.9
		C31.6,51.2,26.6,46,26.6,40.4c0-3.8,2.2-7.6,6.5-11.4c4-3.4,8.4-6.3,13.1-8.4c14.2-7,27.9-10.5,41.2-10.6l2.4,0.1
		c4.3,0,8.1,1.1,11.4,3.4c1.3,1.2,2,2.5,2.2,4h0.1l0.1,1.6c0,0.8-0.1,1.6-0.3,2.4c-0.1,0.4-0.2,0.7-0.2,1c-0.1,0.2-0.1,0.5-0.1,0.7
		c-0.1,0.2-0.1,0.4-0.2,0.6c-0.1,0.2-0.2,0.4-0.3,0.6c-0.1,0.2-0.1,0.3-0.1,0.4c-1.6,3.6-4.6,7.7-9.2,12.3c-4,4.2-8.2,7.5-12.6,9.9
		c-0.5,0.2-0.9,0.3-1.3,0.3c-0.3,0-0.7-0.1-1.1-0.4c-0.4-0.3-0.7-0.8-0.7-1.5c0-0.8,0.4-1.5,1.2-2.1l6.2-4.6l1.3-0.9
		c4.1-3.1,7.4-6.2,9.9-9.3l1-1.2c1-1.4,1.7-2.5,2.1-3.4c0.1-0.3,0.3-0.8,0.7-1.6c0.3-0.7,0.5-1.6,0.5-2.7c0-1-0.2-1.9-0.7-2.7
		c-1.2-1.6-2.9-2.6-5-3.2c-2.2-0.5-5.2-0.8-9-0.8s-7.8,0.3-12,1c-9.7,1.7-19.1,5.1-28.2,10.2c-4.6,2.3-8.8,5.3-12.4,9.2
		c-1.4,1.7-2.2,3.4-2.4,5.2c0.1,2,0.8,3.6,2.2,4.9c3.4,3.4,7.6,6.2,12.4,8.1c2.6,1.2,5,2.5,7.4,4c3.2,2,5.9,4.6,7.8,7.8
		c1.5,2.5,2.2,5.3,2.2,8.4l-0.1,3c-1,4.7-3.4,8.9-7.2,12.5c-3.8,3.6-8,6.6-12.5,8.9c-4.5,2.4-9.2,4.1-14,5.3
		C25.1,102.5,21.4,103,17.8,103z"/>
</g>
<g class="st0">
	<path d="M74.9,73.2c-0.8,0-2-0.1-3.7-0.3c-1.7-0.2-2.6-1.6-2.8-4.3c0.2-2.6,1.4-4.9,3.5-6.9c2.1-2.1,4.4-3.6,6.9-4.7
		c1.7-0.9,3.4-1.4,5.2-1.5c0.7,0,1.3,0.1,1.8,0.4c0.9,0.5,1.3,1.2,1.3,2.1v0.9c0,0.6-0.5,1.4-1.5,2.4c-1.4,1.4-3.1,2.5-5,3.2
		c-2,0.8-4,1.2-6.1,1.2c-0.6,0.8-1,1.6-1.2,2.4c0,1.5,0.9,2.2,2.8,2.2c3,0,5.9-0.7,8.9-2.2c3.7-1.8,7.2-4.1,10.5-6.9
		c0.3-0.3,0.5-0.4,0.7-0.4c0.6,0,0.9,0.3,1,0.9c0,0.4-0.2,0.8-0.6,1.2c-4.9,4.3-10.3,7.5-16.2,9.6C78.6,72.9,76.7,73.2,74.9,73.2z
		 M76.9,63c1.7-0.3,3.3-0.9,4.9-1.8c1.2-0.6,1.9-1.2,2.1-1.9L83,59.6C80.9,60.3,78.9,61.5,76.9,63z"/>
	<path d="M85.5,76.5h-0.6c-0.3,0-0.5-0.1-0.7-0.4c-0.1-0.3-0.2-0.5-0.2-0.7c0-0.4,0.2-0.8,0.6-1.2c3.6-5.3,8.5-11,14.5-17l0.6-0.7
		c1.5-1.7,3.1-3,4.9-4c0.3-0.2,0.6-0.3,0.9-0.3c0.7,0.2,1,0.6,1,1.2l-0.1,0.6c-1,1.7-2.2,3.2-3.7,4.7l-1.9,2.1l3.4-2.7
		c2-1.5,3.6-2.2,5-2.2c0.8,0.2,1.3,0.6,1.6,1.1c0.3,0.5,0.5,1.2,0.7,1.8c0.3,1.1,0.9,1.9,1.9,2.5l0.9,0.1c1.3,0,2.5-0.6,3.5-1.9
		c0.3-0.3,0.6-0.4,0.9-0.4h0.4c0.3,0,0.4,0.2,0.4,0.7c0,0.2-0.1,0.4-0.3,0.7c-1.9,2.6-4.3,3.8-7.4,3.8c-2.6,0-4.1-1.1-4.6-3.2
		l-0.1-2.4h-0.1c-0.2,0-0.6,0.1-1.2,0.4v0.1c-1.9,1-3.5,2.2-5,3.7c-1.8,1.3-3.5,2.7-5.2,4.1L91,71.4l-0.3,0.1L87,75.7
		C86.5,76.2,86,76.5,85.5,76.5z"/>
	<path d="M114.6,75.1h-0.7c-1.5,0-2.5-0.7-3.1-2.1l-0.1-1.5c0-1.4,0.4-2.9,1.2-4.6c1.7-3.2,4.3-6.3,7.8-9.5c2.1-2.1,3.8-3.1,5.3-3.1
		c0.1,0,0.3,0,0.6,0s0.5,0.1,0.7,0.4c0.2,0.3,0.3,0.6,0.3,1v0.3c-0.4,1.3-1.4,2.5-3.1,3.7c-2.5,2.5-4,4-4.6,4.7l-0.3,0.4
		c-1,1.1-1.9,2.2-2.7,3.2c-0.1,0-0.1,0.1-0.1,0.1c-1.1,1.3-1.6,2.2-1.6,2.8c0,0.8,0.4,1.2,1.3,1.2c0.7,0,1.5-0.2,2.4-0.6
		c3.6-1.5,7.7-4.4,12.1-8.9c2.8-2.4,4.9-5.1,6.5-8.1c0.1-0.5,0.6-0.9,1.5-1.2c0.6,0,0.9,0.2,0.9,0.6l-0.1,0.6
		c-2.1,4.1-5,7.8-8.9,11.1C124.2,71.4,119.1,74.4,114.6,75.1z"/>
	<path d="M133.9,75.6c-1.7,0-2.5-0.9-2.5-2.8c0-1,0.4-2.2,1.2-3.5c2.1-3.4,4.7-6.5,7.8-9.2c3-2.8,5.4-4.3,7.2-4.6l0.3-0.1
		c1,0,1.5,0.4,1.5,1.2c0,0.9-0.7,1.9-2.2,3.1c-4.4,3.8-8.4,8-11.8,12.6h0.3c0.5,0,0.9-0.1,1.3-0.3c5.5-2.6,10.7-5.8,15.7-9.6
		c0.8-0.8,1.4-1.2,1.9-1.2c0.5,0,0.8,0.1,0.9,0.4l0.1,0.3c0,0.4-0.2,0.8-0.7,1.3c-2.7,2.3-5.5,4.3-8.4,6.2c0,0.1-0.1,0.1-0.1,0.1
		c-2.9,1.9-5.8,3.5-8.9,5C136.3,75.2,135.1,75.6,133.9,75.6z M151.7,52.1c-0.5,0-0.8,0-0.9-0.1c-0.6-0.2-0.9-0.6-0.9-1.2l0.3-1
		l0.7-1.2h0.1c0.1-0.2,0.2-0.3,0.4-0.4c0.1-0.1,0.2-0.2,0.3-0.3c0-0.1,0.1-0.2,0.2-0.2c0.1,0,0.2-0.1,0.2-0.1c0,0,0.1-0.1,0.2-0.2
		c0.4-0.3,0.8-0.5,1.2-0.5c0.4,0,0.6-0.1,0.7-0.2c0.5,0,0.8,0.1,1,0.2c0.2,0.1,0.3,0.2,0.4,0.3c0,0.1,0.1,0.1,0.3,0.3
		c0.1,0.1,0.2,0.5,0.2,1.1l-0.1,0.6c-0.2,0.7-0.6,1.2-1.2,1.6v0.1h-0.3c0,0.1-0.1,0.2-0.1,0.2c-0.1,0.1-0.2,0.1-0.4,0.2l-1.6,0.7
		H152L151.7,52.1z"/>
	<path d="M151.2,76.2c-0.3,0-0.9,0-1.8-0.1c-0.9-0.1-1.7-0.9-2.3-2.4c-0.2-0.6-0.3-1.2-0.3-1.8c0-2,1-4.1,3-6.5
		c2-2.4,4.2-4.4,6.6-6.2c2.5-1.8,5.1-3.1,7.8-4.1c1.5-0.6,3-0.9,4.4-1c1.3,0,2.3,0.4,3.1,1.3c0.4,0.5,0.6,1,0.6,1.6
		c0,1.2-1.1,2.8-3.2,4.8c-2.1,2-4.6,3.5-7.3,4.4h-0.3c-0.2,0-0.3-0.1-0.4-0.2c-0.1-0.1-0.1-0.3-0.1-0.5c0-0.6,0.2-0.9,0.6-1
		c2.5-1,4.6-2.4,6.5-4.3l0.1-0.1c0.9-0.9,1.3-1.5,1.3-1.9c0-0.3-0.2-0.4-0.7-0.4c-0.3,0-0.7,0.1-1.1,0.2c-0.4,0.1-0.8,0.3-1,0.4
		c-0.2,0.1-0.4,0.2-0.4,0.3c-3.8,1.8-7.3,4.1-10.3,7.1c-1.7,1.5-3.1,3.2-4.1,5c-0.3,0.5-0.4,0.9-0.4,1.3c0,0.6,0.5,0.9,1.5,1
		c1.9-0.1,3.8-0.5,5.9-1.2c5.5-1.9,11.5-5.4,18-10.5c0.4-0.3,0.7-0.4,1-0.4c0.6,0,0.9,0.3,1,0.9c0,0.5-0.2,0.9-0.7,1.3
		c-5.4,4.4-11.2,8-17.4,10.8C156.7,75.4,153.6,76.2,151.2,76.2z"/>
	<path d="M179.1,73.2c-0.8,0-2-0.1-3.7-0.3c-1.7-0.2-2.6-1.6-2.8-4.3c0.2-2.6,1.4-4.9,3.5-6.9c2.1-2.1,4.4-3.6,6.9-4.7
		c1.7-0.9,3.4-1.4,5.2-1.5c0.7,0,1.3,0.1,1.8,0.4c0.9,0.5,1.3,1.2,1.3,2.1v0.9c0,0.6-0.5,1.4-1.5,2.4c-1.4,1.4-3.1,2.5-5,3.2
		c-2,0.8-4,1.2-6.1,1.2c-0.6,0.8-1,1.6-1.2,2.4c0,1.5,0.9,2.2,2.8,2.2c3,0,5.9-0.7,8.9-2.2c3.7-1.8,7.2-4.1,10.5-6.9
		c0.3-0.3,0.5-0.4,0.7-0.4c0.6,0,0.9,0.3,1,0.9c0,0.4-0.2,0.8-0.6,1.2c-4.9,4.3-10.3,7.5-16.2,9.6C182.8,72.9,181,73.2,179.1,73.2z
		 M181.2,63c1.7-0.3,3.3-0.9,4.9-1.8c1.2-0.6,1.9-1.2,2.1-1.9l-0.9,0.3C185.2,60.3,183.2,61.5,181.2,63z"/>
</g>
<g class="st0">
	<path d="M192.3,80c-1.9,0-2.8-0.9-2.8-2.7c0-0.5,0.1-1,0.3-1.5c0.9-1.8,2.2-3.3,3.8-4.6c1.2-0.9,2.4-1.7,3.7-2.5
		c0.3-2.1,1.2-4.8,2.7-8.3c0.9-2,2.3-3.6,4.3-5c1.1-0.7,2.1-1,3.1-1c1.1,0,2,0.4,2.7,1.2c0.4,0.6,0.6,1.2,0.6,1.8
		c0,1.2-0.7,2.3-2.1,3.2c-0.4,0.3-0.7,0.4-1,0.4c-0.7,0-1-0.3-1-1v-0.3c0-0.1-0.1-0.2-0.1-0.4c-0.1-0.2-0.2-0.3-0.4-0.3
		c-0.8,0-1.5,0.4-2.2,1.3c-1.6,2.1-2.7,4.2-3.2,6.5l8.3-4.4c1.1-0.5,2.1-1,3.1-1.6l0.7-0.1c0.5,0,0.7,0.3,0.7,0.9
		c0,0.1,0,0.3-0.1,0.7c0,0.3-1.4,1.1-4.1,2.3c-3.2,1.7-6.4,3.4-9.5,5.2c-0.1,0.2-0.1,0.4-0.1,0.7c-0.2,1.5-0.5,3-1,4.4
		c-0.5,1.5-1.4,2.7-2.7,3.7C194.5,79.5,193.4,80,192.3,80z M193.3,77.6c1.6-0.5,2.7-2,3.2-4.6c0-0.4,0.1-0.9,0.3-1.5
		c-1.2,0.8-2.3,1.7-3.2,2.7c-1,1-1.5,1.8-1.5,2.5c0,0.6,0.3,0.9,0.9,0.9H193.3z"/>
</g>
</svg>
