<?xml version="1.0" encoding="utf-8"?>
<!-- Generator: Adobe Illustrator 25.2.0, SVG Export Plug-In . SVG Version: 6.00 Build 0)  -->
<svg version="1.1" id="Layer_1" xmlns="http://www.w3.org/2000/svg" xmlns:xlink="http://www.w3.org/1999/xlink" x="0px" y="0px"
	 viewBox="0 0 75 76" style="enable-background:new 0 0 75 76;" xml:space="preserve">
<style type="text/css">
	.st0{fill:#FFFFFF;}
	.st1{font-family:'Gotham-Medium';}
	.st2{font-size:0.6011px;}
	.st3{fill:#080808;}
	.st4{fill:#BBBBBB;}
	.st5{fill:#0B0B0B;}
	.st6{fill:#0E0E0E;}
	.st7{fill:#121212;}
	.st8{fill:#1C1C1C;}
	.st9{fill:#161616;}
	.st10{fill:#090909;}
	.st11{fill:#0D0D0D;}
	.st12{fill:#1D1D1D;}
	.st13{fill:#0F0F0F;}
	.st14{fill:#CBCBCB;}
	.st15{fill:#B1B1B1;}
	.st16{fill:#BEBEBE;}
	.st17{fill:#0C0C0C;}
	.st18{fill:#212121;}
	.st19{fill:#9D9D9D;}
	.st20{fill:#BFBFBF;}
	.st21{fill:#C1C1C1;}
	.st22{fill:#1F1F1F;}
	.st23{fill:#232323;}
	.st24{fill:#A7A7A7;}
	.st25{fill:#C6C6C6;}
	.st26{fill:#B3B3B3;}
	.st27{fill:#262626;}
	.st28{fill:#AEAEAE;}
	.st29{fill:#2F2F2F;}
	.st30{fill:#131313;}
	.st31{fill:#1B1B1B;}
	.st32{fill:#1E1E1E;}
	.st33{fill:#5E5E5E;}
	.st34{fill:#A0A0A0;}
	.st35{fill:#151515;}
	.st36{fill:#C7C7C7;}
	.st37{fill:#D4D4D4;}
	.st38{fill:#272727;}
	.st39{fill:#282828;}
	.st40{fill:#3E3E3E;}
	.st41{fill:#2B2B2B;}
	.st42{fill:#202020;}
	.st43{fill:#424242;}
	.st44{fill:#343434;}
	.st45{fill:#BDBDBD;}
	.st46{fill:#D2D2D2;}
	.st47{fill:#454545;}
	.st48{fill:#4F4F4F;}
	.st49{fill:#949494;}
	.st50{fill:#D0D0D0;}
	.st51{fill:#2C2C2C;}
	.st52{fill:#575757;}
	.st53{fill:#6E6E6E;}
	.st54{fill:#8B8B8B;}
	.st55{fill:#606060;}
	.st56{fill:#848484;}
	.st57{fill:#CACACA;}
	.st58{fill:#898989;}
	.st59{fill:#444444;}
	.st60{fill:#515151;}
	.st61{fill:#B0B0B0;}
	.st62{fill:#CEBFA7;}
	.st63{fill:#4E4E4E;}
	.st64{fill:#2E2E2E;}
	.st65{fill:#474747;}
	.st66{fill:#FDFDFD;}
	.st67{fill:#FAFAFA;}
	.st68{fill:#F9F9F9;}
	.st69{fill:#F6F6F6;}
	.st70{fill:#F5F5F5;}
	.st71{fill:#F8F8F8;}
	.st72{fill:#F3F3F3;}
	.st73{fill:#E7E7E7;}
	.st74{fill:#F0F0F0;}
	.st75{fill:#D1C6B2;}
	.st76{fill:#E3E3E3;}
	.st77{fill:#6B6B6B;}
	.st78{fill:#ACACAC;}
	.st79{fill:#DEDEDE;}
	.st80{fill:#8D8D8D;}
	.st81{fill:#ADADAD;}
	.st82{fill:#6A6A6A;}
	.st83{fill:#979797;}
	.st84{fill:#8F8F8F;}
	.st85{fill:#303030;}
	.st86{fill:#969696;}
	.st87{fill:#646464;}
	.st88{fill:#B6B6B6;}
	.st89{fill:#888888;}
	.st90{fill:#B9B9B9;}
	.st91{fill:#E1E1E1;}
	.st92{fill:#D1D1D1;}
	.st93{fill:#B2B2B2;}
	.st94{fill:#D5D5D5;}
	.st95{fill:#222222;}
	.st96{fill:#E6E6E6;}
	.st97{fill:#2D2D2D;}
	.st98{fill:#D3D3D3;}
	.st99{fill:#9B9B9B;}
	.st100{fill:#A1A1A1;}
	.st101{fill:#989898;}
	.st102{fill:#252525;}
	.st103{fill:#7A7A7A;}
	.st104{fill:#ABABAB;}
	.st105{fill:#3F3F3F;}
	.st106{fill:#191919;}
	.st107{fill:#A5A5A5;}
	.st108{fill:#EFEFEF;}
	.st109{fill:#E4E4E4;}
	.st110{fill:#323232;}
	.st111{fill:#9F9F9F;}
	.st112{fill:#535353;}
	.st113{fill:#B7B7B7;}
	.st114{fill:#0A0A0A;}
	.st115{fill:#ECECEC;}
	.st116{fill:#E5E5E5;}
	.st117{fill:#C0C0C0;}
	.st118{fill:#101010;}
	.st119{fill:#464646;}
	.st120{fill:#DCDCDC;}
	.st121{fill:#333333;}
	.st122{fill:#545454;}
	.st123{fill:#929292;}
	.st124{fill:#4B4B4B;}
	.st125{fill:#5F5F5F;}
	.st126{fill:#858585;}
	.st127{fill:#727272;}
	.st128{fill:#707070;}
	.st129{fill:#B8B8B8;}
	.st130{fill:#7B7B7B;}
	.st131{fill:#777777;}
	.st132{fill:#CECECE;}
	.st133{fill:#242424;}
	.st134{fill:#DBDBDB;}
	.st135{fill:#525252;}
	.st136{fill:#E9E9E9;}
	.st137{fill:#8A8A8A;}
	.st138{fill:#C4C4C4;}
	.st139{fill:#E0E0E0;}
	.st140{fill:#BABABA;}
	.st141{fill:#EDEDED;}
</style>
<ellipse class="st0" cx="40.9" cy="40.8" rx="33.1" ry="33.1"/>
<path d="M74,40.8c0-4.3-0.9-8.6-2.6-12.6s-4.1-7.6-7.2-10.7C58.1,11.4,49.5,7.9,40.9,8c-4.3,0-8.6,0.9-12.5,2.6
	c-4,1.7-7.5,4.1-10.6,7.1s-5.4,6.7-7,10.6c-1.6,4-2.4,8.2-2.4,12.5s0.8,8.5,2.4,12.5s4,7.6,7,10.6s6.6,5.5,10.6,7.2
	s8.2,2.6,12.5,2.6c8.6,0.1,17.2-3.4,23.3-9.5c3.1-3,5.5-6.7,7.2-10.7C73.1,49.5,74,45.2,74,40.8z M74,40.8c0,4.3-0.8,8.7-2.5,12.7
	s-4.1,7.7-7.2,10.8c-3.1,3.1-6.7,5.6-10.7,7.3c-4,1.7-8.3,2.6-12.7,2.6c-8.7,0.1-17.5-3.4-23.7-9.6c-3.1-3.1-5.6-6.8-7.3-10.8
	S7.3,45.4,7.3,41s0.9-8.8,2.6-12.8c1.7-4.1,4.2-7.8,7.3-10.9c6.2-6.2,14.9-9.7,23.7-9.6c4.4,0,8.7,0.9,12.7,2.6s7.7,4.2,10.7,7.3
	c3.1,3.1,5.5,6.8,7.2,10.8C73.2,32.2,74,36.5,74,40.8z"/>
<text transform="matrix(1 0 0 1 65.3569 39.5698)" class="st1 st2">  </text>
<path d="M47,45c0.5,0.3,0.9,0.2,1.2-0.3c0.6-1.1,0.8-2.3,1.1-3.5c0.3,1.2,0.1,2.5-0.4,3.6c-0.1,0.2-0.4,0.4-0.2,0.7
	c0.2,0.2,0.5,0.1,0.8,0c1.4-0.4,2.6-1,3.5-2.2c-0.1,1.1-0.9,1.8-1.7,2.5c-0.2,0.2-0.6,0.2-0.4,0.5c0.1,0.3,0.5,0.2,0.8,0.2
	c0.8,0,1.4-0.5,2.2-0.7c-0.3,0.8-1,0.9-1.4,1.3c0.5,0.3,0.9,0.7,1.4,1c0.3,0.2,0.7,0.2,0.8,0.6c1,0.5,2-0.2,3-0.4
	c-0.5,0.8-1.3,0.7-2.1,1.1c1.8,0.3,3.3,0,4.8-0.8c-1,1.2-2.4,1.2-3.9,1.3c0.4,0.7,0.9,1.1,1.5,1.5c0.3,0.1,0.3,0.3,0.4,0.5
	c0.5,0.6,1.1,0.3,1.7,0.2c0.4-0.1,0.8-0.4,1.5-0.6c-0.6,1-1.4,1-2.3,1.2c1.3,1.5,2.6,2.8,3.9,4.2C63.1,57,63.1,57,63,57.1
	c-0.3-0.2-0.5-0.4-0.8-0.6c-2.1-1.7-4.4-3.3-6.8-4.5c-0.5-0.2-0.8-0.4-0.8,0.4c-0.3,5.4-5.3,8.6-10.7,7.9c-4.8-0.7-8-3.8-9.1-8.7
	c-0.3-1.2-0.3-1.2-1.4-0.7c-1.1,0.4-2,1-2.8,1.9c-0.4,0.5-0.4,0.8-0.1,1.3c2.3,3.3,5.6,5.3,9.4,6.3c5.3,1.5,10.6,1.1,15.8-0.4
	c1.8-0.5,3.5-0.6,5.3,0c0,0.5-0.3,0.2-0.6,0.2c-1-0.2-2,0.1-3,0.4c-2.2,0.7-4.4,1.5-6.7,1.9c-0.3,0.1-0.6,0.1-0.9,0.1
	C49.4,63,49,63,48.7,63c-0.8,0.2-1.7,0.2-2.6,0.2c-0.1,0-0.2,0.1-0.2,0.1c-0.2,0.2-0.5,0.1-0.7,0.1c-0.6,0.1-1.2-0.2-1.7,0.3
	c-0.7,0.7-1.1,1.5-1.3,2.5c0,0.1,0,0.2,0,0.4c-0.1,0.6,0,1.2-0.3,1.8c-0.3,0.6-0.5,0.6-1,0.3c-0.6-1.5-0.6-3,0-4.4
	c0.4-1,0.4-1.1-0.6-1.2c-0.9-0.1-1.8-0.5-2.6-0.7c-0.7-0.2-1.5-0.5-2.1-0.9s-1.2-0.4-1.8,0c-0.6,0.5-1.4,0.6-2,1.1
	c-1.1,0.9-1.8,2.1-2.2,3.4c-0.1,0.4-0.3,0.8-0.8,0.7c-0.1-2.5,1.1-4.5,2.9-6.2c0.3-0.3,0.6-0.4,1-0.2c0.3,0.2,0.6,0.1,0.9-0.2
	c-0.6-0.4-1.1-0.9-1.8-1.1l0,0c-0.5-0.7-1.3-1.1-1.9-1.7c0,0-0.1-0.1-0.2-0.1c-0.8,0-2.4,1.5-2.4,2.4c1.1-0.5,2-1.4,3.5-1.5
	c-0.6,0.9-1.4,1.2-2,1.5c-2.2,1.2-2.5,1.7-2.3,4.2c0,0.2,0,0.3,0,0.6c-0.4-0.3-0.5-0.7-0.6-1c-0.2-0.4-0.3-0.9-0.3-1.3
	c0.2-1.9,0.6-3.7,2.1-5c0.1-0.1,0.4-0.2,0.2-0.4c-0.1-0.1-0.3-0.1-0.5,0c-0.4,0-0.7,0.1-1-0.1c-1.6,0.4-2.6,1.6-3.5,2.9
	c0.2-2,1.5-2.8,3.2-3.5c-1-0.5-3,0.4-4.9,2c-0.2-0.5,0.1-0.8,0.3-1.1c1.1-1.4,2.5-2.2,4.3-1.7c0.3,0.1,0.6,0.2,1,0
	c-0.8-0.6-1.6-0.9-2.6-1c-5-0.3-9.9-1.2-14.6-3.2c-2.7-1.2-5.2-2.6-7.3-4.6c-0.3-0.3-0.7-0.7-1-1.2c3.3,1.7,6.7,2.7,10.4,3
	c0.1-0.5-0.3-0.8-0.2-1.3C12,47,12,48.2,13.1,48c-0.4-0.6-0.8-1.1-1.2-1.8c0.9,0.4,1.3,1.1,1.9,1.6c0.7,0.5,1.4,0.2,2.4,0.2
	c-1.2-1.3-2-2.6-2.3-4.2c1.5,1.7,2.4,4.3,5.8,3.8c-1.3-1.1-2.4-2.1-3.2-3.5c0.7,0.1,1,0.7,1.4,1c0.5,0.4,0.9,1.1,1.7,1.2
	c0.4-0.3,0.1-0.5,0-0.7c-0.2-0.3-0.5-0.6-0.6-1c-0.1-0.2-0.2-0.5-0.2-0.8c0.3-0.7-0.2-1.4,0.1-2.1l0,0c0.3-0.2-0.1-0.7,0.4-0.8
	c0.6,1.9,1.2,3.8,2.6,5.2c0.5,0.5,0.9,0.7,1.6,0.2c-1.4-1.2-2.5-2.6-3-4.4c0.5-0.1,0.5,0.2,0.6,0.4c0.9,1.4,2.1,2.5,3.5,3.3
	c0.5,0.3,0.9,0.3,1.4,0c-1.8-1.6-3.3-3.4-3.6-5.9c0-0.6-0.3-1.2,0.2-1.8c0.4,3.3,2.1,5.7,5.2,7c0.1,0.1,0.3,0.1,0.5,0.1
	c-1-1.2-1.6-2.6-2.6-3.7c-0.2-0.4,0.6-0.6,0.2-1c-0.3-1.3-0.2-2.5,0.2-3.7c-0.3,5.2,2.5,8.2,4.6,8c-2.1-2.3-3.2-5-2.9-8.1
	c0.6,1.9,1.1,3.8,2.5,5.3c0.1-0.1,0.3,0,0.4,0.1c0.3,0.7,0.9,1.2,1.6,1.6c0.2,0.1,0.4,0.5,0.8,0.3c-0.3-0.6-0.7-1.2-1-1.8
	c-0.1-0.2-0.1-0.4,0.2-0.4c0.6,0.8,1.1,1.7,1.9,2.2c0.2,0.1,0.4,0.3,0.5,0c0-0.1-0.1-0.2-0.2-0.3c-0.2-0.3,0.4-0.3,0.2-0.5
	c-0.8-2-0.7-4,0.3-6c0.1,1.3-0.1,2.6,0.3,3.8c0.4,1.2,1.1,2.3,2.3,3c-0.3-1-0.8-2-1-3s-0.5-2.1,0.1-3.2c0.2,2.5,1.1,4.6,3.4,6.3
	c-0.5-2.7-1.4-5.2-0.6-7.8c0,2.4,0.4,4.6,1.8,6.6c-0.3-1.9-1-3.9-0.2-6.1c0,1.9,0.3,3.5,0.8,5.1C42,42,42,42,42.3,42.2
	c0.1-0.4,0-1,0.7-0.4c0.1,0.6,0.2,1.2,0.6,1.9c0.1-2.2,0-4.2,0.7-6.1c0.2,2.2-0.2,4.5,0.8,6.7c0.2-1.4,0.1-2.9,0.8-4.2
	c0.5,0.2,0.2,0.6,0.2,1c0,1.1,0,2.2,0,3.4c0.7-0.5,0.7-1.2,1-1.9c0.4,0.1,0.2,0.3,0.2,0.6c0,0.4-0.1,0.8-0.2,1.1
	C46.7,44.7,46.8,44.8,47,45z"/>
<path class="st3" d="M50.4,24.1c0.9,0,1.5,0.6,2.3,1c0.4,0.2,0.7,0.4,1.1,0.6c1.6,0.9,3.1,1.9,4.5,3.2c0.3,0.6,0.8,1.1,1.2,1.5
	c0.5,0.6,0.9,1.3,1.2,2.1c0.5,1.3,1.3,2.7,1,4.2c0,0.1-0.1,0.2-0.2,0.2c-0.7,0.1-0.8-0.5-0.9-0.9c-0.4-1.6-0.9-3.1-1.9-4.4
	c-0.6-0.4-0.7-1.1-1.2-1.6c-1.3-1.4-2.8-2.8-4.5-3.6c-0.7-0.6-1.5-0.9-2.2-1.5C50.7,24.7,50.2,24.6,50.4,24.1z"/>
<path class="st4" d="M61.5,37c0-0.1,0-0.1,0-0.2c0.1-0.1,0.2-0.2,0.2-0.4c0-0.1,0-0.3,0.1-0.4c0.9-0.5,0.3-1.2,0.2-1.8
	c0-0.5,0.1-0.9,0.1-1.4s0.2-0.9,0.8-0.8c0.7,0.8,0.7,1.8,0.8,2.7c0.2,1.4,0.5,2.7,1.4,3.9c0.1,0.2-0.1,0.4-0.2,0.6
	c-1.1-0.3-2.1-1-3.2-1.3c-0.3-0.1-0.2-0.4-0.3-0.6C61.4,37.2,61.4,37.1,61.5,37z"/>
<path class="st5" d="M14.3,27.6c0.4-0.3,0.7-0.5,1.1-0.8c0.5-0.2,0.8-0.6,1.1-0.9c0.3-0.2,0.7-0.5,1.1-0.4c1.5-0.4,3-0.9,4.5-0.7
	c0.3,0,0.5,0,0.8,0c0.3,0.1,0.5,0,0.8,0.2c0.2,0.1,0.5,0.2,0.4,0.5c-0.1,0.4-0.4,0.2-0.7,0.2c-0.7,0-1.3,0.3-1.9,0.3
	c-1.4,0.2-2.8,0.4-4.1,0.8c-0.8,0.2-1.6,0.5-2.3,1C14.9,27.8,14.5,28.2,14.3,27.6z"/>
<path class="st6" d="M24,19.2c1.5-1,3-1.7,4.8-2c0.3-0.1,0.7-0.3,0.8,0.1c0.1,0.3-0.3,0.4-0.5,0.5c-0.5,0.2-1.1,0.3-1.6,0.5
	c-0.6,0.2-1.1,0.4-1.5,0.9c-0.2,0.1-0.5,0.1-0.4,0.5c0.1,0.3,0.3,0.4,0.6,0.5c0.3,0.1,0.6,0.2,0.5,0.6c-0.2,0.4-0.6,0.4-0.9,0.5
	c-1-0.2-1.9-0.2-2.8,0.1c-0.6,0.2-1.1,0.8-1.8,0.4c-0.4-0.6,0.5-0.7,0.4-1.2c0.1-0.1,0.3-0.2,0.4-0.4c0.5,0,0.8-0.5,1.2-0.7
	C23.4,19.5,23.6,19.3,24,19.2z"/>
<path class="st7" d="M44.6,31.5c-2.4-0.6-4.5-1.9-6.7-2.9c-1-0.5-2-1-2.9-1.6c-0.4-0.1-0.8-0.2-1.2-0.3c-0.6-0.6-1.4-0.9-2-1.5
	c0-0.1,0-0.2,0-0.3c0-0.3,0.2-0.5,0.5-0.5c0.9,0.3,1.5,1.1,2.4,1.4c0.6,0.4,1.1,0.9,1.8,1.1c0.7,0.5,1.5,0.7,2.2,1.1
	c1.5,0.9,3.1,1.7,4.8,2.2c0.4,0.3,0.9,0.5,1.4,0.7c0.2,0.1,0.3,0.3,0.2,0.5C45.1,31.6,44.8,31.5,44.6,31.5z"/>
<path class="st8" d="M45.5,21.7c0.2-0.2,0.2-0.2,0.7,0.2c1.1,0.9,2.4,1.5,3.6,2.3c0.1,0.2,0.3,0.5,0.5,0.6c1.2,1.1,2.4,2.3,3.8,3.2
	c0.6,0.7,1.5,1.1,1.8,2.1c0,0.2-0.1,0.4-0.3,0.5c-0.7,0.2-0.8-0.6-1.2-0.8c-1-1-2-1.8-3.1-2.7c-0.8-0.7-1.5-1.4-2.5-1.9
	c-0.5-0.6-1.1-1.2-1.9-1.6c-0.4-0.5-0.8-0.9-1.1-1.3C45.5,22.1,45.5,21.9,45.5,21.7z"/>
<path class="st9" d="M34.3,17.7c1.3,0,2.4,0.4,3.6,0.9c1.3,0.5,2.6,1.1,3.9,1.6c0.1,0.3,0,0.5-0.3,0.6c-1.1-0.2-2-0.8-3.1-1.2
	c-0.5-0.3-1.1-0.5-1.6-0.6c0.6,0.3,1.5,0.3,2.1,1.1c0,0.2,0,0.3-0.1,0.4c-0.2,0.2-0.5,0.1-0.7,0c-1.3-0.6-2.6-1.2-4-1.5
	c-0.2,0-0.4-0.1-0.4-0.3c0-0.1,0-0.3,0.1-0.4C33.9,17.9,34.2,17.9,34.3,17.7z"/>
<path class="st10" d="M26.3,56.5c0.3-0.3,0.6-0.4,1-0.4c0.8,0.4,0.9,0.5,0.2,1.1c-1.2,1.1-1.8,2.4-2,4c0,0.3-0.1,0.5,0.2,0.6
	c0,0.5,0,1.1,0,1.6c-1.6-1.7-1.6-4.8,0.1-6.4C26,56.9,26.3,56.8,26.3,56.5z"/>
<path class="st11" d="M55.7,64c0.4-0.8-0.3-1.4-0.5-2.2c0.6,0.2,0.9,0.7,1,1.1c0.5,1.3,0.3,2.7,0.1,4.1c0,0.2-0.1,0.4-0.3,0.3
	c-0.2,0-0.2-0.2-0.1-0.4c0.5-1.3-0.3-2.2-1.2-2.9c-0.4-0.4-1-0.6-1.4-0.9C53,63,52.7,63,52.8,62.7c0.1-0.2,0.4-0.3,0.7-0.3
	c0.8,0.1,1.2,0.6,1.7,1.1C55.3,63.6,55.5,63.8,55.7,64z"/>
<path class="st12" d="M62.5,34.3c0.2,0.8,0.3,1.7,0.5,2.5c-0.5-0.1-0.3-0.7-0.6-0.8c-0.2,0.3,0,0.7-0.2,1c-0.3-0.2-0.3-0.5-0.4-0.8
	c-0.2-2.3-1.2-4.2-2.6-6c-0.2-0.3-0.7-0.6-0.3-1c0.2,0,0.4,0,0.6,0.2c0.6,0.1,0.7,0.7,1,1c0.1,0.2,0.2,0.5,0.5,0.4
	c0.2-0.1,0.1-0.3,0.1-0.5s-0.1-0.4,0.1-0.5c0,0,0,0,0.1,0c0,0,0,0,0.1,0c0.1,0.4,0.2,0.9,0.4,1.3C62,32.1,62.5,33.2,62.5,34.3z"/>
<path class="st13" d="M64.9,38.7c-0.8-0.8-1.2-1.8-1.3-2.9c-0.1-1.2-0.4-2.4-0.8-3.6c-0.4-0.6-0.3-1.1,0.2-1.7
	c0.1,0.1,0.1,0.2,0.2,0.4c0.8,0.8,0.9,1.9,1.1,2.9c0,0.5,0.3,1,0.3,1.5c0.2,0.5,0.1,1.1,0.4,1.6c0.1,0,0.1,0.1,0.2,0.1
	c0.1,0.1,0.3,0.2,0.4,0.3c0.1,0.2,0.2,0.3,0.2,0.5C65.7,38.3,65.6,38.8,64.9,38.7z"/>
<path class="st8" d="M33.7,27c-1.8,0-3.5-0.5-5.3-1c-0.6,0-1.1-0.1-1.7-0.3c-0.1,0-0.2,0-0.3,0c-0.4-0.4-1.1-0.4-1.3-1
	c0-0.1,0-0.2,0-0.3c0.1-0.2,0.2-0.4,0.3-0.5c0.1-0.1,0.3-0.1,0.4-0.1c0.6,0.2,1.1,0.9,1.9,0.4c0.4,0,0.8,0,1.1,0.2
	c0.2,0.1,0.3,0.2,0.5,0.3c0.2,0.7,0.9,0.9,1.4,1c0.4,0.1,0.8,0.2,1.2,0.4c0.4,0.1,0.8,0.1,1.1,0.2C33.4,26.5,33.8,26.5,33.7,27z"/>
<path class="st14" d="M45.5,21.7c0.5,0.6,1,1.1,1.5,1.7c-0.3,0.4-0.6,0.1-0.8,0c-0.3-0.1-0.5-0.4-0.8-0.3c-0.1,0.1-0.2,0.2-0.2,0.2
	c-0.5,0.3-0.9,0.1-1.3-0.1c-0.4-0.2-0.8-0.5-1.2-0.7c-0.3-0.3-0.7-0.6-0.8-1c0-0.2,0.1-0.4,0.2-0.5c0.3-0.3,0.7-0.2,1-0.1
	s0.5,0.3,0.9,0.2C44.5,21.1,45,21.5,45.5,21.7z"/>
<path class="st15" d="M58.8,29.1c0.3,0.7,0.9,1.2,1.3,1.8c1.1,1.9,2,3.8,2,6c-0.2-0.1-0.4-0.1-0.6-0.2c0.1-1.5-0.6-2.9-1.2-4.2
	c-0.2-0.7-0.5-1.4-1.2-1.9c-0.5-0.5-0.9-1-1.2-1.5c-0.2-0.7-0.2-0.7,0.3-0.6C58.6,28.6,58.9,28.7,58.8,29.1z"/>
<path class="st16" d="M60.1,36.2c-0.2,0.3,0,0.7-0.5,0.7c-0.3-0.4-0.9-0.2-1.1-0.7c0.3-1-0.7-1.4-1-2c-0.3-0.5-0.7-1-1-1.5
	c-0.2-0.3-0.5-0.5-0.2-0.9c0.4-0.4,0.7-0.2,1,0.2c0.4,0.4,0.7,1,1.1,1.4c0.2,0.1,0.4-0.1,0.6,0c0.1,0,0.2,0.1,0.2,0.1
	c0.2,0.3,0.4,0.7,0.5,1.1c0.1,0.4,0.3,0.8,0.7,1C60.7,35.9,60.8,36.2,60.1,36.2z"/>
<path class="st17" d="M51,63c2.5,0.7,3.9,3.8,2.9,6.3C54,66.6,52.8,64.7,51,63z"/>
<path class="st12" d="M44.6,31.5c0.4-0.2,0.2-0.3-0.1-0.5c-0.4-0.2-0.9-0.3-1.2-0.7C43,29.9,42,30,42.3,29c0.6-0.4,1,0.1,1.5,0.3
	c0.3,0.3,0.6,0.6,1,0.6c0.5,0.1,0.9,0.4,1.3,0.7c0.7,0.5,1.5,1,2.3,1.3c0.2,0.2,0.3,0.4,0.2,0.7c-0.1,0.2-0.2,0.3-0.4,0.2
	C47.2,32.1,45.9,31.8,44.6,31.5z"/>
<path class="st18" d="M21.2,21.9c0.5-0.2,1-0.4,1.6-0.6c0.2-0.2,0.5-0.1,0.7,0c0.1,0.1,0.1,0.2,0.1,0.4c-0.5,0.4-1,0.4-1.6,0.6
	c-0.5,0.1-1,0.2-1.5,0.5s-0.9,0.6-0.8,1.2c-0.4,0.4-0.9,0.9-1.3,1.3c-0.3,0.1-0.5,0.3-0.9,0.1c-0.2-0.2-0.2-0.4-0.2-0.6
	c1-1.1,1.9-2.3,3.1-3.2C20.7,21.5,20.9,21.7,21.2,21.9z"/>
<path class="st7" d="M48.7,63c0.3-0.2,0.7-0.2,1-0.2c-0.5,0.2-0.3,0.5-0.1,0.8c1,1.5,1.1,3.3,0.9,5.1C50,66.7,49.5,64.8,48.7,63z"/>
<path class="st19" d="M64.9,38.7c0.3-0.3,0.6-0.5,0.6-0.9c-0.3-1.5,0-3,0.2-4.5c0.4-0.3,0.5,0,0.5,0.3c-0.1,0.6,0,1.1-0.1,1.5
	c-0.1-0.7,0.2-1.5-0.1-2.3c-0.1-0.2-0.5-0.7,0.2-0.9c0.1,0,0.2,0.1,0.2,0.1c0.8,1.2,0.4,2.5,0.4,3.7c0,0.9-0.5,1.7-0.7,2.6
	c-0.2,0.4-0.1,0.9-0.7,1c-0.2,0-0.4,0-0.5,0C64.9,39.1,64.9,38.9,64.9,38.7z"/>
<path d="M34.3,43.1c0.2,0.3,0,0.4-0.2,0.5c-1.5-1.5-3.1-5.5-2.7-7.1c0.4,0.3,0.3,0.8,0.4,1.1c0.3,1.6,0.8,3.1,1.7,4.5
	C33.7,42.6,33.9,43,34.3,43.1z"/>
<path class="st20" d="M60.1,36.2c0.3-0.2,0.4-0.4,0-0.6c-0.4-0.6-0.3-1.3-0.6-2c-0.1-0.8-0.8-1.3-0.7-2.1c0-0.1,0.1-0.2,0.2-0.2
	c1.1,1.4,1.5,3,2,4.6c0.1,0.3,0,0.8,0.5,1c0,0.1,0,0.2,0,0.3C60.7,37.4,60.5,36.7,60.1,36.2z"/>
<path class="st21" d="M58.3,28.5c-0.4,0.1-0.1,0.5-0.3,0.6c-1.4-1.1-2.8-2.3-4.2-3.5C55.5,26.3,57,27.2,58.3,28.5z"/>
<path class="st22" d="M49.2,69.7c-0.1,0-0.2,0-0.3-0.1c-0.5-0.1-0.7-0.5-0.9-0.9c0.1-0.7-0.3-1.2-0.3-1.9c-0.3-1-1-1.8-0.8-2.9
	C47.8,65.8,48.9,67.6,49.2,69.7z"/>
<path class="st23" d="M48.4,32.8c0.1-0.1,0.2-0.2,0.3-0.2c0.3-0.4,0.6-0.2,0.9,0c1,0.4,1.9,1,2.8,1.5c0.4,0.2,0.8,0.4,1.3,0.5
	c0.5,0.2,1.1,0.3,1.3,0.9c0,0.2-0.1,0.3-0.3,0.2C52.5,35.1,50.5,34,48.4,32.8z"/>
<path class="st24" d="M49.7,24.3c-1.3-0.6-2.5-1.4-3.4-2.5c1.4,0.6,2.7,1.3,4,2.1c0.2,0.2,0.1,0.4-0.2,0.5
	C49.9,24.5,49.8,24.5,49.7,24.3z"/>
<path class="st12" d="M65.9,38.3c0-0.8,0.5-1.3,0.6-2.1c0.3-1.4,0.1-2.8,0-4.2c0.1,0,0.1,0,0.2,0c0.8,1.2,0.8,2.5,0.6,3.7
	c-0.1,0.5-0.1,1-0.3,1.4c-0.1,0.4-0.2,0.8-0.4,1.1C66.3,38.5,66.1,38.8,65.9,38.3z"/>
<path class="st25" d="M64.4,35.4c-0.4-0.5-0.3-1-0.4-1.5c0.1-0.7-0.1-1.4-0.3-2.1c-0.1-0.3-0.3-0.7,0.2-0.9c0.8,0,0.7,0.6,0.8,1.1
	c0.1,1,0.1,2.1,0.2,3.1C64.9,35.3,64.7,35.4,64.4,35.4z"/>
<path class="st26" d="M55,35.5c-0.5-0.2-0.9-0.4-1.3-0.6c-0.2-0.3-0.7-0.3-0.5-0.8c0-0.1,0.1-0.1,0.2-0.2c0.7-0.1,1.1,0.4,1.6,0.5
	c0.6,0.4,1.3,0.6,2.1,0.6c0.3,0.2,0.6,0.4,0.4,0.8c-0.1,0.1-0.1,0.1-0.2,0.2C56.5,36.1,55.7,35.9,55,35.5z"/>
<path class="st27" d="M25.4,24.7c0.5,0.2,1,0.3,1.4,0.7c-0.2,0.5-0.7,0.6-1.2,0.5c-0.7,0-1.3,0-2-0.2c0.1,0,0.3-0.1,0.3-0.1
	c0.1-0.2-0.1-0.2-0.2-0.2c-0.3-0.1-0.5-0.1-0.8-0.2c0-0.2,0.1-0.4,0.3-0.4C23.9,25,24.6,24.5,25.4,24.7z"/>
<path class="st28" d="M66.7,37.2c0.5-1.7,0.6-3.4,0-5.2c1,0.3,0.6,1.2,0.8,1.9c0.2,0.7,0,1.6,0.4,2.2c-0.1,0.7-0.3,1.4-0.9,1.8
	C66.2,38,66.7,37.5,66.7,37.2z"/>
<path class="st14" d="M63,30.5c-0.4,0.5-0.1,1.1-0.2,1.7c-0.3,0.3-0.5,0.6-0.3,1.1c0.2,0.4,0,0.7-0.1,1.1c-0.4-1-0.7-2.1-0.8-3.2
	c0.8-0.2,0.2,0.6,0.5,0.7C62.4,31.3,62.4,30.7,63,30.5z"/>
<path class="st29" d="M68.4,35.2c0.1-0.5-0.1-1.1,0.3-1.8c0.2,2.4-0.5,4.3-1.5,6.1c-0.2-0.2-0.1-0.4-0.1-0.5
	c-0.1-0.2-0.2-0.4-0.1-0.5C67.5,37.5,67.7,36.2,68.4,35.2z"/>
<path class="st7" d="M45.8,63.2c0.1,0,0.2,0,0.3,0c0,1.4,0.6,2.5,1.3,3.6c0,0.2-0.1,0.3-0.3,0.3c-1.4-0.5-2.2-1.9-1.8-3.5
	C45.4,63.4,45.6,63.3,45.8,63.2z"/>
<path class="st30" d="M19,44.6c0.3,0.4,0.5,0.9,0.9,1.2c0.2,0.2,0.7,0.3,0.4,0.7c-0.4,0.5-0.6,0.1-0.9-0.2c-0.4-0.9-1.1-1.6-1.3-2.6
	c0-0.2-0.3-0.3,0-0.5c0.4-0.1,0.5,0.2,0.5,0.4C18.7,44,18.8,44.3,19,44.6z"/>
<path class="st31" d="M66.8,37.9c0.3-0.5,0.6-1.1,0.7-1.7c-0.2-0.8,0-1.7,0.1-2.5c-0.1-0.3-0.1-0.7-0.2-1.2c0.6,0.5,0.5,1,0.6,1.4
	c0.4,1.8-0.1,3.3-1.1,4.8c-0.1,0.2-0.3,0.4-0.6,0.5c-0.4,0-0.4-0.3-0.2-0.6C66.3,38.3,66.5,38,66.8,37.9z"/>
<path class="st32" d="M64.7,35.1c-0.1-1-0.4-2.1,0.1-3.1c0.1,0,0.1,0,0.2,0.1c0.7,0.7,0.4,1.5,0.5,2.3c-0.1,0.8-0.1,1.6-0.2,2.4
	c0,0.4-0.1,0.8-0.5,1c-0.1-0.1-0.1-0.3-0.2-0.4C64.7,36.6,64.4,35.8,64.7,35.1z"/>
<path class="st12" d="M31.6,59c0,0.3-0.2,0.5-0.4,0.6c-1.2,0.5-2.4,1-3.2,2.1C28.8,60.2,30,59.2,31.6,59C31.7,59,31.6,59,31.6,59z"
	/>
<path class="st33" d="M47,45c-0.4,0-0.8,0-0.4-0.6c0.8-0.5,0.8-1.4,1.1-2.2c0.2-0.7,0.3-1.5,0.5-2.2C48.3,41.8,47.8,43.4,47,45z"/>
<path class="st34" d="M66.3,39.1c1.6-1.4,1.8-3.2,1.8-5.2c0.1,0.4,0.2,0.9,0.3,1.3c-0.1,1.4-0.9,2.6-1.3,3.8
	c-0.4,0.2-0.7,0.6-1.2,0.3C65.8,39.1,66.2,39.2,66.3,39.1z"/>
<path class="st35" d="M58.8,63.7c-0.6-0.9-1.3-1.3-1.9-1.7c-0.2-0.1-0.4-0.2-0.3-0.4c0.1-0.2,0.3-0.2,0.6-0.2
	C57.9,61.5,58.7,62.5,58.8,63.7z"/>
<path class="st36" d="M61.3,29.7c-0.5,0.6,0,1.3-0.2,2.2c-0.6-0.9-1.2-1.8-1.7-2.6c0.9-0.3,0.9,0.7,1.3,1
	C61.1,30.3,60.7,29.5,61.3,29.7z"/>
<path class="st37" d="M66.3,31.9c0.1,1.2,0.2,2.4-0.1,3.8c-0.2-1,0.1-1.8-0.3-2.6c-0.8-0.3-0.3-1.1-0.6-1.7
	C65.8,31.1,65.8,31.1,66.3,31.9z"/>
<path class="st38" d="M54.7,48.8c-0.3-0.2-0.5-0.4-0.8-0.6c1.4,0.1,2.4-0.6,3.4-1.5c-0.1,0.8-0.4,1.1-1.3,1.5
	C55.5,48.4,54.9,48.2,54.7,48.8z"/>
<path class="st39" d="M25.6,40.4c0.3,0.4,0.2,0.8-0.2,1c-0.7-0.8-1.2-1.6-1-2.7c0.3,0.6,0.6,1.2,0.9,1.7
	C25.3,40.7,25.5,40.8,25.6,40.4z"/>
<path class="st40" d="M31.9,41.8c-0.1,0.1-0.1,0.3-0.2,0.4c-0.8-1.2-1-2.6-1.1-4C30.9,39.4,31.3,40.6,31.9,41.8z"/>
<path class="st41" d="M42.5,42c-0.3,0-0.6,0.1-0.7,0.4c-0.1-1-0.2-2-0.3-3c0-0.3-0.3-0.6,0.2-0.8c0.1,0.7,0.2,1.5,0.3,2.2
	c0.2,0.2,0.4,0.3,0.5,0.5C42.5,41.5,42.5,41.7,42.5,42z"/>
<path class="st29" d="M65.4,31.5c0.5,0.4,0.3,1.1,0.6,1.7c0,1.5,0.2,3.1-0.4,4.6c-0.1-0.1-0.1-0.2-0.2-0.4c-0.2-0.8,0-1.5,0-2.2
	c0.1-0.7,0.1-1.4,0-2.1c-0.1-0.5-0.1-0.9,0-1.4C65.4,31.6,65.4,31.5,65.4,31.5z"/>
<path class="st39" d="M18.7,41.8c0.3,0.7,0.6,1.4,0.2,2.1c-0.7-0.2-0.4-0.9-0.6-1.3c-0.1-0.6-0.2-1.2-0.4-1.9
	C18.5,40.9,18.2,41.5,18.7,41.8z"/>
<path class="st42" d="M54.3,47c1-0.5,1.9-1.3,2.5-2.4C56.8,46,55.8,47,54.3,47z"/>
<path class="st43" d="M57.5,35.8c-0.2-0.2-0.4-0.4-0.6-0.6c-0.4,0-0.7-0.2-0.9-0.6c0-0.2,0.1-0.4,0.2-0.5c1,0.2,1.8,0.8,2.3,1.6
	c0,0.1,0,0.3,0,0.4c0.2,0.3,0.8,0.2,1,0.8C58.7,36.9,58.1,36.3,57.5,35.8z"/>
<path class="st44" d="M17.3,24.9c0.1,0.1,0.1,0.3,0.2,0.4c0.1,0.2,0.2,0.4,0,0.6c-0.8,0.1-1.3,0.8-2.1,0.9
	C16,26.2,16.7,25.5,17.3,24.9z"/>
<path class="st45" d="M65.3,31.6c0.2,0.4,0.2,0.9,0.2,1.3c0.2,0.8,0.1,1.5,0.1,2.4c-0.6-0.3-0.2-0.8-0.4-1C65.1,33.5,65,32.8,65,32
	C65.1,31.9,65.2,31.8,65.3,31.6z"/>
<path class="st46" d="M64,30.9c-0.2,0.4-0.1,0.7,0,1.1c0.2,0.6,0.3,1.3,0,1.9c-0.3-1-0.5-2-0.8-3C63.5,31.1,63.7,30.4,64,30.9z"/>
<path class="st47" d="M58.5,52.1c-0.1-0.2-0.3-0.4-0.4-0.5c1.3,0.1,2.4-0.3,3.4-1.4c-0.3,0.9-0.8,1.3-1.8,1.6
	C59.2,51.8,58.8,51.7,58.5,52.1z"/>
<path class="st48" d="M43.9,21.1c-0.6,0.3-1.2-0.2-1.7,0.1c-0.5,0-0.8,0-0.7-0.6c0.1-0.1,0.2-0.2,0.4-0.4
	C42.5,20.4,43.2,20.7,43.9,21.1z"/>
<path class="st49" d="M50,24.4c0.1-0.1,0.2-0.3,0.2-0.4c0.1,0,0.1,0.1,0.2,0.2c1,0.7,2,1.4,2.9,2.1c0,0.1-0.1,0.3-0.2,0.3
	C51.9,26.1,50.7,25.5,50,24.4z"/>
<path class="st50" d="M67.7,33.7c0.3,0.8,0.1,1.7-0.1,2.5c-0.5-0.7-0.4-1.5-0.1-2.3C67.5,33.8,67.6,33.8,67.7,33.7z"/>
<path class="st51" d="M22.3,38.1c-0.3,0.5-0.1,1.2-0.2,1.8c-0.4-1.2-0.2-2.5,0.2-3.7c0,0.3,0,0.6,0,0.9S22.3,37.8,22.3,38.1z"/>
<path class="st52" d="M66.3,39.1c-0.1,0.1-0.3,0.2-0.4,0.3c-0.2,0-0.3,0-0.4-0.1c0.1-0.3,0.2-0.7,0.4-1c0.7-0.1,0.4-0.8,0.8-1.1
	c0.1,0.2,0.1,0.5,0.2,0.7C66.8,38.3,66.1,38.5,66.3,39.1z"/>
<path class="st53" d="M24,19.2c-0.7,0.4-1.1,1.3-2.1,1.1c0.4-0.5,1-0.8,1.6-1.2C23.7,19.1,23.9,18.9,24,19.2z"/>
<path class="st54" d="M47.2,67c0.1-0.1,0.2-0.2,0.2-0.2c0.1,0,0.2,0.2,0.4,0c0.4,0.5,0.6,1.1,0.7,1.8C47.6,68.7,47,68,47.2,67z"/>
<path class="st55" d="M30.2,42.2c-0.1-0.1-0.1-0.1-0.2-0.2c0-0.8-0.6-1.4-0.5-2.5c0.5,1,0.9,1.9,1.2,2.7
	C30.5,42.3,30.3,42.3,30.2,42.2z"/>
<path class="st56" d="M30.2,42.2c0.1,0,0.3,0,0.5,0c0.4,0.5,0.8,1,1.2,1.5C31.1,43.4,30.5,43,30.2,42.2z"/>
<path class="st57" d="M33.7,27c-0.2-0.3-0.5-0.2-0.7-0.4c0.2-0.7,0.6-0.3,1-0.2c0.4,0.1,0.7,0.3,1,0.6C34.6,27.2,34.2,27,33.7,27z"
	/>
<path class="st48" d="M42.5,41.2c-0.4,0.1-0.6-0.1-0.5-0.5c0.3-0.5,0.3-1.1,0.5-1.6C42.5,39.8,42.5,40.5,42.5,41.2z"/>
<path class="st58" d="M60.3,60.3c0.2-0.1,0.4,0,0.6-0.2c0.5,0.1,1.1,0.1,1.8,0.5C61.8,60.8,61,60.6,60.3,60.3z"/>
<path class="st59" d="M21.2,21.9c-0.3,0.1-0.5-0.1-0.8-0.2c0.3-0.4,0.7-0.7,1.1-1C21.9,21.2,21.1,21.4,21.2,21.9z"/>
<path class="st33" d="M25.5,25.9c0.4-0.2,0.8-0.3,1.2-0.5v0.1c0.1,0.1,0.3,0.2,0.5,0.2s0.5,0,0.4,0.3c-0.1,0.2-0.4,0.1-0.6,0.1
	C26.5,26.1,26,26.1,25.5,25.9z"/>
<path class="st60" d="M55,35.5c0.8,0.2,1.5,0.4,2.3,0.6c-0.9,0.3-1.7-0.1-2.5-0.4C54.8,35.6,54.9,35.5,55,35.5z"/>
<path class="st61" d="M27.1,26.1c0-0.1,0.5,0,0.1-0.2c-0.2-0.1-0.4-0.2-0.5-0.4c0.7-0.1,1.2,0.3,1.8,0.5
	C28,26.1,27.5,26.4,27.1,26.1z"/>
<path class="st62" d="M18.3,42.5c0.2,0.5,0.4,0.9,0.6,1.3c0.1,0.2,0.1,0.5,0.2,0.8c-0.5-0.3-0.5-1-1-1.3
	C18.2,43,18.2,42.8,18.3,42.5z"/>
<path class="st63" d="M19,41c-0.2,0.2-0.1,0.6-0.4,0.8c0.1-0.6-0.1-1.3,0.1-2.1C19,40.2,19.1,40.6,19,41z"/>
<path class="st49" d="M41.8,38.5c-0.1,0.2-0.1,0.5-0.2,0.8c-0.2-0.6-0.2-1.2-0.1-1.9C41.8,37.8,41.8,38.2,41.8,38.5z"/>
<path class="st64" d="M46.8,43.3c0-0.2-0.1-0.4-0.2-0.6c0.1-0.6,0.2-1.2,0.2-1.7C47,41.8,47.2,42.5,46.8,43.3z"/>
<path class="st65" d="M45.7,41.2c-0.1-0.3,0-0.7-0.2-1c0.1-0.3,0.1-0.7,0.6-0.9C45.9,40,45.8,40.6,45.7,41.2z"/>
<path class="st66" d="M47.3,55.5c0.5,0.7,0.9,1.3,1.3,2c0.3,0.4,0.2,0.7-0.2,1c-1.6,1.3-5.2,1.4-6.9,0.1c-0.3-0.2-0.3-0.4-0.2-0.6
	c0.7-1,1.5-2.1,2.2-3.1c0.1-0.1,0.2-0.2,0.3-0.1c0.9,0.4,1.7,0,2.5-0.1C47.2,54.6,47.5,54.8,47.3,55.5z"/>
<path class="st67" d="M45.8,63.2c0,0.1,0,0.3-0.1,0.4c-0.3,0.2-0.7,0.3-1.1,0.4c-0.7,0.4-1,1.5-0.8,2.7c0.1,0.4,0.3,0.9,0.1,1.4
	c-0.4,0.2-0.7,0.6-1.2,0.7c-0.6,0.1-1.2,0-1.1-0.9c0-0.5,0-0.9,0-1.4c0.1-1.1,0.6-2,1.3-2.8c0.2-0.3,0.5-0.4,0.9-0.4
	C44.4,63.2,45.1,63.2,45.8,63.2z"/>
<path class="st68" d="M40.3,55c0.8,0.1,1.3-0.5,2-0.8c0.4-0.2,0.7-0.2,1,0.2S43.2,55,43,55.2c-0.7,0.8-1.2,1.6-1.6,2.6
	c-0.1,0.2,0,0.6-0.4,0.5c-0.3-0.1-0.4-0.3-0.3-0.6c0.2-0.6-0.2-0.5-0.6-0.5c-0.6,0-0.8-0.2-0.4-0.8C39.3,55.3,39.4,55.2,40.3,55z"/>
<path class="st68" d="M44.3,51.7c-1.3,0-2.2-0.6-2.1-1.3c0.1-0.7,0.2-1.3,1.2-1.3c1.1,0.1,1.9,0.6,1.9,1.2
	C45.2,51.3,44.8,51.8,44.3,51.7z"/>
<path class="st69" d="M47.3,55.5c-0.2-0.3-0.5-0.6-0.8-0.8c0-0.5,0.5-0.5,0.6-0.7c0.5-0.2,1-0.3,1.1,0.4c0.5,0.5,1.3,0.5,1.8,0.9
	c0.3,0.2,0.8,0.3,0.6,0.7c-0.2,0.5-0.6,0.2-0.9,0.1c-0.1,0-0.2,0-0.3,0c0,0.1-0.1,0.1-0.1,0.2c0.1,0.3,0.6,0.7,0.2,1
	c-0.5,0.3-0.7-0.3-1-0.6C48.4,56.2,48.1,55.5,47.3,55.5z"/>
<path class="st70" d="M25.7,61.8c-0.1,0.2-0.2,0.5-0.3,0.8c-0.5-1.8-0.3-3.4,1-4.7c0.3-0.3,0.6-0.7,0.9-0.9c0.5-0.4,0.4-0.6,0-0.9
	c0.6,0,1.2-0.2,1.6,0.6c-1.7,0.5-2.5,1.8-2.5,3.5C26.3,60.8,25.7,61.2,25.7,61.8z"/>
<path class="st71" d="M48.3,54.4c-0.4-0.1-0.8-0.3-1.1-0.4c0-0.3,0.2-0.5,0.4-0.8c0.6-0.2,1.2-0.1,1.8,0c0.4-0.1,0.8,0,1.2,0.1
	c1.2,0.3,1.3,0.5,0.8,1.5c-0.2,0.4-0.4,0.1-0.6,0C50,54.6,49.2,54.3,48.3,54.4z"/>
<path class="st72" d="M40.3,55c-0.3,0.4-0.5,0.8-0.5,1.3c-0.2-0.4-0.8-0.2-1-0.6c-0.3-0.6,0-1,0.2-1.6l0,0c1,0,1.9-0.7,2.9-0.8
	c0.2,0,0.3-0.1,0.6,0C41.7,54,40.8,54.3,40.3,55z"/>
<path class="st73" d="M38.9,54.2c-0.8,0.2-0.9,0-0.9-1.3c0.7-0.4,1.5-0.5,2.3-0.4c0.6-0.1,1.2-0.1,1.9-0.2
	C41.1,53,39.9,53.3,38.9,54.2L38.9,54.2z"/>
<path class="st74" d="M49.4,53.2c-0.6,0-1.2,0-1.8,0c0.1-0.2,0.1-0.5,0.2-0.8c0.2-0.3,0.5,0,0.8-0.2c0.9-0.1,1.8-0.3,2.7-0.2
	c0.4,0,0.7,0.1,0.6,0.6c-0.1,0.5-0.4,0.3-0.7,0.2c-1-0.3-2-0.3-3.1,0C48.6,53.1,49,53.1,49.4,53.2z"/>
<path class="st74" d="M38.4,52.5C38.3,52.3,38,52.3,38,52c0.1-0.3,0.3-0.3,0.5-0.3c1-0.1,2-0.2,3,0.1c-0.5,0.2-1.1,0.3-1.6,0.5
	C39.4,52.6,38.9,52.9,38.4,52.5z"/>
<path class="st75" d="M47.6,51.5c-0.2-0.6,0-1,0.7-0.9c0.4,0,0.8,0,1.4,0c-0.6,0.3-1,0.5-1.5,0.7C48.1,51.5,47.9,51.8,47.6,51.5z"/>
<path class="st76" d="M41.5,49.9c-0.1,0.3,0,0.8-0.5,0.8c-0.3,0-0.5-0.2-0.5-0.5c0-0.4,0.2-0.7,0.6-0.8
	C41.4,49.3,41.5,49.6,41.5,49.9z"/>
<path class="st77" d="M47.6,51.5c0.2-0.1,0.5-0.1,0.7-0.2c0,0.4,0.4,0.4,0.8,0.5c-0.2,0.1-0.4,0.2-0.6,0.3c0,0,0,0,0,0.1
	c0,0,0,0,0.1,0.1c-0.2,0.2-0.5,0.2-0.8,0.2C47.5,52.2,47.6,51.8,47.6,51.5z"/>
<path class="st40" d="M38.4,52.5c0.6,0.3,1-0.2,1.5-0.2c0.1,0.1,0.3,0.1,0.4,0.2c-0.8,0.3-1.5,0.3-2.3,0.4
	C38.1,52.7,38.2,52.6,38.4,52.5z"/>
<path class="st31" d="M33.8,68.7c0.1-1.1-0.2-2.2,0.2-3.3c0.4-1.2,1-2.3,2-3.2c0.2-0.1,0.3-0.4,0.6-0.1c0.2,0.2,0,0.4-0.1,0.5
	c-0.3,0.4-0.5,0.7-0.8,1c-0.9,0.9-1.3,2-1.2,3.3c-0.1,0.4-0.1,0.9,0,1.4c0,0.3,0.2,0.7-0.3,0.7C34,68.9,34,68.8,33.8,68.7z"/>
<path class="st67" d="M44.5,63.6c0.4-0.3,0.8-0.2,1.2,0c-0.5,1.6,0.7,2.4,1.5,3.4c0.4,0.5,0.6,1.3,1.3,1.5c0,0.4,0.2,0.8,0.4,1.1
	c-0.7,0.3-1-0.5-1.6-0.6c-0.9-0.2-1.8-0.4-2.7-0.8c-0.7-0.2-0.8-0.9-0.8-1.4C43.7,65.7,43.7,64.5,44.5,63.6z"/>
<path class="st78" d="M53.1,26.4c0.1-0.1,0.2-0.1,0.2-0.2c1.8,0.9,3.2,2.3,4.5,3.7c0,0.2,0,0.3-0.2,0.3c-0.8-0.1-1.3-0.8-1.9-1.3
	c-0.5-0.5-1.1-1-1.7-1.3C53.9,27.2,53.2,27,53.1,26.4z"/>
<path class="st79" d="M59.2,30.7c0.9,0.3,1.2,1,1.2,1.9C60,31.9,59.6,31.3,59.2,30.7z"/>
<path class="st80" d="M57.7,30.1c0.1-0.1,0.1-0.1,0.2-0.2c0.5,0.4,0.9,0.9,1.2,1.4c0,0.1,0,0.2,0,0.3C58.3,31.3,57.7,30.9,57.7,30.1
	z"/>
<path class="st81" d="M25.4,24.7c-0.4,0.5-1,0.3-1.5,0.3c-0.3,0-0.6-0.3-1,0c-0.2,0-0.5,0-0.7,0.1c-0.3,0-0.6,0-0.5-0.4
	c0.1-0.3,0.4-0.3,0.7-0.4c0.7-0.2,1.5-0.2,2.2-0.5c0.1,0,0.2,0,0.3,0c0.4,0,0.5,0.3,0.6,0.6C25.4,24.6,25.4,24.7,25.4,24.7z"/>
<path class="st82" d="M21.8,24.8c0.1,0.2,0.2,0.3,0.4,0.4c-1.6-0.2-3.1,0.4-4.7,0.7c0-0.2,0-0.4,0-0.6c0.3-0.1,0.5-0.1,0.8-0.2
	c0.4-0.1,0.6-0.4,1-0.5c0.1,0,0.3,0,0.4,0c0.4,0,0.9,0,1.3-0.1C21.3,24.5,21.6,24.4,21.8,24.8z"/>
<path class="st11" d="M25.4,19c0.3,0,0.6,0,0.9-0.2c2.5-1.2,5.1-1.2,7.7-0.6c-0.1,0.1-0.2,0.1-0.3,0.2c-0.1,0.2-0.3,0.3-0.6,0.3
	c-1.2-0.2-2.4-0.4-3.6-0.2c-0.5,0.3-1,0.2-1.4,0.3c0.8,0,1.6-0.5,2.5-0.4c0.4,0,0.7,0,1.1,0c0.9,0.7,1.8,1.5,3.1,1
	c0.2,0.1,0.5,0.1,0.6,0.4c0.1,0.1,0.1,0.3,0,0.5c-0.2,0.5-0.8,0.5-1.1,0.8c-0.3,0.2-0.6,0-0.8-0.1c-0.3-0.2-0.7-0.5-1.1-0.6
	c-0.3-0.3-0.7-0.5-1.1-0.6c-0.5-0.2-0.8,0-0.9,0.5c-0.4,0.5-0.9,0-1.3,0.2c-0.5,0.6-1.1,0.3-1.7,0c-0.4-0.2-0.7-0.3-1.1-0.2
	c-0.6,0.1-1.1,0-1.5-0.4C24.8,19.4,25.1,19.2,25.4,19z"/>
<path class="st83" d="M23.2,21.5c-0.2-0.1-0.3-0.1-0.5-0.2c0.3-0.5,0.8-0.5,1.2-0.4c0.6,0.1,1.2,0,1.8,0.2c0.6,0,1.3-0.4,1.9,0.2
	c0.1,0.1,0.1,0.2,0,0.3c-1.2,0.5-2.4,0.5-3.7,0.1C23.8,21.6,23.5,21.4,23.2,21.5z"/>
<path class="st84" d="M24.8,19.8c0.4,0.1,0.9,0.1,1.3,0.2c0.9-0.1,1.5,0.4,2.2,0.8c0,0.2-0.1,0.3-0.3,0.4c-0.5,0.1-1-0.1-1.5-0.4
	c-0.4-0.1-0.8-0.2-1.2-0.3C25,20.3,24.7,20.3,24.8,19.8z"/>
<path class="st85" d="M26.5,20.7c0.5,0.1,1,0.1,1.5,0.2c0.5-0.1,1-0.2,1.6-0.1c0.4,0.1,0.7,0.2,0.8,0.5c0,0.3-0.1,0.4-0.4,0.5
	c-0.1,0-0.2,0-0.3,0c-0.7-0.2-1.5-0.2-2.1-0.6c-0.6-0.1-1.3-0.2-1.9-0.3C26,20.9,26.2,20.8,26.5,20.7z"/>
<path class="st18" d="M26,24.2c-0.1,0-0.3,0-0.4,0s-0.2-0.1-0.3-0.1c-0.1,0-0.2,0-0.3,0c-0.1,0-0.2,0.1-0.4,0.1c-0.3,0.1-0.6,0-1,0
	c-0.9-0.1-1-0.2-0.5-0.9c0.5-0.1,1,0,1.5-0.3c0.8,0.1,1.6,0.2,2.4,0.3c0.3,0.1,0.6,0.2,1,0.2c1.6,0.1,3.3-0.2,4.9,0.4
	c1.2,0.4,2.2,1.1,3.4,1.5c0.7,0.4,1.5,0.7,2.2,1.1c0.5,0.4,1,0.8,1.5,1.1c0.3,0.1,0.5,0.3,0.5,0.6c-0.1,0.2-0.2,0.3-0.4,0.3
	c-1-0.2-1.8-0.9-2.7-1.3c-1-0.9-2.2-1.1-3.3-1.7c-0.5-0.3-1-0.5-1.5-0.8c-0.2,0.1-0.3,0.2-0.4,0.4c-0.6,0.1-1.2,0.1-1.8,0
	c-0.6-0.3-1.2-0.7-1.9-0.7c-0.5,0.1-1.1-0.3-1.6,0C26.5,24.3,26.2,24.1,26,24.2z"/>
<path class="st86" d="M39.9,28.2c0.1,0,0.2-0.1,0.3-0.1c0.1-0.1,0.2-0.2,0.4-0.2c0.6,0.2,1.1,0.6,1.7,0.8c0.2,0.1,0.2,0.3,0.1,0.5
	c0.2,0.5,0.9,0.6,1,1.2c-0.2,0-0.4,0.1-0.5,0.1c-1.5-0.6-2.9-1.3-4.3-2.2C39,27.7,39.4,28.4,39.9,28.2
	C39.8,28.2,39.9,28.2,39.9,28.2z"/>
<path class="st87" d="M32.5,24.5c1.7,0.6,3.5,1,5,2.3c-0.3,0.4-0.7,0.1-1,0c-0.7-0.2-1.1-0.8-1.9-0.7C33.9,25.5,33,25.3,32.5,24.5z"
	/>
<path class="st88" d="M34.5,26.1c0.5-0.4,0.8,0.1,1.2,0.2c0.6,0.2,1.1,0.4,1.7,0.6c0.9,0.4,1.7,0.9,2.5,1.3h-0.1
	c-0.9,0-1.7-0.5-2.5-0.8c-0.3-0.1-0.6-0.2-0.9-0.4C35.8,26.7,35.2,26.4,34.5,26.1z"/>
<path class="st89" d="M34,26.4c-0.3,0.1-0.7,0.2-1,0.2c-0.4,0-0.8,0-1.1-0.2c-0.2-0.2-0.2-0.7-0.7-0.6c-0.2,0-0.4-0.2-0.4-0.5
	c0.4-0.4,0.8-0.5,1.2-0.2C32.8,25.4,33.4,25.9,34,26.4z"/>
<path class="st90" d="M32.1,25.1c-0.4,0.1-0.8,0.2-1.2,0.3c-0.8,0.5-1.2,0-1.7-0.5c-0.1,0-0.3-0.1-0.4-0.2s0-0.3,0.1-0.4
	c0.5-0.3,0.9,0.2,1.3,0.3c0.6,0,1.3-0.2,1.9,0.2C32.1,25,32.1,25.1,32.1,25.1z"/>
<path class="st91" d="M36.4,27c1.2,0.1,2.2,0.9,3.4,1.2c0,0.1,0.5,0.3,0,0.3c-0.4,0-0.8-0.3-1.3-0.3C37.8,27.8,37,27.6,36.4,27z"/>
<path class="st92" d="M56.3,31.8c0.1,0.2,0.3,0.5,0.4,0.7c0,0.2-0.1,0.4-0.2,0.5c-0.1,0-0.2,0-0.3,0c-0.8-0.7-1.3-1.8-2.1-2.5
	c-0.5-0.5-0.9-1-1.4-1.5c-0.3-0.2-0.5-0.5-0.4-0.9c0.2-0.3,0.4-0.1,0.7,0.1c0.5,0.4,1,0.9,1.6,1.2c0.3,0.3,0.7,0.6,1,0.9
	C56,30.7,56.5,31.1,56.3,31.8z"/>
<path class="st93" d="M53.8,28.2c-1.3-1.1-2.6-2.2-3.8-3.3c0.3-0.2,0.5,0,0.7,0.1c1.3,0.7,2.4,1.6,3.5,2.5c0.2,0.3,0.8,0.4,0.4,0.9
	C54.2,28.6,54,28.2,53.8,28.2z"/>
<path class="st94" d="M53.8,28.2c0.3,0.1,0.6,0.1,0.9,0.2c1.1,0.1,1.6,1.1,2.3,1.7c0.1,0.1,0.2,0.3,0.2,0.4c0.1,0.3,0.4,0.5,0.3,0.8
	c-0.4,0.5-0.8,0.2-1.1,0c-0.2-0.4-0.7-0.7-0.7-1.2C55.1,29.3,54.3,28.8,53.8,28.2z"/>
<path class="st95" d="M54,27.6c-1-0.8-2.1-1.5-3.1-2.3c-0.3-0.2-0.6-0.5-1-0.5c-0.1-0.2-0.2-0.4-0.2-0.5c0.1,0,0.2,0,0.3,0
	c1,0.7,2.1,1.4,3.1,2c0.4,0.3,0.9,0.5,1.2,1C54.2,27.5,54.2,27.6,54,27.6z"/>
<path class="st96" d="M44.4,22.1c1,0.1,1.7,1,2.7,1.3c0.7,0.5,1.4,0.9,1.8,1.6c-0.1,0.1-0.2,0.2-0.4,0.2c-0.9-0.2-1.4-1-2.3-1.3
	C45.6,23.3,44.9,22.8,44.4,22.1z"/>
<path class="st97" d="M55.6,30.1c0.3,0.3,0.6,0.5,0.9,0.8c0.3,0.4,0.7,0.7,1.1,1c0.4,0.5,0.9,1,0.9,1.7c0,0.1-0.1,0.2-0.2,0.2
	c-0.5-0.3-0.7-0.9-1-1.3c-0.2-0.3-0.5-0.6-0.9-0.6c-0.3-0.5-0.6-1-0.9-1.5C55.5,30.3,55.5,30.2,55.6,30.1z"/>
<path class="st15" d="M48.5,24.9c0.1,0,0.3,0,0.4,0c1,0.4,1.7,1.2,2.5,1.9c-0.1,0.2-0.2,0.3-0.4,0.4c-0.9-0.4-1.6-1.1-2.3-1.7
	C48.5,25.4,48.4,25.2,48.5,24.9z"/>
<path class="st98" d="M51,27c0.1,0,0.2-0.1,0.4-0.1c1.1,0.8,2.2,1.6,3.1,2.6c-0.9-0.2-1.3-1.1-2.1-1.3C51.6,28.2,51.2,27.9,51,27z"
	/>
<path class="st31" d="M35.3,20c-0.2-0.1-0.3-0.1-0.5-0.2c-0.6-0.1-1.3,0.2-1.7-0.6c0.4-0.6,1-0.3,1.4-0.2c1.2,0.2,2.4,0.7,3.6,1.1
	c0.2,0.1,0.5,0.1,0.7,0.2c0.3-0.3,0.6-0.3,0.9,0c0.4,0.4,1,0.6,1.2,1.2c0,0.2-0.1,0.3-0.2,0.4c-0.8,0-1.4-0.5-2.1-0.8
	c-1-0.3-1.9-0.6-2.9-0.9C35.5,20.2,35.4,20.1,35.3,20z"/>
<path class="st99" d="M38.1,20.1c-0.5,0.1-1-0.2-1.5-0.4c-1.2-0.4-2.4-0.5-3.6-0.7c-0.2,0-0.3,0-0.4-0.2c0-0.3,0.3-0.3,0.5-0.4
	c0.2,0,0.3,0,0.5,0C35.2,18.9,36.8,19.2,38.1,20.1z"/>
<path class="st94" d="M41.4,20.5c0.2,0.2,0.5,0.4,0.7,0.6c-0.1,0.1-0.1,0.1-0.2,0.2c0.1,0.2,0.2,0.4,0,0.5s-0.5,0.1-0.7-0.1
	c-0.7-0.8-1.6-1.3-2.5-1.9c-0.1-0.2-0.5-0.1-0.4-0.5C39.5,19.5,40.4,20.1,41.4,20.5z"/>
<path class="st100" d="M38.8,19.8c0.9,0.4,1.7,1,2.5,1.6c0.2,0.2,0.5,0.6,0.8,0c0.3,0.3,0.5,0.5,0.8,0.8c0,0.1,0,0.2-0.1,0.3
	c-0.1,0.2-0.2,0.3-0.4,0.3c-0.6-0.3-1.2-0.6-1.5-1.3c-0.7-0.4-1.1-1.1-2-1.2C38.9,20.2,38.8,20.1,38.8,19.8
	C38.7,19.9,38.7,19.9,38.8,19.8C38.7,19.8,38.7,19.8,38.8,19.8z"/>
<path class="st101" d="M65.2,34.3c0.1,0.2,0.1,0.3,0.2,0.5c0.1,0,0.1,0,0.2,0c0-0.6,0-1.3,0-1.9c0.3,1.5,0.2,3-0.2,4.4
	c-0.2,0.2-0.2,0.6-0.6,0.4C65.1,36.6,64.8,35.4,65.2,34.3z"/>
<path class="st101" d="M64.7,35.1c-0.1,0.8,0.3,1.5-0.1,2.3c-0.2-0.6-0.1-1.3-0.2-1.9C64.5,35.3,64.6,35.2,64.7,35.1z"/>
<path class="st102" d="M29.2,24.9c0.6,0,1.1,0.3,1.7,0.5c0.3,0.1,0.7,0.1,1,0.2c0.2,0.1,0.5,0,0.5,0.2s-0.1,0.5-0.4,0.6
	c-0.9-0.1-1.8-0.5-2.6-0.7C28.7,25.5,28.7,25.2,29.2,24.9z"/>
<path class="st103" d="M26,24.2c0.3,0,0.5-0.1,0.8-0.1c0.4,0,0.9-0.1,0.9,0.5c0,0.2,0.2,0.5-0.2,0.4C26.9,24.8,26.3,24.7,26,24.2z"
	/>
<path class="st80" d="M27.6,24.5c-0.3-0.2-0.6-0.4-0.9-0.5c0.5-0.6,1,0.2,1.5,0c0.2,0.2,0.8,0,0.7,0.5c-0.1,0.1-0.1,0.1-0.2,0.2
	C28.4,24.7,28.1,24.4,27.6,24.5z"/>
<path class="st102" d="M24.8,24c0.1-0.1,0.2-0.1,0.3-0.2c0.1,0.1,0.2,0.1,0.3,0c0.2,0,0.3,0.1,0.2,0.4c0,0.1-0.1,0.2-0.1,0.4
	c-0.2-0.2-0.4-0.3-0.7-0.4C24.7,24.1,24.7,24,24.8,24z"/>
<path class="st5" d="M42.6,22.2c0.1,0,0.1,0,0.2,0c0.5,0.1,0.7,0.4,1.1,0.6c0.2,0.1,0.3,0.4,0.6,0.5c1,0.2,1.6,0.9,2.3,1.6
	c0.2,0.2,0.4,0.4,0.7,0.6c0.8,1.1,1.8,1.9,2.8,2.8c0.5,0.6,1.1,1.2,1.8,1.5c0.2,0.1,0.4,0.1,0.7,0.1c1.2,1.2,2.5,2.2,3.5,3.6
	c0.2,0.2,0.4,0.4,0.2,0.7c-0.1,0.1-0.1,0.2-0.2,0.3c-0.1,0.2-0.2,0.1-0.3,0.1c-0.8-0.8-1.8-1.5-2.8-2.2c-0.9-1.1-2.1-1.9-3.2-2.8
	c-0.4-0.5-1-0.8-1.5-1.1C47.4,27.3,46.4,26,45,25c-0.8-0.6-1.4-1.5-2.1-2.2C42.6,22.7,42.5,22.5,42.6,22.2z"/>
<path class="st104" d="M47.1,25.9c-1.1-1-2.2-1.9-3.2-3c0.4,0.2,0.8,0.3,1.2,0.2c0.6,0,0.8,0.4,1.2,0.7c1.7,1.2,3.2,2.6,4.8,3.9
	c0.3,0.2,0.5,0.4,0.4,0.8c-0.5,0.8-1,0.5-1.4,0C49.1,27.5,48.2,26.5,47.1,25.9z"/>
<path class="st105" d="M46.2,23.8c-0.4-0.3-0.7-0.5-1.1-0.8c-0.1-0.4-0.9-0.3-0.7-0.9c0.7,0.5,1.3,1,2,1.5
	C46.4,23.7,46.3,23.8,46.2,23.8z"/>
<path class="st69" d="M56.4,33c0.1-0.1,0.2-0.3,0.3-0.4c0.8,0.8,1.2,1.8,2,2.6c0.3,0.3,0.2,0.7-0.1,1c-0.1,0-0.1-0.1-0.2-0.2
	c-0.7-0.7-1.4-1.4-2.1-2.2C56.1,33.6,55.7,33.2,56.4,33z"/>
<path class="st24" d="M58.3,33.8c0-0.1,0-0.2,0-0.2c-0.1-0.6-0.4-1.2-1-1.5c-0.3-0.3-0.6-0.7-0.8-1.1c0.3,0.1,0.4,0.5,0.8,0.4
	c0.5-0.2,0.6,0.2,0.9,0.5s0.5,0.5,0.7,0.7c0.1,0.3,0.8,0.5,0.1,0.9c-0.2,0.3,0.1,0.7-0.1,1.1C58.5,34.3,58.5,33.9,58.3,33.8z"/>
<path class="st106" d="M59.8,33.5c0.4,0.7,0.2,1.4,0.3,2.1v0.1L60,35.8c-0.2-0.5-0.4-0.9-0.6-1.3c-0.1-0.3-0.2-0.6-0.4-0.9
	c0.1-0.2,0.3-0.2,0.6-0.2C59.7,33.4,59.8,33.5,59.8,33.5z"/>
<path class="st107" d="M59.6,33.5c-0.2,0.2-0.4-0.1-0.6,0c0-0.1,0-0.1,0-0.2c0.1-0.4-0.2-0.5-0.3-0.8c-0.2-0.3-0.5-0.5-0.7-0.8
	c-0.2-0.2-0.2-0.4,0.1-0.5C59,31.7,59.4,32.6,59.6,33.5z"/>
<path class="st95" d="M26.9,23.4c-0.8,0.4-1.4-0.1-2.2-0.2c-0.7,0-1.5-0.3-2.2,0.2c-0.7,0.4-1.4,0.7-2.2,0.9c-0.1,0-0.3,0-0.5-0.1
	c-0.1-0.1-0.2-0.2-0.3-0.4c0.3-1,1.2-1.1,2-1.4c0.8-0.1,1.6-0.5,2.5-0.5c0.2,0,0.5,0,0.6,0c1.1,0.5,2.4,0.1,3.5,0.3
	c0.5,0,0.9,0,1.4-0.2c0.5,0,1-0.1,1.5,0.1c0.8,0.4,1.6,0.7,2.5,0.9c2.4,0.4,4.5,1.6,6.6,2.7c0.5,0.2,0.7,0.8,1.2,0.9
	c1.1,0.7,2.2,1.5,3.2,2.4c0.4,0.3,0.7,0.7,0.1,1.1c-0.3-0.2-0.7-0.3-1-0.6c-0.5-0.6-1.2-0.9-1.8-1.2c-0.7-0.4-1.4-0.8-2-1.3
	c-0.9-1-2.2-1.2-3.3-1.8c-1.2-0.6-2.4-1.2-3.6-1.5c-1.1-0.4-2.3-0.5-3.5-0.5C28.6,23.5,27.7,23.2,26.9,23.4z"/>
<path class="st96" d="M53.3,34.1c0,0.3,0.5,0.4,0.3,0.8c-1.5-0.5-2.8-1.3-4.2-2c-0.2-0.1-0.5-0.3-0.8-0.4c-0.1-0.1-0.3-0.2-0.4-0.3
	c-0.3-0.4-1-0.5-1-1.1c0-0.2,0.3-0.3,0.4-0.5c-0.1-0.5-0.4-0.8-0.8-1.2c-0.3-0.3-0.5-0.6,0-0.9c0.9,0.2,1.3,1.1,2.1,1.5
	c0.1,0.1,0.1,0.2,0.1,0.4c0.1,0.7,0.7,0.9,1.2,1.3c0.7,0.6,1.4,1.2,2.2,1.6C52.9,33.6,53.2,33.8,53.3,34.1z"/>
<path class="st108" d="M47.4,31c0.3,0.4,0.6,0.8,0.9,1.2c-1.2-0.6-2.4-1.3-3.6-2c0.2-0.5-0.1-0.7-0.4-0.9c-1-0.8-2-1.6-3-2.3
	c0-0.3-0.5-0.5-0.2-0.8s0.7,0,0.9,0.1c0.7,0.5,1.4,0.9,2,1.4c1.1,0.8,2,1.8,3,2.6C47.3,30.5,47.5,30.7,47.4,31z"/>
<path class="st109" d="M40.1,27c1.3,0.7,2.5,1.6,3.7,2.5c0,0,0,0,0.1,0.1s-0.1,0.1-0.1,0.2c-0.4-0.3-0.8-0.6-1.3-0.5
	c-0.8-0.2-1.4-0.7-2.1-1.1c-0.7-0.5-1.4-0.9-2-1.4c0.2-0.6,0.5-0.2,0.8-0.1C39.4,26.7,39.7,27,40.1,27z"/>
<path class="st110" d="M28.3,22.6c-1.2,0-2.3,0-3.5-0.1c-0.8-0.1-1.7-0.3-2.4,0.2c-0.2,0.1-0.4,0.1-0.6,0c-0.1-0.1-0.1-0.1-0.1-0.2
	c0.5-0.4,1.2-0.4,1.8-0.7c-0.1-0.1-0.1-0.1-0.2-0.2c0.5-0.4,1,0,1.5,0c1,0,1.9,0,2.9,0c0.7-0.1,1.5,0,2.2,0.2H30
	c-0.2,0.8-0.9,0.5-1.4,0.7c-0.4-0.1-0.8-0.1-1.1-0.1C27.7,22.3,28.2,22.1,28.3,22.6z"/>
<path class="st111" d="M21.7,22.5v0.1c-0.8,0.1-1.3,0.7-1.9,1.2c-0.1,0.1-0.2,0.2-0.3,0.1c-0.4-0.2-0.4-0.5,0-0.8
	c0.6-0.7,1.5-0.7,2.3-1C21.9,22.2,21.8,22.4,21.7,22.5z"/>
<path class="st112" d="M19.5,23.9c0.1,0,0.2-0.1,0.3-0.1C19.9,23.9,20,24,20,24c0.1,0.4-0.2,0.5-0.4,0.7c-0.1,0.1-0.3,0.1-0.4,0.2
	c-0.3,0.1-0.5,0.3-0.9,0.2C18.5,24.6,18.9,24.2,19.5,23.9z"/>
<path class="st113" d="M21.7,22.5c0-0.1,0-0.3,0-0.4c0.6-0.2,1.1-0.4,1.7-0.4C23.1,22.4,22.3,22.2,21.7,22.5z"/>
<path class="st114" d="M59.6,33.5c-0.4-0.8-0.8-1.6-1.5-2.1c-0.5-0.1-0.7-0.6-1.1-0.7c-0.8-0.8-1.4-1.7-2.3-2.3
	c-0.2-0.2-0.4-0.5-0.6-0.7c0.1-0.1,0.2-0.2,0.3-0.3c1.2,0.8,2.2,1.8,3.4,2.7c0.5,0.5,0.9,1,1.3,1.5c0.2,0.6,0.7,1.2,0.8,1.9
	C59.8,33.5,59.7,33.5,59.6,33.5z"/>
<path class="st6" d="M28.4,22c0.5-0.3,1.1,0,1.5-0.4c0.1-0.1,0.3-0.1,0.4-0.2c0.3-0.4,0.7-0.2,1.1-0.2c0.6,0.1,1.2,0.1,1.7,0.4
	c0.1,0,0.1,0,0.1,0c-0.1,0,0,0-0.1-0.1c-0.3-0.3-0.4-0.6,0-0.9c0.1-0.1,0.3-0.1,0.4-0.1c0.2,0.1,0.5,0.1,0.7,0.2
	c0.2-0.2,0.5-0.1,0.7,0c0.8,0.7,1.9,1.1,2.9,1.4c0.8,0,1.3,0.6,2,0.8c2.5,1,4.6,2.6,6.7,4.2c1.2,1,2.3,2.1,3.7,3.1
	c0.3,0.3,0.7,0.5,1,0.8c0.7,0.6,1.4,1.2,2.2,1.7c0.6,0.3,1.1,0.8,1.3,1.5c0,0.1,0,0.2-0.1,0.2c-0.6,0.1-0.8-0.5-1.4-0.6
	c-1.4-0.9-2.7-2-4-3c-0.3-0.2-0.5-0.5-0.6-0.8c-0.6-0.5-1.2-1-1.9-1.6c-0.6,0-1.1-0.3-1.6-0.6c-0.5-0.7-1.2-1.2-2-1.5
	c-0.9-0.9-2-1.5-3-2c-0.8-0.4-1.5-0.8-2.3-1.1c0.5,0.2,1,0.5,1.6,0.7c2,1,3.8,2.4,5.6,3.9c1,0.8,1.8,1.6,2.6,2.4
	c0.2,0.2,0.5,0.4,0.3,0.8c-0.4,0.3-0.5-0.3-0.8-0.3c-1.2-1-2.3-2-3.4-3c-0.4-0.1-0.6-0.4-0.9-0.7c-1.3-1.1-3-1.4-4.3-2.2
	c-0.6-0.3-1.2-0.6-1.8-0.9c-1.4-0.6-2.7-1.5-4.3-1.3c-0.1,0.1-0.3,0.1-0.4,0.1c-0.4-0.1-0.8-0.4-1.3-0.1c-0.4,0-0.7,0-1-0.3
	C29.4,22.4,28.8,22.6,28.4,22z"/>
<path class="st115" d="M48.9,30.3c1.6,1.2,3.2,2.4,4.6,3.8c-0.1,0-0.1,0-0.2,0c-1.2-0.5-2.1-1.3-3.1-2.1c-0.6-0.5-1.2-1-1.5-1.6
	C48.8,30.4,48.8,30.3,48.9,30.3z"/>
<path class="st116" d="M54.8,34.7c0-0.1,0-0.1,0-0.2c0.3-0.4,0.3-0.4,1.2,0c0.1,0,0.1,0.1,0.2,0.1c0.2,0.2,0.5,0.5,0.8,0.7
	C56.1,35.5,55.5,34.9,54.8,34.7z"/>
<path class="st117" d="M56.4,33c-0.3,0.4,0,0.7,0.2,1c0.6,0.7,1.3,1.3,1.7,2.1c-0.9-0.4-1.3-1.2-2.1-1.8c-1.3-1.4-2.5-2.7-3.8-4.1
	c-0.4-0.2-1-0.4-0.5-1c0.5-0.2,0.9,0.1,1.1,0.4c1,1.2,2.2,2.1,3.1,3.4C56.4,33,56.4,33,56.4,33z"/>
<path class="st11" d="M39.9,68.1c-1.4-2-1.2-4.1,0.4-5.1C39.8,64.7,39.5,66.4,39.9,68.1z"/>
<path class="st13" d="M32,66c-0.2-2.4,1.5-4.5,3.5-4.5c-0.6,0.8-1.5,1.2-2.2,1.8C32.6,64,32.6,65,32,66z"/>
<path class="st118" d="M35,67.3c0.8-1.6,1.9-2.9,2.9-4.4c0.1-0.1,0.2-0.3,0.4-0.2s0.2,0.3,0.2,0.5c0,0.3-0.2,0.6-0.4,0.8
	c-0.9,1.1-1.8,2.2-2.6,3.3C35.3,67.3,35.2,67.4,35,67.3z"/>
<path class="st117" d="M19.4,24.5c0.2-0.2,0.4-0.3,0.6-0.5c0.1,0,0.2,0,0.4-0.1c1.1-0.4,2.3-0.1,3.5-0.1c0.3,0.1,0.6,0.1,0.9,0.2
	c0,0,0,0.1-0.1,0.1l0,0c-0.7,0.2-1.4,0.3-2.1,0.4c-0.8-0.2-1.6,0.1-2.4,0.2C19.9,24.7,19.6,24.8,19.4,24.5z"/>
<path class="st22" d="M21.8,24.8c-0.7,0-1.4,0.3-2.1,0.2c-0.1-0.4,0.3-0.3,0.5-0.4c0.6-0.1,1.2-0.2,1.9-0.2c0.2,0,0.5,0,0.5,0.3
	C22.2,24.7,22,24.8,21.8,24.8z"/>
<path class="st119" d="M22.5,24.7c-0.1,0-0.2-0.1-0.4-0.2c0-0.3,0.2-0.3,0.4-0.2c0.8,0.1,1.5-0.3,2.2-0.2
	C24,24.6,23.2,24.5,22.5,24.7z"/>
<path class="st120" d="M22.5,24.3c-0.1,0.1-0.3,0.1-0.4,0.2c-0.8,0-1.7,0-2.5,0.4c-0.1,0-0.3,0-0.5,0c0-0.2,0-0.3,0.2-0.4
	C20.4,24.5,21.4,24,22.5,24.3z"/>
<path class="st121" d="M33.4,20.9c-0.2,0.2-0.2,0.4,0,0.5c-0.4,0.4-1,0.1-1.4,0.1c-1.1-0.1-2.2-0.6-3.4-0.6c-0.2,0-0.3-0.1-0.4-0.2
	c-0.7-0.3-1.4-0.5-2.1-0.8c0.5-0.3,1-0.2,1.5,0.1c0.4,0.3,0.9,0.5,1.4,0.1c0.6-0.1,1.2,0.2,1.8,0.3c0.5,0.1,0.9,0.3,1.4,0
	c0.1-0.1,0.2-0.2,0.4-0.2C32.9,20.4,33.4,20.3,33.4,20.9z"/>
<path class="st122" d="M34.8,21.3c-0.1-0.1-0.3-0.2-0.4-0.4c0.1-0.6,0.5-0.5,1-0.6c1.4-0.1,2.5,0.6,3.6,1.2c0.1,0.1,0.1,0.2,0.1,0.4
	c-0.2,0.4-0.4,0.5-0.8,0.4C37.1,22,35.9,21.8,34.8,21.3z"/>
<path class="st123" d="M32.8,18.8c0.1,0.1,0.2,0.2,0.3,0.3c0.5,0.5,1.2,0.3,1.7,0.7c-0.8,0.2-1.4,0.4-2.1-0.3
	c-0.3-0.4-1-0.4-1.6-0.6c0.2-0.1,0.5,0,0.7-0.2C32.2,18.4,32.6,18.3,32.8,18.8z"/>
<path class="st124" d="M30.3,20.1c-0.2-0.3-0.7-0.2-1-0.7c1.2-0.1,2.3-0.2,3.3,0.7c-0.5,0.6-1.2,0.2-1.8,0.3c-0.1,0-0.3,0-0.4-0.1
	C30.4,20.2,30.4,20.2,30.3,20.1z"/>
<path class="st31" d="M39,21.9c-1.2-0.7-2.5-1-3.6-1.5c0-0.1,0-0.2,0-0.3c0.2,0,0.3,0,0.4,0c1.1,0.6,2.3,0.7,3.4,1.3
	c0.4,0.2,1,0.2,1.1,0.9c0,0.2-0.1,0.3-0.3,0.4C39.4,22.5,39,22.5,39,21.9z"/>
<path class="st125" d="M32.4,21c0.2,0.3,0,0.3-0.2,0.2c-1.1-0.1-2.2-0.7-3.3-1c-0.2-0.1-0.4,0-0.5-0.3c0.6-0.1,1.2,0.3,1.8,0.2l0,0
	C31.1,20.3,31.9,20.2,32.4,21z"/>
<path class="st126" d="M30.7,20.1c0.6-0.4,1.3,0.1,1.9,0c0.3,0.2,0.9,0.1,1,0.6c-0.1,0.1-0.2,0.1-0.2,0.2c-0.3-0.2-0.6-0.4-1-0.4
	C31.8,20.7,31.3,20.4,30.7,20.1z"/>
<path class="st127" d="M29.8,21.7c-0.7,0-1.5,0.1-2.2-0.2c0-0.1,0-0.1,0-0.2C28.4,21.3,29.1,21.4,29.8,21.7z"/>
<path class="st128" d="M28.2,20.8c1.2,0.2,2.5,0.5,3.7,0.7c0,0.2-0.3,0.1-0.4,0.2c-0.4-0.1-0.8-0.1-1.1-0.2
	c-0.7-0.4-1.6-0.2-2.3-0.5C28.1,20.9,28.1,20.8,28.2,20.8z"/>
<path class="st129" d="M40.1,27c-0.4,0.2-0.7,0.1-1-0.1s-0.5-0.5-0.9-0.3c-0.7-0.4-1.4-0.8-2.1-1.2c0.1-0.5,0.3-0.5,0.7-0.3
	C38,25.7,39.1,26.2,40.1,27z"/>
<path class="st80" d="M36.8,25.1c-0.2,0-0.5,0.1-0.7,0.3c-1.1-0.5-2.2-1-3.3-1.5c0-0.2,0-0.3,0.2-0.2C34.4,24,35.6,24.4,36.8,25.1z"
	/>
<path class="st130" d="M33,23.8c-0.1,0.1-0.2,0.1-0.2,0.2c-1.6-0.5-3.3-0.3-5-0.4c0.4-0.6,1.1,0,1.5-0.3
	C30.6,23.2,31.9,23.4,33,23.8z"/>
<path class="st63" d="M23.9,23.8c-1.2,0.2-2.3,0.2-3.5,0.1c0.8-0.2,1.4-0.6,2.1-0.9c0.2,0.2,0.6,0,0.8,0.4
	C23.1,24.1,23.7,23.6,23.9,23.8z"/>
<path class="st131" d="M23.3,23.4c-0.3,0-0.6,0-0.8-0.4c0.8-0.2,1.5-0.3,2.2,0.2C24.3,23.6,23.7,23.3,23.3,23.4z"/>
<path class="st132" d="M29.4,23.2c-0.5,0.3-1.1,0-1.5,0.3c-0.3,0.1-0.6,0-0.9-0.1c0.3-0.6,0.8-0.2,1.2-0.3
	C28.5,23.1,29,23.2,29.4,23.2z"/>
<path class="st84" d="M29,24.5c-0.2-0.2-0.5-0.3-0.7-0.5c0.8-0.1,1.5,0,1.9,0.7C29.8,24.9,29.4,24.5,29,24.5z"/>
<path class="st130" d="M25.3,23.8c-0.1,0.1-0.2,0.1-0.3,0C25.1,23.8,25.2,23.8,25.3,23.8z"/>
<path class="st8" d="M56.3,33c-1.4-1.2-2.8-2.5-4.2-3.7c-0.4,0-0.7-0.2-0.9-0.6c0-0.1,0-0.2,0.1-0.3c-0.7-1-1.8-1.7-2.7-2.5
	c-0.8-0.7-1.7-1.4-2.5-2c0.1-0.1,0.2-0.1,0.2-0.2c0.7,0.5,1.4,0.9,2.1,1.4c0.7,0.8,1.6,1.5,2.5,2.1c0.5,0.4,0.9,0.8,1.3,1.2
	c1.3,1.2,2.3,2.6,3.5,3.9C56.1,32.3,56.4,32.5,56.3,33z"/>
<path class="st133" d="M56.9,30.6c0.8-0.4,0.7,0.6,1.1,0.7c-0.1,0.5,0.5,0.7,0.6,1.2c-0.7-0.2-0.8-1-1.3-1.3
	C57.2,31,57.1,30.9,56.9,30.6z"/>
<path class="st134" d="M57.3,32c0.8,0.2,1,0.8,1,1.5C58,33,57.6,32.5,57.3,32z"/>
<path class="st101" d="M39,21.5c-0.8-0.4-1.5-0.7-2.3-0.9c-0.3-0.1-0.8-0.1-0.9-0.6c1.7,0.3,3.4,0.9,4.9,1.7c0,0,0.1,0.1,0,0.1v0.1
	C40,22.2,39.6,21.3,39,21.5z"/>
<path class="st135" d="M40.6,21.9c0-0.1,0-0.1,0-0.2c0.1-0.1,0.1-0.1,0.2-0.2c0.5,0.4,1,0.8,1.5,1.1c0.3,0.2,0.3,0.4,0,0.5
	c-0.5,0.1-0.8-0.3-1.2-0.5C41.1,22.4,40.5,22.4,40.6,21.9z"/>
<path class="st20" d="M42.4,23c0-0.1,0-0.3,0-0.4c0.1-0.1,0.1-0.2,0.2-0.4c1.3,1.2,2.5,2.5,3.8,3.7c0.8,0.8,1.6,1.4,2.2,2.4
	c0,0.1,0,0.2,0,0.3c-0.5,0.2-0.8-0.2-1-0.4c-0.4-0.4-1-0.7-1.3-1.1c-0.7-1.3-1.9-2.1-3-3C42.8,23.8,42.3,23.6,42.4,23z"/>
<path class="st92" d="M56,34.5c-0.4,0-0.8-0.2-1.2,0c-1.2-1-2.4-2-3.7-3c0-0.1,0.1-0.3,0.2-0.3c0.8,0.1,1.2,0.9,1.9,1.1
	C54.5,32.6,55.2,33.6,56,34.5z"/>
<path class="st28" d="M53.3,32.2c-0.9,0.3-1.3-0.6-1.9-1c-0.8-0.4-1.6-0.8-1.8-1.8c0.1-0.2,0.2-0.3,0.5-0.1
	C51.1,30.3,52.3,31.1,53.3,32.2z"/>
<path class="st20" d="M51.3,28.4c0,0,0.1,0.1,0.1,0.2c0.3,0.4,0.5,0.9,0.6,1.4c0,0.2,0,0.4-0.3,0.3c-0.6-0.6-1.2-1.1-1.8-1.7
	c0-0.2,0.1-0.3,0.2-0.4C50.6,28.5,50.9,28.7,51.3,28.4z"/>
<path class="st136" d="M50.2,28.2c-0.1,0.1-0.1,0.3-0.2,0.4c-1-0.9-2-1.8-2.9-2.7C48.4,26.2,49.2,27.4,50.2,28.2z"/>
<path class="st104" d="M51.8,30.3c0.3-0.7-0.5-1.1-0.3-1.7c0.2,0.3,0.6,0.3,0.8,0.7c-0.2,0.4,0.3,0.6,0.3,1
	C52.3,30.4,52.1,30.8,51.8,30.3z"/>
<path class="st84" d="M50,29.4c-0.1,0.1-0.2,0.1-0.3,0.2c-0.5,0.2-0.8-0.3-1.1-0.5c-0.1-0.2-0.1-0.4-0.1-0.5s0-0.1,0-0.2
	C49.1,28.5,49.6,28.9,50,29.4z"/>
<path class="st137" d="M30.9,22.7c0.4-0.6,0.9,0,1.3-0.1c0.6-0.2,1.2,0.1,1.8,0.3c1,0.2,2,0.7,3,0.8c2.5,1.1,4.9,2.3,6.9,4.2
	c-1-0.4-1.7-1.2-2.7-1.7c0,0.3,0,0.5,0,0.7c-0.4-0.2-0.8-0.5-1.2-0.7C37.2,24.4,34.1,23.5,30.9,22.7z"/>
<path class="st126" d="M28.4,22c0.5,0.1,1,0.1,1.4,0.4c-0.5,0.3-1,0.2-1.6,0.1s-1.3-0.3-2.1-0.4C27,21.9,27.7,22.1,28.4,22z"/>
<path class="st21" d="M45.6,27.8c0.6,0.1,1,0.5,1.4,0.9c0.2,1,1.1,1.5,1.6,2.3c0.1,0.1,0.3,0.3,0,0.5c-0.2,0.1-0.3-0.1-0.5-0.2
	c-0.1-0.4-0.4-0.6-0.7-0.8c-2.5-2.3-5.1-4.4-8.1-6.1c-0.1-0.4,0.2-0.4,0.4-0.3s0.4,0.2,0.6,0.2c1.2,0.5,2.2,1.2,3.2,2
	C44.3,26.8,44.9,27.4,45.6,27.8z"/>
<path class="st61" d="M48.7,30.4c0.5,0.6,1.1,1,1.5,1.6C49.5,31.7,48.9,31.2,48.7,30.4z"/>
<path class="st138" d="M46.5,27.7c-2-1.7-4.3-3-6.7-4.2c-0.1-0.4-1.1-0.7,0-1.1c0.4-0.1,0.8,0,1.2,0.2c2,1.4,4.1,2.8,5.6,4.9
	C46.7,27.5,46.6,27.6,46.5,27.7z"/>
<path class="st82" d="M37,23.8c-1.1,0.3-2-0.4-3.1-0.5c-0.5-0.3-1.1-0.4-1.5-0.8c-0.1-0.1-0.3-0.1-0.3-0.2c-0.1-0.2,0.1-0.2,0.2-0.2
	c0.3,0.1,0.6,0.1,0.9,0.2C34.5,22.7,35.8,23.2,37,23.8z"/>
<path class="st15" d="M39.9,22.4c-0.2,0.3,0.3,0.7-0.1,1c-0.7-0.3-1.4-0.5-2.1-0.8c-0.1-0.4-0.2-0.7,0.4-0.6
	c0.2-0.1,0.5-0.1,0.8-0.2c0.3,0.1,0.6,0.3,0.9,0.4c0,0,0.1,0,0.2,0C40,22.3,40,22.4,39.9,22.4z"/>
<path class="st15" d="M40.5,24.3c-0.3,0.2-0.7-0.2-1,0.1c-1-0.4-1.8-0.9-2.6-1.6C38.1,23.2,39.4,23.6,40.5,24.3z"/>
<path class="st83" d="M38.2,22c-0.3,0.1-0.3,0.4-0.4,0.6c-1-0.4-2.1-0.7-3-1.3C35.9,21.5,37,21.8,38.2,22z"/>
<path class="st25" d="M50.2,30.7c-1.4-0.8-2.5-1.9-3.7-3l0.1-0.1c0.9,0.2,1.4,1,2.1,1.5C49.3,29.5,50,29.9,50.2,30.7z"/>
<path class="st88" d="M31.5,21.6c0.1-0.1,0.2-0.1,0.4-0.2c0.5,0,1,0,1.5,0c0.4,0.2,0.9,0.3,1.2,0.8C33.5,22.2,32.5,21.8,31.5,21.6z"
	/>
<path class="st76" d="M50.2,30.7c-0.4-0.6-1-1.1-1.6-1.6c0-0.1,0-0.1,0.1-0.2c0.4,0,0.6,0.4,0.9,0.6c0.5,0.6,1.1,1.2,1.7,1.7
	c-0.1,0.1-0.1,0.1-0.2,0.2C50.8,31.3,50.5,31,50.2,30.7z"/>
<path class="st139" d="M45.6,27.8c-0.9-0.1-1.4-0.8-1.9-1.5C44.5,26.7,45.1,27.2,45.6,27.8z"/>
<path class="st51" d="M32.4,22.5c0.6,0.1,1.1,0.3,1.6,0.6v0.1c0,0,0,0-0.1,0.1c-0.6-0.2-1.1-0.4-1.7-0.6
	C32.3,22.6,32.4,22.5,32.4,22.5z"/>
<path class="st11" d="M30.7,20.1c0.6,0.1,1.1,0.3,1.7,0.4c0,0.1,0,0.3,0,0.4c-0.7-0.2-1.4-0.5-2.1-0.8
	C30.5,20.1,30.6,20.1,30.7,20.1z"/>
<path class="st43" d="M48.7,29c0,0,0,0.1-0.1,0.2c-0.7-0.5-1.3-1-2-1.6c-2.1-1.9-4.1-3.9-6.7-5.1l-0.1-0.1c0.1-0.1,0.2-0.1,0.2-0.2
	c0.5-0.1,0.8,0.2,1.2,0.4c1.6,1.1,3,2.3,4.4,3.6c0.2,0.2,0.5,0.5,0.7,0.8c0.6,0.7,1.4,1.1,2.1,1.6C48.6,28.7,48.6,28.8,48.7,29z"/>
<path class="st140" d="M41.2,22.6c-0.4-0.2-0.8-0.4-1.2-0.5c-0.4-0.2-0.8-0.4-1.1-0.6c0.7-0.3,1.1,0.4,1.7,0.4
	c0.2,0.3,0.6,0.2,0.8,0.5C41.5,22.5,41.3,22.6,41.2,22.6z"/>
<path class="st141" d="M41.2,22.6c0.1-0.1,0.1-0.1,0.2-0.2c0.3,0.2,0.6,0.4,0.9,0.6c1.1,1,2.4,1.8,3.4,2.9c0.2,0.3,0.5,0.5,0.6,0.9
	C44.7,25.5,43.1,23.9,41.2,22.6z"/>
<path d="M54.2,4.2c0.2,0.6,0.2,1.1,0.2,1.7s0,1.1-0.2,1.7C54.1,7,54.1,6.4,54,5.8C54.1,5.3,54.1,4.7,54.2,4.2z"/>
<path d="M55.8,5.9c-0.5,0.2-1,0.2-1.5,0.2s-1,0-1.5-0.2c0.5-0.2,1-0.2,1.5-0.2C54.8,5.8,55.3,5.8,55.8,5.9z"/>
</svg>
