<?xml version="1.0" encoding="utf-8"?>
<!-- Generator: Adobe Illustrator 25.1.0, SVG Export Plug-In . SVG Version: 6.00 Build 0)  -->
<svg version="1.1" id="Layer_1" xmlns="http://www.w3.org/2000/svg" xmlns:xlink="http://www.w3.org/1999/xlink" x="0px" y="0px"
	 viewBox="0 0 697 53" style="enable-background:new 0 0 697 53;" xml:space="preserve">
<style type="text/css">
	.st0{opacity:0.85;}
	.st1{fill:#D6FFE0;}
	.st2{fill:#E0FFE8;}
	.st3{fill:#ADCCB5;}
	.st4{fill:#99BFA3;}
	.st5{fill:#7E8B81;}
	.st6{fill:#738F7A;}
	.st7{fill:#66806C;}
</style>
<g class="st0">
	<g class="st0">
		<g>
			<path class="st1" d="M680.3,17.3c-0.2,0.1-0.7,0.3-1,0.5c-1.8,0-3.5,0-5.3,0c-1.2,0.7-2.4,1.3-3.7,2c-1.4,0.2-3,0.4-4.3,0.7
				c-1.6,0.5-4.2,0.2-7.5,0.2c-5,0.6-8.1,0.8-10.8,1.4c1.2,1.8-9.8,0.6-16.1,0.8c-0.1,0.7-0.2,1.4-0.3,2c-3.3-0.3-5,0.5-9.5,0.2
				c-4,1.7-8.3,1.8-12.9,1.9c-0.9,0.1-1.6,0.3-2.3,0.5c-1.7-0.2-3.5-0.3-5.2-0.5c-4.1,0.5-1.6,1.6-2.7,2.5c-3-0.3-6.1-0.6-9.3-0.9
				c-0.6-0.3-1.2-0.5-1.9-0.7c0.3-0.6,0.9-1.2,1.2-1.8c1.2-0.4,2.4-0.8,3.5-1.2c4.4-0.1,5.8-0.4,5.4-0.7c2.2-1.5-5.2-0.9-8.4-1.1
				c-0.2-0.3-0.6-0.5-0.8-0.8c1.8-0.4,3.7-0.8,5.5-1.2c6-0.4,4.3-1.7,10.8-1.1c0.3-0.3,0.8-0.7,1.1-1c1.6-0.1,2.9-0.3,4.5-0.5
				c0.6,0.1,1.3,0.2,1.9,0.3c-0.3,0.4-0.8,0.8-1.3,1.2c-0.5,0.2-2.1,0.7-5.4,0.5c1.2,1.7-1.2,3.1-3.8,4c1.9,0.7,3.8-0.2,6.4,0.1
				c2-0.1,4.2-0.2,6.5-0.2c0.2-1,0.2-1.2,0.3-1.5c2,0,4.2,0,6.1,0.3c3.4-0.4,5.4-0.4,7.6-0.7c0.7-1.2,3.2-0.9,4.4-0.9
				c5.2-1.8,11.7-2.3,19.6-2.3c0.6,0.4,3.7,0.6,6,0.8c3-0.8,5.5-1.2,4.8-2.2c-0.9-0.1-1.5-0.2-2.2-0.2c-3.5-0.1-7-0.3-10.5-0.4
				c-1.3,0-2.9,0.1-4.2,0.2c-1.2,0.4-2.3,0.8-3.5,1.2c-2.5-0.8-8.3-0.8-12.4-1.2c-1.3-0.3-2.8-0.6-4-1c3-0.6,7.2-0.4,11.6-0.4
				c4.4,0.2,8.5,0.4,12.7,0.6c3.1-0.1,6.5-0.2,9.6-0.4c6.4-0.1,11.5-1.1,14.8-0.1c2,0.2,3.5,0.3,5.2,0.5
				C680.4,16.7,680.3,17,680.3,17.3z"/>
		</g>
		<g>
			<path class="st2" d="M658.6,19.8c-2.4-0.2-5.5-0.4-6-0.8c-8,0-14.5,0.5-19.6,2.3c-1.1,0.1-3.7-0.2-4.4,0.9
				c-2.3,0.3-4.3,0.3-7.6,0.7c-1.9-0.3-4.2-0.3-6.1-0.3c0,0.3-0.1,0.5-0.3,1.5c-2.2,0-4.5,0.1-6.5,0.2c-2.6-0.3-4.5,0.6-6.4-0.1
				c2.6-0.8,5-2.3,3.8-4c3.3,0.2,4.9-0.3,5.4-0.5c0.5-0.4,1-0.8,1.3-1.2c2.2,0,4.2,0,6.4,0.1s4.2,0,6.4,0.1c0.2-0.9,8,0,5.6-1.5
				c4.1,0.4,9.9,0.4,12.4,1.2c1.2-0.4,2.3-0.8,3.5-1.2c1.3-0.1,2.9-0.2,4.2-0.2c3.5,0.1,7,0.2,10.5,0.4c0.7,0.1,1.3,0.2,2.2,0.2
				C664.1,18.5,661.6,19,658.6,19.8z"/>
		</g>
		<g>
			<path class="st3" d="M630.5,17.2c2.4,1.4-5.4,0.5-5.6,1.5c-2.2,0-4.2,0-6.4-0.1s-4.2,0-6.4-0.1c-0.7-0.1-1.3-0.2-1.9-0.3
				c-1.6,0.2-2.9,0.3-4.5,0.5c-0.3,0.3-0.8,0.7-1.1,1c-6.5-0.5-4.8,0.7-10.8,1.1c-1.8,0.4-3.7,0.8-5.5,1.2c0.2,0.3,0.6,0.5,0.8,0.8
				c3.3,0.2,10.7-0.4,8.4,1.1c0.4,0.3-1,0.6-5.4,0.7c-1.2,0.4-2.4,0.8-3.5,1.2c-0.3,0.6-0.9,1.2-1.2,1.8c-3.4,0.2-6.5,0.4-9.8,0.6
				c-0.7,0-1.3,0-2,0c-1.4,0.2-2.9,0.3-4.3,0.5c-1-0.5-2-1-3-1.5c-3.7-0.5-1.9,1-5.5,1.2c-3.5-0.4-7-0.7-10.4-1.1
				c-10.2,0.4-11.9-2.8-22-1.7c-3-0.3-6.1-0.6-9.4-0.8c-4.2,0.3-8.5,0.6-12.8,0.9c-2.9,0-5.7-0.1-8.6-0.1c0.5-0.3-0.4-0.4-1-0.5
				c-4.2,0-4.5,1.7-12.8,1.1c-1.8-0.1-3.5-0.2-5.2-0.3c-3.5,0.1-7.1,0.1-10.6,0.2c-4,0-7.7-0.1-11.7-0.1c-0.7,0-1.3,0-2.2,0
				c-5-0.3-1.3-1.3-3.9-1.8c-3.5-0.2-9.3,0.3-10.5-0.9c-3.1-0.1-6.4-0.2-9.4-0.4c-4.5,0.3-5.7,1-9.6,0.7c-2.2,0-4.2,0-6.4-0.1
				c-0.7,0-1.3,0-2.2,0c-1.3,0.9-4.5,0.6-6.3,0.4c-2.5,0.1-5.1,0.2-7.5,0.2c-0.5-1-6.2-0.2-8.2-1.1c-4.4-0.3-8.5-0.6-12.7-0.9
				c-5.6,0.6-10.6,2.8-10.8,0.9c-3.9-0.4-8.5,0.5-13.7-0.1c-4.2-0.2-8.5-0.4-12.7-0.6c-2,0.2-4.3,0.5-6.5,0.7c-2,0-4.2,0-6.2-0.1
				c-2.2,0-4.5,0.1-6.4,0.1c-3.6,0.6-8.6,1.1-8.6-0.1c-0.7,0-1.3,0-2,0c-1.1,1.1-4.7,0.4-5.5,1c-0.7,0.4-4.9,0.3-6.4-0.3
				c-0.7,0-1.3,0-2.2,0c-2.4,0-4.9,0.1-7.3,0.2c-1.5,0.9-4.8,0.6-6.5,0.4c-3.5,0.1-7.1,0.1-10.6,0.2c-3.1,0.1-6.4,0.1-9.5,0.2
				c-0.4,1.2-7.6,0.7-11.6-0.6c-1.3,0-2.9,0-4.2,0c-1.2,0.4-2.3,0.6-3.5,1c-3.1-0.1-8,0.1-9.4-0.6c-1.3,0-2.9,0-4.2,0
				c-3.7,0.7-4-0.1-6.4-0.1c-0.2,0-0.7,0-1.1,0c-0.1,0.6-0.2,1.1-0.3,1.7c-3.1,1.3-5.5-0.4-8.3-0.5c-1.1-0.1-1.6,0.1-2.2,0.2
				c-0.3,1.9-7.4-1-10.7,0.6c-3.1,0-1.5-1.6-7.1-1c-1.9,1.8-12.3,0.5-18.2,0.3c-1.4,0.5-3.1,1-4.5,1.5c-12.1-1.6-18.1,2.3-32.1,1.5
				c-4.5-0.9-9.4,0.5-13.6-0.4c-2.3,3.2-21.6-0.5-22.8,2.8c-5.3,0.1-11.8-0.5-16,0.3c-2.7-1.2-3.1-1.3-4-1.3c-2.1,0.3-1.1,1-1.4,1.5
				c-2.2-0.1-4.2-0.2-6.4-0.3c1.9-1-2.7-1-3.9-1.5c-5.2,1.8-10.8-1.3-17.9-1.2c-5.4,0.4-2.8,3.2-11,1.9c-4,1.2-5.1,1.1-10.7,0.6
				c-2.5-1.1-6.9-1.1-11.4-1.9c-0.1-0.4-0.5-0.8-0.7-1.2c-1.1-0.2-2.1-0.5-3.2-0.8c-2.2-1.5-2.9-2.6-6.7-3.3
				c0.3-0.4,0.8-0.8,1.1-1.2c4.7-0.2,5.9-0.7,7.6-0.7c1.2,0.6,2.6,1.2,3.9,1.8c2.5-0.3,5.2-0.6,7.7-0.9c2.4,0,4.9,0,7.3,0.1
				c1.2-0.5,2.4-1,3.6-1.5c0.7-0.1,1.4-0.1,2-0.2c3.3,0.3,6.3,0.7,9.5,1.1c1.7,0.4,3.2,0.9,5.1,1.3c-0.1,0.4-0.1,0.7-0.2,1.2
				c3.7,0.1,7.7,0.3,11.4,0.4c3.3,0.1,6.4,0.2,9.7,0.4c0.8,0.3,1.9,0.7,2.9,1c1.2-0.3,2.3-0.6,3.3-1c2.7-0.2,4.3,0.7,6.4,0.1
				c-1.8-1.2,3.2-0.6,9.7-0.9c1.5,0.2,2.8,0.3,4.3,0.5c3.8-0.5,3.1-1.1,4.4-1.5c1.8-0.1,3.6-0.3,5.4-0.4c-1.4-1,2.6-0.9,4.4-1.2
				c5.2,0.6,6.6-1,11.8-0.4c2.2-0.2,0-1.2,2.2-1.2c0.9,0,1.6,0,2.2,0c0.6,0.4,1.2,0.8,2,1.3c0.9,0,2,0,6.3-0.7
				c0.4,0.5,0.7,1,0.8,1.5c2.2,0.1,4.2,0.2,6.4,0.3c0.7-0.1,1.4-0.3,2.3-0.4c4.2-0.1,8.4-0.1,12.6-0.1c-1,1.9,8.3-0.6,7.2,1.6
				c0.7,0,1.3,0,2,0c0.5-1.4-1.5-1.7-0.4-2.8c2,0.1,4.2,0.2,6.1,0.3c-0.1,0.5-0.2,1-0.3,1.5c6,1.2,2.6-1.2,6.6-1.2
				c2.2,0.2,4.1,0.5,6.3,0.8c0.6,0.3,1.9,0.3,3.1,0.3c2-0.2,1-0.8,1.3-1.2c1.8,0,3.5,0,5.3,0c3.8-0.3,1.6-1.4,4.5-1.5
				c3.5,1.2,4.8,1.9,6.9,3.3c1.4-0.6,3.1-1.1,4.5-1.7c1.6-0.5,4.2-0.1,6.4-0.2c1,0.6,2.7,1.1,1.9,2c0.9,0.1,1.9,0.2,3,0.3
				c1.2-0.4,2.4-0.8,3.3-1.2c1.8,0,3.5,0,5.2,0.3c2.9,0,5.8-0.1,8.6-0.2c3.1,0.2,6.3,0.4,9.4,0.6c2.9-0.3,5.6-0.6,8.6-0.9
				c2.9-0.2,5.8-0.3,8.7-0.4c4.8,0.3,9.6,0.6,14.7,0.9c0.7,0,1.3,0,2.2,0c0-0.2,0.1-0.5,0.1-0.7c1.4-0.2,2.7-0.5,4.3-0.7
				c1.8-0.2,3.6-0.3,5.4-0.5c2,0,4.2,0,6.4,0.1c1.3,0,2.6,0,4.2,0c4.7,0.8,5.5,0.4,7.2,0.6c2.7-0.2,1.7-0.9,3.5-1.2
				c1.3,0,2.9,0,4.2,0c6.6,1.3,9.9,0.6,14.7,0.9c2.2,0,4.2,0,6.4,0.1c1.2-0.4,2.3-0.8,3.3-1.2c1.8-0.4,3.7-0.8,5.5-1.2
				c2.2-0.1,4.5-0.3,6.5-0.5c1.7,0.3,3.4,0.5,5.2,0.8c2.9,0.2,5.7,0.4,8.3,0.5c0.9,0.2,1.5,0.4,2.1,0.5c1.4-0.3,3-0.6,4.4-0.9
				c2.5-0.2,5.2-0.5,7.6-0.7c0.2,0,0.6,0,1.1,0c0.8,0.5,1.8,1,2.8,1.5c0.7,0,1.3,0,2.2,0c1.9-0.9,0-1.1,0.3-1.5
				c0.7-0.1,1.4-0.3,2.1-0.5c7.1,0,3.6,2,10.4,1.4c0.5-0.4,1-0.8,1.3-1.2c1.8,0,3.5,0,5.3,0c2.8,0.3,5.7,0.5,8.3,0.8
				c4.4,0.2,8.5,0.5,12.7,0.6c4.1-0.9-2.7-0.8-1.9-1.8c3.7-1,3.1-1.1,2.4-1.2c-2.6-0.3-3.2,0.5-5.4,0.5c-0.2-0.1-0.6-0.2-1.1-0.3
				c0.1-0.6,0.2-1.1,0.3-1.8c0.9-0.3,1.6-0.6,2.4-1c0.2-0.1,0.7-0.1,1.1-0.2c2.9,0.1,5.5,0.3,8.3,0.3c-0.3,0.3,0.4,0.4,1,0.5
				c2.6,0.3,3.2-0.5,5.4-0.5c1.9,0.4,4.1,0.7,6.2,1c4.3,0.6,5.7-0.8,9.6-0.6c1.1,0,2,0,3.1,0c1.8,0.1,3.5,0.2,5.2,0.3
				c6.7-0.5,16.4-0.1,24.5,0c4.2-0.1,7.9,1.5,11.4,0.4c7.4,0.4,17.2-0.7,21.1,0.7c4.3-0.7,12.2-0.3,17.2-1.1
				c3.3,0.3,6.3,0.6,9.4,0.9c6.2-0.4,14.4,0,18.3-1.1c2.4,0.3,5,0.5,7.4,0.8c2.2,0,4.6,0.1,6.2-0.2c6.6,0.4,11.9,0.2,12.5,1.9
				c0.7,0,1.3-0.1,2.2-0.2c1.3,0,2.9,0,4.2,0c0.2,0,0.7,0,1.1,0c1.8-0.2,3.6-0.4,5.4-0.7c0.9,0,2,0,3.1,0c1.1-0.1,2.2-0.1,3.1-0.2
				c1.6,0,2.9-0.1,4.5-0.2C627.8,16.6,629.3,16.9,630.5,17.2z"/>
		</g>
		<g>
			<path class="st1" d="M558.2,30.2c-1.3,0.1-2.9,0.2-4.2,0.2c-2.2-0.1-4.2-0.2-6.4-0.3c-1.1,0-2.2,0-3.1,0
				c-3.9-0.5-7.6-0.9-11.5-1.4c-0.5,0-0.7,0-1.1,0c-3.6,0.2-7.2,0.5-10.7,0.7c-1.3,0-2.9,0-4.2,0c-0.6-0.6-1.1-1.2-1.9-1.8
				c-3.5,0-7.1-0.1-10.5-0.4c-0.8,0.5-1.5,0.8-2.2,1.2c-3.3,0.2-8.5-0.5-9.8,0.4c-1.7,0.9,2.5,1.1,5.1,1c4-0.3,3.6,0.6,5.1,1
				c-1.4,0.4-2.8,0.6-4.4,1c-4.8-0.5-17.8,0.9-14.6-1.4c-4.2,0.1-8.4,0-13.6-0.4c0.1,0.4,0.5,0.8,0.7,1.2c1.9,0.5,8.6,0,6.2,1.3
				c-4.2,0-8.4-0.1-12.6-0.1c-2.2-0.3-4.3-0.6-6.3-0.8c1-0.6-1.2-0.8-2-1.5c-3.6,0.3-7.2,0.6-10.8,0.9c-3.2,0.8-2.6,1.2-5.6,1.9
				c-2.4,0-4.9,0-7.3-0.1c-6-0.9,0.1-2-0.5-3.2c-0.6-0.2-1.3-0.3-2.1-0.5c-5.6,0.3-11.4,0.6-17.2,0.8c-4.2,1.2-14.9-0.6-16.2,1.4
				c-3.8,0-8.6-0.2-11.6,0.4c-4.8,2.3,4.4,1.6,4.9,2.5c-1.9,1-5.4,0.4-6.6,1.2c-4.5,0.2-10.7,0.4-16,0.6c-0.4,0-0.7,0-1.1,0
				c-0.7,0-1.3,0-2.2,0c-2.7,0.3-5.6,0.6-8.6,0.9c-1.1,0.1-2,0.2-3.1,0.2c-1.7-0.3-3.5-0.5-5.2-0.8c-5.2,0.6-9.9-0.2-14.7-0.4
				c1.1-1.4,7.3-2.4,12.9-1.8c0-1.5,7.8-0.2,10.8-0.9c1.5-2.3-12.3-1.9-9.8-4.6c4.7-1.6,12.3-0.9,11.1-2.6c5.1-0.3,6.9,1.2,12.7,0.6
				c0.1-0.4,0.1-0.8,0.2-1.2c-12.6,0-24.8-1.1-34-0.3c5.4,2.2-11,0.7-4.7,2.7c2.4,0.1,4.8,0.2,7.5,0.3c-3.1,1.1-5.5,0.9-7.6,0.7
				c-1.4,0.4-3,0.8-4.4,1.2c-4.8,0.6-7.6,0.6-13,0.9c0.3,2.1-15.2-0.2-10,2.7c1.5,1.6-4.7,0.2-7.6,0.4c-0.7-0.9-6.1-0.4-9.4-0.6
				c-1.2,0.6-4.5,0.8-3.4,1.7c4.9-0.1,0.9,1.3,6.2,1.1c-1.2,0.6,2.2,2.3-3.6,1.7c2.6,2.7-10.3,1.9-13.2,3.3c-3.1,1.1-9.5,1-15.2,0.9
				c-5.2,2.1-16.7,2.2-27.1,3c-0.1,0.4-0.1,0.8-0.2,1.2c-0.2,0-0.7,0-0.9,0c-2.8-0.4-4.8-0.6-6.3-0.8c-1,0.7-1.8,1.3-2.6,2
				c-1.2,0.6-2.2,1.1-3.4,1.7c-2.4,0-5.1,0-7.5-0.1c-4.5-1.9,4.6-2.3,7-3.5c1.8-0.2,3.6-0.4,5.4-0.7c1.2-0.4,2.4-0.8,3.3-1.2
				c2.1-0.8,9.2,0.2,7.8-1.4c5.3,0.3,6.1-0.9,8.6-1.4c1.9-0.9-2.6-1.4-5-1.5c-9.5,1.4-10.4-2.1-17.9,0c-5.6-0.9-15.9-0.4-18.9-1.6
				c-2.5-0.8-4.5-0.9-5-1.8c-4.5,0.2-9.8,1.9-16.1,0.8c-2.8-0.4-1.8-2.3-9.1-2.1c-0.8,0.5-1.5,1-2.3,1.5c-4.9,0.4-8.5-0.7-5-1.5
				c1.3-0.1,3.3,0.2,5.3-0.2c-1.1-0.3-2.1-0.7-3.1-1c-6.3-0.5-12.8,1.3-19.2,1.3c-0.1-0.9-2.8-1.5-7.2-1.6c-2.8,0.8-8.8,1-10.6-0.1
				c-3.6,0.3-7.2,0.6-10.8,0.9c-1.4,0.4-1.1,1-1.4,1.5C103.7,35.1,87.9,37,80,34.1c-4.9,0,1,2.1-5.6,1.7c-6.8-0.4,1.7-3.4-10.1-2.8
				c-0.2,1-0.2,1.2-0.3,1.5c-2-0.1-5.8,0.2-6.3-0.5c-7.5,0.2-1.8,2.5-9.8,1.6c-1.2,0.5-2.2,1-4.5,1.5c-2.9,0.1-5.8,0.1-8.4,0.2
				c0.3-0.5,0.8-1,1.2-1.5c-1.2-0.4-2.7-0.9-4-1.3c-3.1-0.2-8.7,0.3-9.4-0.6c-1-0.9-1.9-1.8-2.6-2.7c-1.9-0.4-3.4-0.9-5.1-1.3
				c-1-0.4-2.1-0.9-3.1-1.3c-1.3,0-2.9,0-4.2,0c0-0.1,0-0.2,0.1-0.3c0.3-0.4,0.8-0.8,1.3-1.2c1.4-0.6-2.3-0.8-2-1.3
				c1.2-0.8,2.5-1.5,3.7-2.2c3.5,1.4,4.3,1.8,6.8,2.8c0,0.2-0.1,0.4-0.1,0.5c1.1,0.3,2.1,0.5,3.2,0.8c0.1,0.5,0.5,0.8,0.7,1.2
				c4.5,0.7,8.9,0.8,11.4,1.9c5.7,0.5,6.8,0.6,10.7-0.6c8.2,1.3,5.6-1.5,11-1.9c7.1-0.1,12.8,2.9,17.9,1.2c1.2,0.5,5.9,0.5,3.9,1.5
				c2.2,0.1,4.2,0.2,6.4,0.3c0.3-0.5-0.7-1.1,1.4-1.5c0.9,0,1.3,0.1,4,1.3c4.1-0.8,10.7-0.2,16-0.3c1.2-3.2,20.5,0.4,22.8-2.8
				c4.3,0.9,9.2-0.5,13.6,0.4c14,0.8,20-3.1,32.1-1.5c1.4-0.5,3.1-1,4.5-1.5c5.9,0.3,16.3,1.5,18.2-0.3c5.6-0.6,4,1.1,7.1,1
				c3.4-1.6,10.4,1.3,10.7-0.6c0.7-0.1,1.2-0.4,2.2-0.2c2.8,0.2,5.2,1.9,8.3,0.5c0.1-0.6,0.2-1.1,0.3-1.7c0.4,0,0.9,0,1.1,0
				c2.4,0,2.7,0.8,6.4,0.1c1.3,0,2.9,0,4.2,0c1.4,0.7,6.3,0.5,9.4,0.6c1.2-0.3,2.3-0.6,3.5-1c1.3,0,2.9,0,4.2,0
				c4,1.3,11.2,1.8,11.6,0.6c3.1-0.1,6.4-0.1,9.5-0.2c3.5,0,7.1-0.1,10.6-0.2c1.7,0.2,5,0.5,6.5-0.4c2.5-0.1,4.9-0.2,7.3-0.2
				c0.9,0,1.5,0,2.2,0c1.4,0.6,5.6,0.7,6.4,0.3c0.8-0.6,4.4,0.1,5.5-1c0.7,0,1.3,0,2,0c0,1.2,5,0.7,8.6,0.1c2,0,4.2-0.1,6.4-0.1
				c2,0,4.2,0,6.2,0.1c2.3-0.2,4.5-0.5,6.5-0.7c4.2,0.2,8.5,0.5,12.7,0.6c5.2,0.6,9.8-0.2,13.7,0.1c0.1,1.9,5.1-0.3,10.8-0.9
				c4.2,0.2,8.3,0.5,12.7,0.9c2,0.9,7.7,0.1,8.2,1.1c2.4,0,5.1-0.1,7.5-0.2c1.7,0.2,5,0.5,6.3-0.4c0.9,0,1.5,0,2.2,0
				c2.2,0,4.2,0,6.4,0.1c3.9,0.4,5.2-0.4,9.6-0.7c3.1,0.1,6.4,0.3,9.4,0.4c1.1,1.2,7,0.6,10.5,0.9c2.6,0.4-1.1,1.4,3.9,1.8
				c0.9,0,1.5,0,2.2,0c4,0,7.7,0.1,11.7,0.1c3.5,0,7.1-0.1,10.6-0.2c1.7,0.1,3.5,0.2,5.2,0.3c8.3,0.6,8.6-1.2,12.8-1.1
				c0.6,0.2,1.5,0.3,1,0.5c2.9,0,5.7,0,8.6,0.1c4.2-0.3,8.5-0.6,12.8-0.9c3.3,0.2,6.3,0.5,9.4,0.8c10.1-1,11.8,2.1,22,1.7
				c3.5,0.3,7,0.7,10.4,1.1c0,0.1,0,0.1,0,0.3C561.2,29.1,559.6,29.7,558.2,30.2z"/>
		</g>
		<g>
			<path class="st4" d="M435.9,14.1c-0.5,0.1-0.9,0.2-1.1,0.2c-0.7,0.4-1.5,0.7-2.4,1c-0.1,0.6-0.2,1.2-0.3,1.8
				c0.4,0.1,0.9,0.2,1.1,0.3c2.2,0.1,2.8-0.8,5.4-0.5c0.6,0.2,1.3,0.3-2.4,1.2c-0.8,1,6,0.9,1.9,1.8c-4.2-0.2-8.3-0.4-12.7-0.6
				c-2.6-0.3-5.4-0.5-8.3-0.8c-1.8,0-3.5,0-5.3,0c-0.3,0.4-0.8,0.8-1.3,1.2c-6.7,0.6-3.3-1.3-10.4-1.4c-0.7,0.1-1.4,0.3-2.1,0.5
				c-0.3,0.4,1.7,0.6-0.3,1.5c-0.9,0-1.5,0-2.2,0c-1.2-0.5-2.7-1-3.9-1.5c-2.5,0.2-5.2,0.5-7.6,0.7c-1.4,0.3-3,0.6-4.4,0.9
				c-0.6-0.2-1.3-0.3-2.1-0.5c-2.6-0.2-5.5-0.4-8.3-0.5c-1.7-0.3-3.4-0.5-5.2-0.8c-2,0.2-4.3,0.3-6.5,0.5c-1.8,0.4-3.7,0.8-5.5,1.2
				c-1,0.4-2.1,0.8-3.3,1.2c-2.2,0-4.2,0-6.4-0.1c-4.8-0.3-8,0.4-14.7-0.9c-1.3,0-2.9,0-4.2,0c-1.8,0.3-0.8,1-3.5,1.2
				c-1.7-0.2-2.5,0.2-7.2-0.6c-1.5,0-2.9,0-4.2,0c-2.2,0-4.4,0-6.4-0.1c-1.8,0.1-3.6,0.3-5.4,0.5c-1.6,0.2-3,0.4-4.3,0.7
				c0,0.3-0.1,0.5-0.1,0.7c-0.9,0-1.5,0-2.2,0c-5-0.3-9.9-0.6-14.7-0.9c-2.9,0.1-5.8,0.2-8.7,0.4c-2.9,0.3-5.6,0.6-8.6,0.9
				c-3.1-0.2-6.4-0.4-9.4-0.6c-2.9,0.1-5.8,0.1-8.6,0.2c-1.7-0.3-3.5-0.3-5.2-0.3c-1,0.4-2.1,0.8-3.3,1.2c-1.1-0.1-2.2-0.2-3-0.3
				c0.8-0.9-0.9-1.4-1.9-2c-2.2,0.1-4.8-0.3-6.4,0.2c-1.4,0.6-3.1,1.1-4.5,1.7c-0.4,0-0.7,0-1.1,0c-0.6-0.6-1.1-1.3-1.6-2
				c-0.9-0.2-2.8-0.7-4.2-1.3c-2.9,0.1-0.7,1.2-4.5,1.5c-1.8,0-3.5,0-5.3,0c-0.3,0.4,0.7,1-1.3,1.2c-1.1,0-2.4,0-3.1-0.3
				c-2.2-0.3-4.1-0.6-6.3-0.8c-4,0-0.6,2.4-6.6,1.2c0.1-0.5,0.2-1,0.3-1.5c-2-0.1-4.2-0.2-6.1-0.3c-1.1,1.1,0.9,1.4,0.4,2.8
				c-0.7,0-1.3,0-2,0c1.1-2.2-8.2,0.3-7.2-1.6c-4.2,0.1-8.4,0.1-12.6,0.1c-0.9,0.1-1.6,0.3-2.3,0.4c-2.2-0.1-4.2-0.2-6.4-0.3
				c-3.9-0.6-4.5-0.7-5.2-0.8c-4.5,0.4-1.9-0.6-4-1.3c-0.7,0-1.3,0-2.2,0c-2.2,0,0.1,1-2.2,1.2c-5.2-0.6-6.6,1-11.8,0.4
				c-1.8,0.4-5.8,0.3-4.4,1.2c-1.8,0.1-3.6,0.3-5.4,0.4c-1.4,0.4-0.6,0.9-4.4,1.5c-1.5-0.2-2.8-0.3-4.3-0.5
				c-6.5,0.3-11.4-0.3-9.7,0.9c-2.1,0.6-3.7-0.3-6.4-0.1c-0.9,0.3-2.1,0.6-3.3,1c-1.1-0.3-2.1-0.7-2.9-1c-3.3-0.1-6.4-0.2-9.7-0.4
				c-3.8-0.1-7.7-0.2-11.4-0.4c0.1-0.6,0.2-0.9,0.2-1.2c-1.9-0.4-3.4-0.9-5.1-1.3c0.3-0.5,0.8-1,1.2-1.5c1.6,0,2.9-0.1,4.5-0.2
				C63,20,67,19.7,70.8,19.5c0-0.2,0.1-0.3,0.1-0.5c3.3,0.1,6.4,0.2,9.7,0.3c0.3-0.5,0.8-1,1.1-1.4c2.2,0.2,4.4,0.4,6.3,0.5
				c2-0.2,0.8-0.8,1.3-1.2c0.7,0,1.3,0,2.2,0c0.9,0,2,0,3.1,0c0,0.2-0.1,0.4-0.1,0.5c-0.1,0.5-0.2,1-0.3,1.5
				c-1.4,0.1-2.9,0.3-4.3,0.4c0.5,0.7,1.1,1.4,1.6,2c8.1-0.8,14.1-1,16.3-2.1c7.2-0.7,17.4,0.3,20.5-1c-3.3-0.2-4.4-0.2-5.3-0.3
				c-1.3-1.1,1.9-1.8,7.5-1.4c-1.1-1.1,1.6-1.6,1.5-2.2c4.9,1,5.6-0.7,10.7-0.4c0.1-0.4,0.1-0.8,0.2-1.2c0.7-0.1,1.4-0.3,2.3-0.5
				c3.7,0.1,7.7,0.3,11.4,0.4c5.1,0.1,9.9,0.1,15,0.1c3.7,0.2,7.7,0.4,11.4,0.6c1.7,0.2,3.5,0.4,5.2,0.5c9.1,1,5.7-1,10.8-0.9
				c3.9,0.3,7.6,0.6,11.6,0.9c7.4,0.7,11.9,0.2,12.6,1.4c2.8-1,7.1-0.4,8.6-0.9c8-0.4,15.7,0.2,24.6-0.2c3.3-0.1,7.1-0.2,10.7-0.4
				c0.9,0,2,0,3.1,0c0.6,0.4,1.2,0.7,2,1c4,0.2,5.1-0.2,6.3-0.4c6.3-0.4,17,0,24.5,0c0.3-0.3,0.8-0.5,1.2-0.7
				c1.7,0.2,3.3,0.3,5.2,0.5c2,0,4.2,0,6.2,0.1c2.3-0.4,4.6-0.9,6.7-1.4c1.8,0,3.5-0.1,5.3-0.2c0.4,0.3,0.5,0.7,0.9,1
				c9.1-1.5,13.7,1.1,22.3,0c-1.5,0.9,3.6,1,5.2,0.6c1.1,0.1,2,0.2,3.1,0.2c0.5,0.7,1.1,1.4,1.9,2c3.7,0.2,7.7,0.4,11.4,0.6
				c2.7,0,5.1-0.1,7.5-0.1c2.6-0.8,5.4-1.6,7.9-2.4c-1-0.4-2.1-0.7-3.1-1.1c3.7-0.7,6.3-0.7,8.7-0.6c0.9,0.1,2,0.2,3,0.3
				c1.8-0.2,3.6-0.5,5.4-0.7c1.1,0.2,2.1,0.4,3,0.6c4.7-0.2,9.4-0.4,14-0.6c2.4,0.5,4.7,1,7,1.5C429.5,14.1,432.6,14.1,435.9,14.1z"
				/>
		</g>
		<g>
			<path class="st2" d="M397.7,25.2c7.4,1.9-1.7,2.1-2.2,1.2C396.2,26,396.9,25.6,397.7,25.2z"/>
		</g>
		<g>
			<path class="st3" d="M677.8,20c-2.4-0.1-5-0.3-7.5-0.3c1.2-0.7,2.5-1.3,3.7-2c1.8,0,3.5,0,5.3,0c0.8,0.5,1.8,0.9,2.9,1.3
				C680.8,19.3,679.2,19.6,677.8,20z"/>
		</g>
		<g>
			<path class="st3" d="M605.1,28.5c-0.3,0.5-3,0.8-5.5,1.2c-1.4,0.4-3,0.6-4.4,0.9c-1.3-0.2-2.8-0.3-4.1-0.5
				c-1.4,0.1-2.9,0.3-4.3,0.4c-0.8-0.3-1.4-0.6-2-1c1.2-0.2,2.3-0.5,3.2-0.7c0.5-0.1,0.9-0.3,1.2-0.5c3.3,0.3,6.3,0.6,9.3,0.9
				c1-0.8-1.4-2,2.7-2.5c1.7,0.2,3.5,0.3,5.2,0.5C606.2,27.6,605.7,28,605.1,28.5z"/>
		</g>
		<g>
			<path class="st3" d="M570.4,33.9c-3.8-1-9.6,0.7-11.6-0.6c0-0.3,0.1-0.5,0.1-0.7c2.1-0.4,4.3-0.8,6.6-1.2
				c1.8-0.1,3.6-0.2,5.3-0.2c0.2,0,0.7,0,0.9,0c1,0.5,1,0.7,0.9,1C571.9,32.7,571.1,33.3,570.4,33.9z"/>
		</g>
		<g>
			<path class="st3" d="M548.6,36.9c-0.8-0.3-1.4-0.7-2-1c0.5-0.4,0.8-0.8,1.3-1.2c1.3-0.1,2.9-0.3,4.3-0.5c1,0.4,2.1,0.8,2.9,1.3
				C555.5,36.4,550.7,36.4,548.6,36.9z"/>
		</g>
		<g>
			<path class="st3" d="M547.3,31.9c-1.7-0.2-3.5-0.4-5.2-0.6c-3.4,0.7-5.6,0.4-7.6,0.5c-2.7,0.1-5.5,0.1-8.4,0.2
				c-2.2,0-4.2,0-6.4-0.1c-1.8-0.1-3.5-0.2-5.2-0.3c-2.4-0.2-9.1,0.3-11.6-0.6c-1.5-0.4-1.1-1.4-5.1-1c-2.7,0.1-6.8-0.1-5.1-1
				c1.3-0.9,6.5-0.2,9.8-0.4c0.7-0.4,1.5-0.8,2.2-1.2c3.5,0.3,7,0.3,10.6,0.4c0.8,0.6,1.3,1.2,1.9,1.8c1.3,0,2.9,0,4.2,0
				c3.6-0.2,7.2-0.5,10.7-0.7c0.4,0,0.7,0,1.1,0c3.9,0.5,7.6,0.9,11.5,1.4c0.9,0,2,0,3.1,0C547.4,30.9,547.4,31.4,547.3,31.9z"/>
		</g>
		<g>
			<path class="st3" d="M523.8,44.4c-0.2-0.1-0.6-0.2-1.1-0.3c0.1-0.7,0.3-1.5,0.4-2.2c1.8-0.1,3-0.7,5.4-0.5c1,0.8,2,1.5,2.9,2.3
				C528,43.4,527.1,44.7,523.8,44.4z"/>
		</g>
		<g>
			<path class="st3" d="M409.3,8.1c-2.5,0.3-5.2,0.6-7.7,0.9c-0.2,0-0.7,0-1.1,0c0-0.1,0-0.2,0-0.3c0.5-0.4,1-0.8,1.3-1.2
				c1.2-0.7,6.5-0.7,7.5,0.1C409.3,8,409.3,8.1,409.3,8.1z"/>
		</g>
		<g>
			<path class="st3" d="M385.6,15.9c-2.9,0-3,0.8-4.5,1.4c-0.4-0.1-0.6-0.2-1.1-0.2c-2.4,0-4.9,0.1-7.5,0.1
				c-3.7-0.2-7.7-0.4-11.4-0.6c-0.8-0.7-1.3-1.4-1.9-2c1.4-0.2,3-0.4,4.3-0.7c1.8,0,3.5,0,5.3,0.1c2.7,0.9,4.2,0.1,6.4,0.1
				c5.9,0.5,4.5-0.5,6.5-0.5c1.1,0,2,0,3.1,0c1,0.4,2.1,0.7,3.1,1.1C387.1,15.1,386.3,15.5,385.6,15.9z"/>
		</g>
		<g>
			<path class="st3" d="M318.1,7.5c0.7-0.4,1.5-0.8,2.4-1.2c4.3-0.7,3,0.3,6.2,1.3C323.8,7.6,321,7.6,318.1,7.5z"/>
		</g>
		<g>
			<path class="st3" d="M289.5,8.2c-2.9-0.1-5.7-0.2-8.6-0.3c-0.2,0-0.7,0-1.1,0c-3.1,0-6.2-0.1-9.5-0.1c-3.5-0.1-7-0.2-10.5-0.4
				c-1.5-0.5-5.1,0-6.3-0.8c7.1-1.5,13.5-0.3,20.6-1.3c2.9,0.1,3.8,1.2,7.1,1.3c1.8-0.1,3.6-0.3,5.4-0.4c5-0.5,3.6,0.8,5,1.8
				C290.8,8.1,290.1,8.2,289.5,8.2z"/>
		</g>
		<g>
			<path class="st5" d="M287,9.7c-2.2,0-4.2,0-6.4-0.1c-1.1,0.2-2.1,0.4-3.2,0.7c-6.1-0.5-7.6-0.5-9.4-0.8c-1.6,0-2.9,0.1-4.5,0.2
				c-3.8,0.1-7.8,0.2-11.6,0.4c-5-0.5-7.6-0.6-7.5-0.1c-1.8,0-3.5,0-5.3-0.1c0.1,0.9-4.2,0.3-6.4,0.2c-4.7,0.1-9.3,0.1-13.7,0.1
				c-1.1,0-2.2,0-3.3,0c-0.2,0-0.7,0-0.9,0c-1-0.4-2.1-0.9-3.1-1.3c-2.5,0.4-6.2,0.1-8.5,0.6c-0.4,0-0.9,0-1.1,0
				c-3.1,0-6.4-0.1-9.5-0.1c-0.9,0-1.6,0-2.2,0c-2.9-0.1-5.5-0.2-8.3-0.3c-1.1-0.3-2.1-0.6-3.1-1c0.5-0.4,1-0.8,1.3-1.2
				c7.5,0,14.8,0,22.3,0c2.2,0,4.2,0,6.4,0.1c3.8,0,7.7-0.1,11.7-0.1c3.1-0.2,6.2-0.3,9.6-0.4c3.8,0,7.7,0.1,11.7,0.1
				c4-1.5,6.3,0.8,11.5,0.1c1.2,0.8,4.8,0.3,6.3,0.8c3.5,0.1,7,0.3,10.5,0.4c3.3,0,6.4,0.1,9.5,0.1c0.5,0,0.9,0,1.1,0
				c2.9,0.1,5.7,0.3,8.6,0.3C288.5,8.7,287.7,9.2,287,9.7z"/>
		</g>
		<g>
			<path class="st3" d="M230.3,6.4c-3.3,0.1-6.5,0.2-9.6,0.4c0.1-0.3,0.1-0.5,0.1-0.8C223.9,6.2,227,6.3,230.3,6.4z"/>
		</g>
		<g>
			<path class="st3" d="M209,6.9c-2.2,0-4.2,0-6.4-0.1c2.2-1.4,3.8-0.4,6.5-0.4C209.1,6.6,209,6.8,209,6.9z"/>
		</g>
		<g>
			<path class="st3" d="M147.3,7.1c-0.2,0.2-0.7,0.3-1,0.5c-4,0.1-8,0.1-11.7,0.2c-0.9-0.2-1.5-0.3-2.1-0.5
				c5.5-1.3,8.3-1.9,15.1-1.4C147.4,6.3,147.4,6.7,147.3,7.1z"/>
		</g>
		<g>
			<path class="st1" d="M683,20.8c-3.3,0.1-4.4-0.1-5.2-0.8c1.4-0.4,3-0.6,4.4-1c0.6,0.1,1.3,0.2,2.2,0.3
				C683.8,19.8,683.3,20.2,683,20.8z"/>
		</g>
		<g>
			<path class="st1" d="M595.2,30.6c-2.6,1.1-7.3,1.1-9.6,0.7c0.3-0.3,0.8-0.5,1.2-0.8c1.3-0.1,2.9-0.3,4.3-0.4
				C592.4,30.3,594,30.4,595.2,30.6z"/>
		</g>
		<g>
			<path class="st1" d="M523.8,44.4c-2.9,1.5-7.5,1.2-9.7,0.9c-0.6-0.4-1.2-0.8-2-1.3c3-0.5,8.5-0.8,10.6,0.1
				C523.2,44.2,523.7,44.3,523.8,44.4z"/>
		</g>
		<g>
			<path class="st1" d="M220.7,6.8c-4,0-8,0.1-11.7,0.1c0-0.2,0.1-0.3,0.1-0.5c0.5-1.3,2.4-1.1,3.4-1.5c4.4,0,3.8,1.1,8.4,1.1
				C220.8,6.3,220.8,6.6,220.7,6.8z"/>
		</g>
		<g>
			<path class="st1" d="M178.9,8.1c-1.3,0-2.9,0-4.2,0c-2.8-0.3-5.4-0.5-8.3-0.8c0-0.3,0.1-0.5,0.1-0.8c5.3-0.1,9.8-1.5,13.6,0.4
				C180,7.3,179.4,7.7,178.9,8.1z"/>
		</g>
		<g>
			<path class="st1" d="M153.7,7.2c-2,0-4.2,0-6.4-0.1c0.1-0.4,0.1-0.8,0.2-1.2c2.2,0.2,4.4,0.3,6.3,0.5
				C153.8,6.7,153.7,6.9,153.7,7.2z"/>
		</g>
		<g>
			<path class="st4" d="M684.3,19.3c-0.9-0.1-1.5-0.2-2.2-0.3c-1-0.4-2.1-0.8-2.9-1.3c0.2-0.1,0.7-0.3,1-0.5c2.2,0,4.4,0,6.4,0.1
				C690.2,18.7,687.9,19.2,684.3,19.3z"/>
		</g>
		<g>
			<path class="st4" d="M618.9,16.7c-1.1,0-2.2,0-3.1,0c-1.8,0.2-3.6,0.4-5.4,0.7c-0.5,0-0.9,0-1.1,0c-1.3,0-2.9,0-4.2,0
				c-0.9,0.1-1.6,0.2-2.2,0.2c-0.6-1.7-5.9-1.5-12.5-1.9c-1.6,0.3-4,0.2-6.2,0.2c-2.4-0.3-5-0.5-7.4-0.8c-0.2-0.2-0.6-0.3-1-0.5
				c3.5-0.1,7.1-0.2,10.7-0.4c0.1-0.4,0.1-0.7,0.2-1c3.5,0,7.1-0.1,10.6-0.1c2.5,0.6,5.6,0.9,9.3,1.1c3.5,0,7.3,0.1,10.6,0.1
				c3.5,0.1,2.3,1,4.9,2.3C621.2,16.5,620,16.6,618.9,16.7z"/>
		</g>
		<g>
			<path class="st4" d="M585.6,31.3c-0.7,0-1.3,0-2.2,0c-2.5,1.4-7.2,0.8-10.8,0.9c0-0.3,0.1-0.5-0.9-1c2.2-0.2,4.5-0.5,6.5-0.7
				c0.9-0.3,1.7-0.6,2.4-1c1.3,0,2.9,0,4.2,0c0.6,0.4,1.2,0.7,2,1C586.4,30.8,585.9,31,585.6,31.3z"/>
		</g>
		<g>
			<path class="st4" d="M570.1,29.1c-2.4-0.2-5-0.4-7.4-0.5c0-0.1,0-0.2,0-0.3c3.6-0.2,1.8-1.8,5.5-1.2c1,0.5,2,1,3,1.5
				C570.8,28.8,570.3,29,570.1,29.1z"/>
		</g>
		<g>
			<path class="st4" d="M553.7,32c-1.1,0.1-2.2,0.1-3.4,0.2c-0.9-0.1-2-0.2-3-0.3c0.1-0.5,0.2-1,0.3-1.8c2.2,0.1,4.2,0.2,6.4,0.3
				C553.8,31.1,553.8,31.5,553.7,32z"/>
		</g>
		<g>
			<path class="st4" d="M505.8,20.3c-1.5,0.9-0.5,1.5-2.2,1.2c-5.6,0.5-2.8-1.6-1.9-1.8C503,20,504.5,20.1,505.8,20.3z"/>
		</g>
		<g>
			<path class="st4" d="M495.4,18.7c1.1-1,1.7-1.1,2.4-1.2c3.6-0.3,2.3,0.8,2.8,1.8C498.9,19.1,497.2,18.9,495.4,18.7z"/>
		</g>
		<g>
			<path class="st4" d="M488.9,19.4c0.7,1.1-1.6,1.8-5.5,1.4c0.5-0.3-0.8-0.6-1.9-0.5c-4.8-0.4-4.3,0.7-9.6,0.6
				c0.7,1.2-1.9,1-4.6,0.9c-2,0-4.2,0-6.2-0.1c-1.8,0.1-3.6,0.2-5.4,0.2c-0.4-0.5-0.7-1-0.8-1.5c-0.6-0.1-1.3-0.2-2.2-0.2
				c-2.4,0-4.9,0.1-7.3,0.1c-5.9-1.5,7.2-0.7,1.3-2.2c1.5,0,8.2-1.6,7.5,0.3c1.1,0.1,2.2,0.2,3,0.3c4.3-0.4,3-0.9,3.5-1.2
				c5.8-0.1,7.7,0.4,12.5,0.6C473.7,20.1,483.7,19,488.9,19.4z"/>
		</g>
		<g>
			<path class="st4" d="M450.6,14.5c-2.2-0.1-2.8,0.8-5.4,0.5c-0.6-0.2-1.3-0.3-1-0.5c-2.9-0.1-5.5-0.2-8.3-0.3
				c2.9-1.5,9.7-1.1,12.8-0.9c0.5,0,0.9,0,1.1,0c1.4-0.1,2.9-0.3,4.3-0.4c0.9,0,1.5,0,2.2,0c1.9,0.3,4.1,0.7,6.2,1.1
				c2.9-0.3,2.8,0.5,4,1c-4-0.1-5.3,1.2-9.6,0.6C454.7,15.2,452.5,14.9,450.6,14.5z"/>
		</g>
		<g>
			<path class="st4" d="M381.8,13.6c-2.2,1.5-4,0.4-6.5,0.5c-2.2,0-3.7,0.9-6.4-0.1c1.2-0.4,2.4-0.8,3.5-1.2c0.7,0,1.3,0,2,0
				c1.1,0,2.2-0.1,3.4-0.2C379,12.9,380.5,13.3,381.8,13.6z"/>
		</g>
		<g>
			<path class="st4" d="M166.5,7.3c-1.8,0.3-3.6,0.6-5.5,0.9c-1.6,0-2.9,0-4.2,0c-1-0.3-2.1-0.7-3.1-1c0-0.3,0.1-0.5,0.1-0.8
				c4.2,0,8.6,0.1,12.8,0.1C166.6,6.8,166.5,7,166.5,7.3z"/>
		</g>
		<g>
			<path class="st6" d="M143.1,13c-0.1,0.4-0.1,0.8-0.2,1.2c-5.1-0.3-5.8,1.4-10.7,0.4c0.1,0.6-2.6,1.2-1.5,2.2
				c-5.7-0.4-8.9,0.3-7.6,1.4c0.9,0,2,0,5.3,0.3c-3.1,1.3-13.3,0.3-20.5,1c-2.2,1.2-8.2,1.4-16.3,2.1c-0.6-0.7-1.1-1.4-1.6-2
				c1.3-0.1,2.9-0.3,4.3-0.4c0.1-0.5,0.2-1,0.3-1.5c0-0.2,0.1-0.3,0.1-0.5c-1.1,0-2.2,0-3.1,0c-0.9,0-1.6,0-2.2,0
				c-0.5,0.4,0.7,1-1.3,1.2c-2-0.2-4.1-0.4-6.3-0.5c-0.3,0.5-0.8,1-1.1,1.4c-3.3-0.1-6.4-0.2-9.7-0.3c0,0.1-0.1,0.3-0.1,0.5
				C67,19.8,63,20,59.2,20.2c-1.6,0-2.9,0.1-4.5,0.2c-0.3,0.5-0.8,1-1.2,1.5c-3.2-0.3-6.3-0.7-9.5-1.1c-0.7,0.1-1.3,0.1-2,0.2
				c-1.2,0.5-2.4,1-3.6,1.5c-2.4,0-4.8,0-7.3-0.1c-2.5,0.3-5.2,0.6-7.7,0.9c-1.2-0.6-2.7-1.2-3.9-1.8c0.3-0.6,0.9-1.1,1.4-1.7
				c-1.8-0.1-3.5-0.2-5.2-0.3c-0.4-0.3-0.8-0.7-0.9-1c-1.3-0.4-2.8-0.7-4-1.1c1.2-0.5,2.2-1,3.4-1.4c-0.5-0.9-1-1.8-1.5-2.8
				c0.9,0,2,0,3.1,0c1.2,0.7,2.6,1.3,3.9,2c-0.7,0.2-1.4,0.5-2.1,0.8c0.6,0.2,1.3,0.3,1.9,0.5c2.2,0.1,4.2,0.2,6.4,0.3
				c-0.1,0.4,2.1,0.7,2.9,1.3c1.1-0.2,2.3-0.5,3.4-0.7c1.3,0,2.9,0,4.2,0c1.2-0.6,2.4-1.2,3.4-1.7c0.4,0,0.9,0,1.1,0
				c0.1-0.4,0.1-0.8,0.2-1.2c1.3,0,2.9,0,4.2,0c1,0.7,3.5,0.4,7.6-0.4c2.9,0,5.5,0.1,8.4,0.1c2.2,0,4.4,0,6.4,0.1
				c2.1-0.3,0.8-1,1.4-1.4c0.2-0.1,0.7-0.2,1.2-0.2c2.5-0.1,4.9-0.3,7.4-0.4c4,0,7.8-0.1,11.7-0.1c4,0.1,7.7,0.3,11.7,0.4
				c2.2,0.1,4.2,0.2,6.3,0.3c0.6,0.3,1.2,0.5,1.9,0.8c1.8,0.1,3.5,0.2,5.3,0.3c0.4,0.4,0.8,0.7,2,1.3c1.8-0.4,3.7-0.8,5.5-1.2
				c-1.6-1.1,3.6-1.4,2.6-2.5c0.2-0.1,0.7-0.1,0.9-0.2c1.5,0.1,2.8,0.2,4.4,0.3c1.7,0.4,3.2,0.7,5.1,1
				C137.5,12.7,140.3,12.9,143.1,13z"/>
		</g>
		<g>
			<path class="st4" d="M19.6,21.5c-1.8,0-3,0.5-7.6,0.7c-5-0.4-1.6-1.2-1.7-1.8c1.8-0.3,3.2-0.9,5.5-0.9c1.8,0.1,3.5,0.2,5.3,0.3
				C20.5,20.4,19.9,21,19.6,21.5z"/>
		</g>
		<g>
			<path class="st6" d="M578.3,30.4c-2,0.2-4.3,0.5-6.5,0.7c-0.2,0-0.7,0-0.9,0c-0.3-0.7-0.6-1.4-0.7-2c0.2-0.1,0.7-0.3,1.2-0.5
				c1.3-0.1,2.9-0.3,4.3-0.5c0.7,0,1.3,0,2,0c1,0.4,2.1,0.9,3.1,1.3C579.9,29.8,579.2,30.1,578.3,30.4z"/>
		</g>
		<g>
			<path class="st6" d="M586.4,14.1c-3.1,0.3-6.5,0.6-9.7,0.9c-0.2-0.2-0.6-0.3-1-0.5c-2.4-0.2-4.8-0.4-7.2-0.5
				c-1.9,0.9-5.4,0.6-7.6,0.6c-2.4-0.1-4.8-0.2-7.5-0.3c-1.4,0.2-2.7,0.3-4.3,0.5c-1-0.3-1.9-0.5-3-0.8c-1.8-0.1-3.5-0.2-5.3-0.3
				c-2.4-0.1-5-0.3-7.5-0.3c0.5-0.3,1-0.7,1.3-1c2.2,0.2,4.1,0.5,6.3,0.8c-0.4-1.5-3.8-1.2-6.2-1.3c0-0.3,0.1-0.5,0.1-0.7
				c2.9-0.3,5.9-0.6,8.6-1c2.6,0.3,5,0.6,7.4,0.9c3.5,0.2,7,0.4,10.5,0.6c-1.2,0.5-2.4,1-3.4,1.5c0.8,0.2,1.9,0.4,3,0.6
				c2.2-0.1,4.2-0.3,6.5-0.5c0.3-0.3,0.8-0.7,1.3-1c2.4,0.1,4.8,0.2,7.2,0.3c3.5,0.2,7,0.4,10.5,0.6
				C586.6,13.4,586.5,13.8,586.4,14.1z"/>
		</g>
		<g>
			<path class="st6" d="M567.6,13.2c-2.2,0.2-4.3,0.3-6.5,0.5c-1.1-0.2-2.2-0.3-3-0.6c1-0.5,2.2-1,3.4-1.5c2.4,0.2,5,0.4,7.4,0.6
				C568.4,12.5,567.9,12.9,567.6,13.2z"/>
		</g>
		<g>
			<path class="st6" d="M541.1,13.2c-2.2-0.3-4.1-0.6-6.3-0.8c-0.3,0.3-0.8,0.7-1.3,1c-2.4,0-4.9-0.1-7.3-0.1
				c-3.3,0-6.4-0.1-9.7-0.1c-1.9-0.4-3.6-0.8-5.2-0.8c-1.8,0.1-3.4,0.2-5.3,0.2c-7.3,0.1-14.9,0.2-22.2,0.3c-0.4,0-0.9,0-1.1,0
				c-4.5-0.8-5.8-0.8-8.5-0.9c0,0.3-0.1,0.5-0.1,0.8c-0.7,0-1.3,0-2,0c-3.9-0.4-5.6-0.6-6.2-1.1c-2.4,1.2-5.7,0.8-7.6,0.6
				c-0.7,0.1-1.4,0.3-2.1,0.5c-0.7,0-1.3,0-2.2,0c-1.4,0.1-2.9,0.3-4.3,0.4c-0.2,0-0.7,0-1.1,0c-1-0.5-1.8-1-2.8-1.5
				c0.2-0.1,0.7-0.1,1.1-0.2c1.8,0,3.5,0,5.3,0.1c0.1-0.4,0.1-0.7,0.2-1c2-0.2,4.3-0.4,6.3-0.7c0.9,0.1,1.5,0.2,2.2,0.3
				c0.4,0,0.7,0,1.1,0c7.9-1.1,9.5,0.1,13.7,0.1c4.6-0.1,9.3-0.1,13.9-0.1c2.5,1.8,4.5,0.6,7.2,0.6c2.4-0.1,5.1-0.2,7.5-0.2
				c6.8-0.7,12.7,0.5,20,0.4c3.5,0,7.1,0.1,10.6,0.1c0,0.2-0.1,0.5-0.1,0.7C537.3,12,540.7,11.7,541.1,13.2z"/>
		</g>
		<g>
			<path class="st6" d="M419.3,11.5c-0.1,0.4-0.1,0.7-0.2,1c-4.7,0.2-9.4,0.4-14,0.6c-0.9-0.2-1.9-0.3-3-0.6c-1-0.4-2.1-0.8-2.9-1.3
				c-2.2,0.2-4.5,0.3-6.5,0.5c-2.8-0.2-5.7-0.4-8.5-0.6c-2.1,0.8-6.6,0.9-6.4,1.4c-1.1,0.1-2.2,0.2-3.4,0.2c-0.7,0-1.3,0-2,0
				c-1.7-0.3-3.4-0.6-5.2-0.8c-3,0.5-7.7-0.1-10.7,0.4c-1.7-0.3-3.5-0.5-5.2-0.8c-3-0.4-5.2,0.7-7.5-0.3c-3.5,0-7.1-0.1-10.6-0.1
				c-1.8,0.1-3.6,0.3-5.4,0.5c-0.6-0.1-1.3-0.2-1.9-0.3c-2.7,0.2-5.1,0.4-7.6,0.6c-1.3-0.2-2.8-0.3-4.1-0.5
				c-2.3,0.3-4.3,0.6-6.6,0.9c-1.7-0.3-3.4-0.6-5.2-0.8c-5,0.9-11.6,0.6-16.1,1.4c-0.9,0.3-8.3,0.5-7.5-0.3
				c-2.5-0.8-11.4,0.5-9.3-1.3c6.5-0.1,4.4-1.1,7.7-0.9c7.4,0.6,10.3,0.6,12.6,0.1c2.3-0.3,4.5-0.6,6.6-0.9c2.1,0.3,4.1,0.7,6.2,1
				c3.3,0.1,6.6,0.1,9.6-0.6c-3.4-0.6-6.9-1.1-10.3-1.6c1.3-1,1.3-1.2,1.4-1.5c5.2,0.4,9.9,0.5,14.7,0.7c2.9,0,5.7,0.1,8.6,0.1
				c3.3,0.1,7,0.2,10.5,0.4c0.2,0,0.7,0,0.9,0c7-0.8,12.1-0.8,22.3,0.2c4.2,0.2,8.3,0.4,12.7,0.6c-1.8,0.4-3.7,0.8-5.5,1.2
				c1.3,0.3,2.8,0.6,4,0.8c4,0,6.2-1.2,9.8-1.4c4.4-1.4,14-1.5,19.1-0.6c0.4,0.1,0.9,0.2,1.1,0.3c1.5,0.3,2.8,0.5,4.1,0.8
				c2.4,0,4.6-0.1,6.3,0.5c1.8,0,3.6-0.1,5.4-0.2c0.9,0,1.5,0,2.2,0C419.4,10.8,419.4,11.1,419.3,11.5z"/>
		</g>
		<g>
			<path class="st6" d="M265.2,12.7c-2.2-0.2-4.1-0.4-6.3-0.5c-1.1-0.2-1.9-0.4-3-0.6c-0.9,0.1-1.6,0.3-2.3,0.5
				c-4,0-7.7-0.1-11.7-0.1c0.1,0.9-4,0.1-5.4,0.7c-4,0.1-3.1-0.9-7.1-1.1c-1.2,0.7-1.3,1-1.3,1.2c-2.4,0-5.1-0.1-8.4-0.1
				c-3,0.9-5.5,1.1-6.5,0.7c-0.4-0.3-0.8-0.7-0.9-1c-6.3-0.4-9.7-0.1-12.9,0.4c-2.4,0-4.9-0.1-7.3-0.1c-1.5-0.3-2.8-0.6-4.1-0.8
				c-1.6,0.5-3.1,1-4.7,1.5c-1.3-0.3-2.8-0.7-4-1c-1.3,0-2.9,0-5.3-0.1c-0.7,0.2-1.4,0.4-2.1,0.7c-5.1-0.1-9.9-0.1-15-0.1
				c-0.7-0.9-1.7-1.8-2.6-2.8c1.8,0.1,3.5,0.2,5.2,0.3c5.8,1,7.7,0.3,8.4-0.2c3.2-0.4,4.6,0.1,6.3,0.8c1.8-0.1,3.6-0.3,5.4-0.5
				c2.4,0.3,5,0.6,7.4,0.9c2.1-0.4,4.3-0.8,6.6-1.2c4.2,0.2,5.2,0.3,8.5-0.7c0.2,0,0.7,0,1.1,0c2.3-0.6,6-0.2,8.5-0.6
				c1,0.4,2.1,0.9,3.1,1.3c0.2,0,0.7,0,0.9,0c1.1,0,2.2,0,3.3,0c4.4-0.1,9.1-0.1,13.7-0.1c2.2,0.1,6.5,0.7,6.4-0.2
				c1.8,0,3.5,0,5.3,0.1c-0.1-0.6,2.5-0.4,7.5,0.1c3.8-0.1,7.8-0.2,11.6-0.4c-0.1,0.3-0.1,0.7-0.2,1c1.5,0.2,2.8,0.3,4.3,0.5
				C266.7,11.8,266,12.3,265.2,12.7z"/>
		</g>
		<g>
			<path class="st7" d="M145.4,12.5c-1.5-0.5-2.7-1-4.2-1.5c2-1.2,3.4-1.7,1.5-2c-3.5-0.4-1.9,0.9-5.4,0.5c-1.1-0.1-2-0.2-3.1-0.3
				c0.1-0.5,0.2-1,0.3-1.5c3.8,0,7.8-0.1,11.7-0.2c2.6,0.5,5.3,1.1,8.1,1.6c-0.1,0.4-0.1,0.7-0.2,1c1.8,0.1,3.5,0.2,5.2,0.3
				c-0.8,0.8-1.6,1.6-2.6,2.5C153.1,12.8,149.2,12.7,145.4,12.5z"/>
		</g>
		<g>
			<path class="st6" d="M143.1,13c-2.9-0.2-5.7-0.4-8.3-0.6c1.8-0.4,3.5-0.9,5.6-1.4c0.2,0,0.7,0,0.9,0c1.5,0.5,2.7,1,4.2,1.5
				C144.5,12.7,143.8,12.9,143.1,13z"/>
		</g>
		<g>
			<path class="st6" d="M124.4,11.4c0.9,1.1-4.2,1.4-2.6,2.5c-1.8,0.4-3.7,0.8-5.5,1.2c-1.2-0.5-1.6-0.9-2-1.3
				c-1.8-0.1-3.5-0.2-5.3-0.3c-0.6-0.2-1.2-0.5-1.9-0.8c1.4-0.3,3-0.6,4.4-0.9c3.6-0.1,7.1-0.2,10.7-0.4
				C122.9,11.3,123.5,11.4,124.4,11.4z"/>
		</g>
		<g>
			<path class="st6" d="M68.9,12.8c1.7,1.5-3,1.9-6.8,2.2c-0.2-0.3-0.6-0.5-1-0.8c-2.9,0-5.5-0.1-8.4-0.1c-4.1,0.9-6.6,1.2-7.6,0.4
				c-1.3,0-2.9,0-4.2,0c-0.1,0.4-0.1,0.8-0.2,1.2c-0.2,0-0.7,0-1.1,0c-1.3-0.2-2.8-0.3-4.1-0.6c0.1-0.4,0.1-0.8,0.2-1.2
				c2.8-0.6,7.2-0.9,11.9-0.9c1.8-0.3,3.7-0.6,5.5-0.9c2.8,0.3,5.4,0.7,8.2,1.1C63.8,13.1,66.4,13,68.9,12.8z"/>
		</g>
		<g>
			<path class="st6" d="M66,16.8c-1.9,0.7-4.9,0.4-7.4,0.5c0.1-0.5,0.2-1,0.3-1.5c1.1,0,2,0,3.1,0C63.2,16.1,64.7,16.4,66,16.8z"/>
		</g>
		<g>
			<path class="st6" d="M32,17.5c-1.1,0.2-2.3,0.5-3.4,0.7c-0.8-0.6-2.9-0.9-2.9-1.3c-2.2-0.1-4.2-0.2-6.4-0.3
				c-0.6-0.2-1.3-0.3-1.9-0.5c0.7-0.2,1.4-0.5,2.1-0.8c-1.2-0.7-2.6-1.3-3.9-2c1.8-0.1,3.6-0.1,5.3-0.2c0.6,0.5,1.1,1,1.9,1.5
				c2,0,4.2,0,6.2,0.1c1,0.4,2.1,0.9,3.1,1.3C32.2,16.4,32.1,16.9,32,17.5z"/>
		</g>
		<g>
			<path class="st6" d="M588,28.8c-0.9,0.2-2.1,0.5-3.2,0.7c-1.3,0-2.9,0-4.2,0c-1-0.4-2.1-0.9-3.1-1.3c3.4-0.2,6.5-0.4,9.8-0.6
				c0.6,0.3,1.2,0.5,1.9,0.7C589,28.5,588.5,28.7,588,28.8z"/>
		</g>
		<g>
			<path class="st6" d="M565.5,31.3c-2.3,0.4-4.5,0.8-6.6,1.2c-1.7-0.2-3.5-0.4-5.2-0.6c0.1-0.4,0.2-0.8,0.3-1.5
				c1.3,0,2.9-0.1,4.2-0.2c1.4-0.6,3.1-1.1,4.5-1.7c2.4,0.2,5,0.4,7.4,0.5c0.1,0.7,0.4,1.4,0.7,2C569.1,31.2,567.3,31.3,565.5,31.3z
				"/>
		</g>
		<g>
			<path class="st6" d="M516.5,13.2c-1.4,0.7-4.3,0.4-7.4,0.4c-6.5,0.5-17.1-0.9-22.4,0.6c-4,0.3-0.7-0.9-4-1.3
				c-2.9,0-5.7-0.1-8.6-0.1c0-0.3,0.1-0.5,0.1-0.8c3.3,0.3,6.3,0.6,9.6,0.9c7.3-0.1,14.9-0.2,22.2-0.3c2,0,3.6-0.1,5.3-0.2
				C512.9,12.4,514.6,12.8,516.5,13.2z"/>
		</g>
		<g>
			<path class="st6" d="M469.6,15c-1.1,0-2,0-3.1,0c-1.2-0.5-1.1-1.3-4-1c-2.2-0.3-4.3-0.7-6.2-1.1c0.7-0.2,1.4-0.4,2.1-0.5
				c4.7-0.2,5.9-0.7,7.6-0.6c0.6,0.5,2.3,0.6,6.2,1.1C471.3,13.7,473.6,14.6,469.6,15z"/>
		</g>
		<g>
			<path class="st6" d="M435.9,14.1c-0.5,0.1-0.9,0.2-1.1,0.2c-2.9-0.1-5.7-0.2-8.6-0.3c-2.4-0.5-4.7-1-7-1.5c0.1-0.4,0.1-0.7,0.2-1
				c6.6,0,13.5,0,20.1,0c2.2,0.1,4.2,0.2,6.4,0.3c1,0.5,1.8,1.1,2.8,1.5C445.6,13,438.8,12.6,435.9,14.1z"/>
		</g>
		<g>
			<path class="st6" d="M396.7,13.3c-1.1-0.1-2.2-0.2-3-0.3c-2.4,0-5.1-0.1-8.7,0.6c-1.1,0-2,0-3.1,0c-1.3-0.3-2.8-0.6-4-1
				c-0.1-0.6,4.3-0.7,6.4-1.4c2.8,0.2,5.7,0.4,8.5,0.6c2-0.1,4.2-0.3,6.5-0.5c0.8,0.5,1.8,0.9,2.9,1.3
				C400.3,12.8,398.5,13,396.7,13.3z"/>
		</g>
		<g>
			<path class="st6" d="M368.9,14c-1.8,0-3.5,0-5.3-0.1c-1.4,0.2-3,0.5-4.3,0.7c-1.1-0.1-2-0.2-3.1-0.2c-1.6,0.4-6.7,0.3-5.2-0.6
				c-8.6,1.1-13.2-1.4-22.3,0c-0.4-0.3-0.5-0.7-0.9-1c-1.8,0-3.5,0.1-5.3,0.2c-1.5,0.7-3.8,1.2-4.5,1.5c-0.7,0-1.3,0-2.2,0
				c-2,0-4.2,0-6.2-0.1c-2-0.2-3.5-0.3-5.2-0.5c-0.5,0.2-1,0.5-1.2,0.7c-7.5,0-18.3-0.4-24.5,0c-1.1,0.2-2.3,0.6-6.3,0.4
				c-0.8-0.3-1.4-0.6-2-1c-1.1,0-2.2,0-3.1,0c-3.6,0.2-7.3,0.3-10.7,0.4c-8.9,0.4-16.6-0.2-24.6,0.2c-1.4,0.6-5.7-0.1-8.6,0.9
				c-0.7-1.2-5.2-0.6-12.6-1.4c-3.9-0.3-7.6-0.6-11.6-0.9c-5.1-0.1-1.6,1.9-10.8,0.9c-1.7-0.2-3.5-0.3-5.2-0.5
				c-3.7-0.2-7.7-0.4-11.4-0.6c0.7-0.2,1.4-0.4,2.1-0.7c2.4,0,4,0,5.3,0.1c1.3,0.3,2.8,0.7,4,1c1.6-0.5,3.1-0.9,4.7-1.5
				c1.3,0.3,2.6,0.5,4.1,0.8c2.4,0,4.9,0.1,7.3,0.1c3.2-0.5,6.6-0.8,12.9-0.4c0.2,0.3,0.6,0.7,0.9,1c1,0.5,3.5,0.2,6.5-0.7
				c3.3,0,6,0.1,8.4,0.1c0.1-0.3,0.1-0.5,1.3-1.2c3.9,0.1,3.1,1.1,7.1,1.1c1.4-0.6,5.5,0.2,5.4-0.7c4,0,7.7,0.1,11.7,0.1
				c0.7-0.2,1.4-0.4,2.3-0.5c1.1,0.2,1.9,0.3,3,0.6c2.2,0.2,4.1,0.4,6.3,0.5c0.8-0.5,1.5-1,2.5-1.5c0.7,0,1.3,0,2,0
				c-2.1,1.8,6.8,0.6,9.3,1.3c-0.8,0.8,6.5,0.6,7.5,0.3c4.6-0.8,11.1-0.4,16.1-1.4c1.7,0.3,3.4,0.6,5.2,0.8c2.3-0.3,4.3-0.6,6.6-0.9
				c1.3,0.2,2.8,0.3,4.1,0.5c2.5-0.2,4.9-0.4,7.6-0.6c0.6,0.1,1.3,0.2,1.9,0.3c1.8-0.2,3.6-0.3,5.4-0.5c3.5,0,7.1,0.1,10.6,0.1
				c2.3,1,4.4-0.1,7.5,0.3c1.7,0.3,3.4,0.5,5.2,0.8c3-0.5,7.7,0.1,10.7-0.4c1.7,0.2,3.4,0.5,5.2,0.8C371.3,13.2,370.1,13.6,368.9,14
				z"/>
		</g>
		<g>
			<path class="st6" d="M337.3,19.2c-1.8,0-3.5,0-5.3,0c0.1-0.6,0.2-1.2,0.3-1.8c0.4,0,0.7,0,1.1,0c1.3,0.1,2.8,0.2,4.1,0.3
				C337.4,18.3,337.4,18.8,337.3,19.2z"/>
		</g>
		<g>
			<path class="st6" d="M325.8,18c-2.8-0.6-4.7-0.8-4-1.3c2.2,0,4.2,0,6.4,0.3C327.4,17.4,326.7,17.7,325.8,18z"/>
		</g>
		<g>
			<path class="st6" d="M280.2,17.8c-1.7,0.7-4.3,0.4-6.5,0.5c-1.3,0-2.9,0-4.2,0c-0.4-0.4-0.5-0.8-0.9-1.2c2.4-0.1,5.1-0.1,7.5-0.2
				C278,16.8,279,17.4,280.2,17.8z"/>
		</g>
		<g>
			<path class="st6" d="M266.7,17c-2.9,0.1-5.8,0.2-8.7,0.4c-3-0.4-3-0.8-2.9-1.3c4.2,0.1,7.7,0,11.7-0.1
				C266.8,16.5,266.7,16.7,266.7,17z"/>
		</g>
		<g>
			<path class="st6" d="M185.7,18.7c-1-0.6-2-1.2-3-1.8c2.4,0,5.1,0,7.5,0.1C193.2,17.7,189,18.8,185.7,18.7z"/>
		</g>
		<g>
			<path class="st6" d="M174.2,17.6c-1.8-0.1-3.5-0.2-5.3-0.3c-0.2-1.2,4.5-1.5,6.4-0.2C174.9,17.2,174.4,17.4,174.2,17.6z"/>
		</g>
		<g>
			<path class="st6" d="M146.6,17.5c-2,0-0.6-0.6-0.9-1c3-0.5,7.3,0,8.5,0.6C155.6,18.7,149.2,17.3,146.6,17.5z"/>
		</g>
		<g>
			<path class="st6" d="M89.7,21.8c-1.2,0.8-4.1,0.5-5.5,0.9c-3.5-0.2-6.1-0.6-5-1.5c1.8-0.2,3.6-0.5,5.4-0.7
				C86.3,20.9,88,21.3,89.7,21.8z"/>
		</g>
		<g>
			<path class="st7" d="M496.8,10.8c-2.7,0-4.6,1.2-7.2-0.6C492,10.4,494.4,10.5,496.8,10.8z"/>
		</g>
		<g>
			<path class="st5" d="M452.4,10.5c-1.8,0-3.5,0-5.3-0.1c-4.7,0.3-6.3,0.6-7.7,1c-6.6,0-13.5,0-20.1,0c0.1-0.4,0.1-0.8,0.2-1.2
				c-0.7,0-1.3,0-2.2,0c0-0.3,0.1-0.6,0.2-1c5.9-0.6,9-0.9,10.7-0.4c8.9,0,17.7,0,26.5,0c2.9-0.3,2.8,0.5,4,1
				C456.7,10.1,454.5,10.4,452.4,10.5z"/>
		</g>
		<g>
			<path class="st7" d="M452.2,11.6c-1.8,0-3.5,0-5.3-0.1c-0.5,0.1-0.9,0.1-1.1,0.2c-2.2-0.1-4.2-0.2-6.4-0.3c1.4-0.4,3-0.6,7.7-1
				c1.8,0,3.5,0,5.3,0.1C452.4,10.9,452.3,11.2,452.2,11.6z"/>
		</g>
		<g>
			<path class="st7" d="M417.3,10.2c-1.8,0.1-3.6,0.2-5.4,0.2c-1.7-0.6-3.9-0.5-6.3-0.5c-1.3-0.3-2.6-0.5-4.1-0.8
				c2.5-0.3,5.2-0.6,7.7-0.9c2.8,0.3,5.4,0.7,8.2,1.1C417.5,9.6,417.4,9.9,417.3,10.2z"/>
		</g>
		<g>
			<path class="st7" d="M381.5,9.4c-3.6,0.2-5.8,1.4-9.8,1.4c-1.3-0.3-2.8-0.6-4-0.8c1.8-0.4,3.7-0.8,5.5-1.2
				C376,9,378.6,9.2,381.5,9.4z"/>
		</g>
		<g>
			<path class="st7" d="M312.4,10c-3,0.8-6.3,0.7-9.6,0.6c-2.1-0.3-4.1-0.7-6.2-1c-2,0.3-4.3,0.6-6.6,0.9c-2.3,0.4-5.2,0.5-12.6-0.1
				c1.1-0.2,2.1-0.4,3.2-0.7c2.2,0,4.2,0,6.4,0.1c0.8-0.5,1.5-1,2.5-1.5c0.7,0,1.4-0.1,2-0.2c2.2,0.1,4.2,0.2,6.4,0.3
				c1.3,0,2.9,0,4.2,0C305.5,8.9,308.9,9.4,312.4,10z"/>
		</g>
		<g>
			<path class="st7" d="M252,10.1c-5-0.5-7.6-0.6-7.5-0.1C244.4,9.5,247,9.6,252,10.1z"/>
		</g>
		<g>
			<path class="st7" d="M203.2,9.6c2.3-0.6,6-0.2,8.5-0.6c1,0.4,2.1,0.9,3.1,1.3c-1-0.4-2.1-0.9-3.1-1.3
				C209.2,9.4,205.5,9.1,203.2,9.6z"/>
		</g>
		<g>
			<path class="st7" d="M167.9,10.3c-0.7,0.5-2.6,1.2-8.4,0.2C162.4,10.4,165.1,10.4,167.9,10.3z"/>
		</g>
		<g>
			<path class="st5" d="M140.4,11c-1.1-0.2-2.1-0.4-3.2-0.6c-2.5,0.3-5,0.6-7.4,0.9c-1.5-0.1-2.8-0.2-4.4-0.3
				c-0.2,0.1-0.7,0.2-0.9,0.2c-0.9,0-1.5,0-2.2,0c-2.1-0.5-4-1-6.1-1.6c-0.7,0-1.3,0-2,0c-2.7,0.2-5.1,0.3-7.6,0.4
				c-0.4-0.2-0.6-0.3-1-0.5c-1.9-0.3-4.1-0.7-6.2-1.1c2-1.1,6.1-0.7,8.8-1.2c3.1,0,6.4-0.1,9.5-0.2c1.1,0,2.2,0,3.1,0
				c0.4,0.3,0.8,0.5,1,0.8c1.3,0.2,2.8,0.3,4.1,0.5c0.9-0.4,1.7-0.8,2.4-1.2c1.3,0,2.9-0.1,4.2-0.2c0.6,0.2,1.3,0.3,2.1,0.5
				c-0.1,0.5-0.2,1-0.3,1.5c1.1,0.1,1.9,0.2,3.1,0.3c3.5,0.4,1.9-0.9,5.4-0.5c1.9,0.3,0.5,0.8-1.5,2C141.1,11.1,140.6,11,140.4,11z"
				/>
		</g>
		<g>
			<path class="st7" d="M125.8,8.6c-1.3-0.2-2.8-0.3-4.1-0.5c-0.2-0.3-0.6-0.5-1-0.8c2.4,0,5.1,0.1,7.5,0.1
				C127.5,7.9,126.7,8.2,125.8,8.6z"/>
		</g>
		<g>
			<path class="st7" d="M122.2,11.3c-2.6,0.7-6.5,0.4-10.7,0.4c-1.4,0.3-3,0.6-4.4,0.9c-2.2-0.1-4.2-0.2-6.3-0.3
				c-4-0.1-7.7-0.2-11.7-0.4c0.8-1,1.7-2,2.7-2.9c2.5-0.1,4.9-0.3,7.4-0.4c2.2,0.4,4.3,0.7,6.2,1.1c0.4,0.2,0.6,0.4,1,0.5
				c2.5-0.1,4.9-0.3,7.6-0.4c0.7,0,1.3,0,2,0C118.2,10.3,120.1,10.9,122.2,11.3z"/>
		</g>
		<g>
			<path class="st5" d="M91.9,9.1C90.8,10,90,11,89.2,12c-4,0.1-7.8,0.1-11.7,0.1c-2.5,0.2-4.9,0.3-7.4,0.4
				c-1.5-0.3-2.8-0.6-4.1-0.8c-1.9-0.3-0.7-1.3-0.8-2c1.4-0.5,3-0.5,4.3-0.5c2.3,0.7,4.6,1.4,7.2,2.1c1-0.8,2.2-1.5,3.5-2.2
				C84.1,9.1,87.9,9.1,91.9,9.1z"/>
		</g>
		<g>
			<path class="st7" d="M76.7,11.4c-2.5-0.7-4.8-1.4-7.2-2.1c3.5,0,7.1-0.1,10.6-0.1C78.9,9.9,77.7,10.6,76.7,11.4z"/>
		</g>
		<g>
			<path class="st7" d="M68.9,12.8c-2.4,0.1-5.1,0.3-7.6,0.4c-2.8-0.3-5.4-0.7-8.2-1.1c1.5-0.8,3.2-1.6,4.6-2.4
				c2.4,0,5.1,0.1,7.5,0.1c0.1,0.7-1.2,1.7,0.8,2c1.3,0.3,2.6,0.5,4.1,0.8C69.6,12.6,69.1,12.7,68.9,12.8z"/>
		</g>
		<g>
			<path class="st7" d="M36.2,17.5c-1.3,0-2.9,0-4.2,0c0.1-0.5,0.2-1,0.3-1.5c1.2-0.2,2.1-0.5,3.2-0.8c1.3,0.2,2.8,0.4,4.1,0.6
				C38.7,16.3,37.4,16.9,36.2,17.5z"/>
		</g>
		<g>
			<path class="st5" d="M53.1,12.2c-1.2,0.5-2.5,0.4-4.3,0.7c-0.5,0.1-0.9,0.2-1.2,0.2c-3.2,0.3-6.5,0.6-9.7,0.9c-0.9,0-1.5,0-2.2,0
				c-0.1,0.5-0.2,0.8-0.2,1.2c-1.2,0.2-2.1,0.5-3.2,0.8c-1-0.4-2.1-0.9-3.1-1.3c0.5-0.2,1-0.5,1.2-0.8c-1.7-0.3-3.4-0.7-5.1-1
				c-1.3,0.1-2.9,0.2-4.2,0.2c-1.8,0.1-3.5,0.1-5.3,0.2c-1.1,0-2.2,0-3.1,0c-4-1.2-2.5-1.9-2.9-2.5c2.5-0.6,8.1,0.3,8.8-0.9
				c3.3,0,7.1,0.1,10.6,0.1c2.6,0,5.5,0.1,8.4,0.1c4.1-0.5,5.6-0.5,7.6-0.4c4.2,0,8.4,0.1,12.6,0.1C56.3,10.5,54.6,11.4,53.1,12.2z"
				/>
		</g>
		<g>
			<path class="st7" d="M29.2,14.7c-2,0-4.2,0-6.2-0.1c-0.8-0.5-1.4-1-1.9-1.5c1.3,0,2.9-0.1,4.2-0.2c1.7,0.4,3.4,0.7,5.1,1
				C30.2,14.2,29.7,14.4,29.2,14.7z"/>
		</g>
		<g>
			<path class="st5" d="M174.7,8.1c1.3,2.5-6.8,1.2-6.8,2.2c-2.9,0.1-5.6,0.1-8.4,0.2c-1.8-0.1-3.5-0.2-5.2-0.3
				c0.1-0.3,0.1-0.6,0.2-1c-2.8-0.5-5.6-1-8.1-1.6c0.2-0.2,0.7-0.3,1-0.5c2.2,0,4.4,0,6.4,0.1c1.1,0.3,2.1,0.7,3.1,1
				c1.3,0,2.6,0,4.2,0c1.8-0.3,3.6-0.6,5.5-0.9C169.3,7.6,171.9,7.8,174.7,8.1z"/>
		</g>
		<g>
			<path class="st4" d="M576.8,15c-4,1.1-12.1,0.7-18.3,1.1c-3-0.3-6.1-0.6-9.4-0.9c-5,0.8-12.9,0.3-17.2,1.1
				c-4-1.4-13.7-0.2-21.1-0.7c-3.5,1.1-7.2-0.5-11.4-0.4c-8.2-0.1-17.8-0.4-24.5,0c-1.8-0.1-3.5-0.2-5.2-0.3c4-0.3,1.8-1.3,2.6-2.2
				c0.7,0,1.3,0,2,0c2.9,0,5.7,0.1,8.6,0.1c0.2,0,0.7,0,1.1,0c8.6-0.1,18.8,1.4,25.3,0.7c2.5-0.1,4.9-0.3,7.4-0.4
				c3.3,0,6.4,0.1,9.7,0.1c2.4,0,4.9,0.1,7.3,0.1c2.4,0.1,5,0.2,7.5,0.3c1.8,0.1,3.5,0.2,5.3,0.3c1.1,0.3,1.9,0.5,3,0.8
				c1.6-0.1,2.9-0.3,4.3-0.5c2.6,0.1,5,0.3,7.5,0.3c2.2,0,5.7,0.3,7.6-0.6c2.4,0.2,4.8,0.4,7.2,0.5C576.2,14.7,576.6,14.9,576.8,15z
				"/>
		</g>
		<g>
			<path class="st6" d="M567.6,13.2c0.2,0.3,0.6,0.5,1,0.8C568.2,13.7,567.8,13.4,567.6,13.2z"/>
		</g>
		<g>
			<path class="st6" d="M445.8,11.7c0.2-0.1,0.7-0.1,1.1-0.2C446.5,11.6,446,11.7,445.8,11.7z"/>
		</g>
		<g>
			<path class="st6" d="M61.1,14.2c0.4,0.3,0.8,0.5,1,0.8C61.9,14.7,61.5,14.5,61.1,14.2z"/>
		</g>
		<g>
			<path class="st7" d="M367.6,10c-9.7,1.3-16.2,0.1-23.6,0.8c-1.3-0.2-2.8-0.3-4.1-0.5c-1.8-0.1-3.5-0.2-5.3-0.3
				c0.8-0.7,1.6-1.3,2.6-1.9c0.2,0,0.7,0,0.9,0c3.2,0.3,6.3,0.7,9.5,1.1c2,0,4.2,0,6.2,0.1c2.8,0.3,4.3-0.4,6.5-0.5
				C362.7,9.1,365.3,9.5,367.6,10z"/>
		</g>
		<g>
			<path class="st7" d="M277.4,10.4c-3.3-0.1-1.2,0.8-7.7,0.9c-0.7,0-1.3,0-2,0c-1.5-0.2-2.8-0.3-4.3-0.5c0-0.3,0.1-0.7,0.2-1
				c1.6-0.1,2.9-0.2,4.5-0.2C269.7,9.8,271.3,9.8,277.4,10.4z"/>
		</g>
		<g>
			<path class="st7" d="M202.1,9.6c-3.3,0.9-4.4,0.9-8.5,0.7c-2.3,0.4-4.6,0.8-6.6,1.2c-2.4-0.3-5-0.6-7.4-0.9
				c-1.8,0.2-3.6,0.3-5.4,0.5c-1.6-0.7-3.1-1.3-6.3-0.8c0-1,8.1,0.3,6.8-2.2c1.3,0,2.9,0,4.2,0c1,0.4,2.1,0.7,3.1,1
				c2.9,0.1,5.5,0.3,8.3,0.3c0.7,0,1.3,0,2.2,0C195.7,9.6,199,9.6,202.1,9.6z"/>
		</g>
		<g>
			<path class="st7" d="M203.2,9.6c-0.4,0-0.9,0-1.1,0C202.3,9.6,202.8,9.6,203.2,9.6z"/>
		</g>
		<g>
			<path class="st7" d="M140.4,11c-2.1,0.4-3.7,0.9-5.6,1.4c-1.9-0.3-3.4-0.7-5.1-1c2.5-0.3,5-0.6,7.4-0.9
				C138.3,10.7,139.3,10.8,140.4,11z"/>
		</g>
		<g>
			<path class="st7" d="M141.3,11.1c-0.2,0-0.7,0-0.9,0C140.6,11,141.1,11.1,141.3,11.1z"/>
		</g>
		<g>
			<path class="st5" d="M70,12.6c-0.4,0.1-0.9,0.1-1.2,0.2C69.1,12.7,69.6,12.6,70,12.6z"/>
		</g>
	</g>
</g>
</svg>
