<?xml version="1.0" encoding="utf-8"?>
<!-- Generator: Adobe Illustrator 25.2.1, SVG Export Plug-In . SVG Version: 6.00 Build 0)  -->
<svg version="1.1" id="Layer_1" xmlns="http://www.w3.org/2000/svg" xmlns:xlink="http://www.w3.org/1999/xlink" x="0px" y="0px"
	 viewBox="0 0 218 108" style="enable-background:new 0 0 218 108;" xml:space="preserve">
<g>
	<path d="M15.2,90.5l-1.7-0.1c-2.9-0.2-5-1.4-6.3-3.5c-0.4-1-0.6-2-0.6-3.1c0-1.7,0.5-3.5,1.6-5.3c3.8-5.9,8.9-10.6,15.2-14l0.6-0.2
		c0.2,0,0.4,0.1,0.5,0.3c0.1,0.2,0.2,0.4,0.2,0.7c0,0.5-0.2,0.9-0.7,1.2c-1.6,0.7-3,1.5-4.4,2.5c-2.9,2-5.4,4.4-7.5,7.1
		c-2.1,2.7-3.2,5-3.2,7c0,1.6,0.7,2.8,2.2,3.4c1,0.5,2.3,0.7,3.9,0.7c2.8,0,5.6-0.4,8.5-1.3c3.3-1,6.4-2.3,9.5-4.1
		c2.8-1.6,5.2-3.5,7.2-5.9c1.6-2,2.4-4.1,2.4-6.1l-0.1-1.1c-0.4-2.4-1.5-4.4-3.3-6c-2.2-1.9-4.7-3.5-7.5-4.8
		c-7-3.2-10.5-6.7-10.5-10.6c0-2.7,1.5-5.3,4.5-7.9c2.8-2.4,5.8-4.3,9.1-5.8c9.8-4.8,19.3-7.3,28.5-7.3l1.6,0.1c3,0,5.6,0.8,7.9,2.3
		c0.9,0.8,1.4,1.7,1.5,2.8h0.1l0.1,1.1c0,0.5-0.1,1.1-0.2,1.6c-0.1,0.3-0.1,0.5-0.2,0.7c0,0.2-0.1,0.3-0.1,0.5
		c0,0.1-0.1,0.3-0.2,0.4c-0.1,0.1-0.1,0.3-0.2,0.4c-0.1,0.1-0.1,0.2-0.1,0.3c-1.1,2.5-3.2,5.3-6.3,8.5c-2.8,2.9-5.7,5.2-8.7,6.8
		c-0.3,0.1-0.6,0.2-0.9,0.2c-0.2,0-0.5-0.1-0.8-0.3c-0.3-0.2-0.5-0.5-0.5-1c0-0.5,0.3-1,0.8-1.4l4.3-3.2l0.9-0.6
		c2.9-2.1,5.1-4.2,6.8-6.4l0.7-0.8c0.7-1,1.2-1.7,1.4-2.3c0.1-0.2,0.2-0.6,0.5-1.1c0.2-0.5,0.4-1.1,0.4-1.9c0-0.7-0.2-1.3-0.5-1.8
		c-0.8-1.1-2-1.8-3.5-2.2c-1.5-0.4-3.6-0.6-6.2-0.6c-2.7,0-5.4,0.2-8.3,0.7c-6.7,1.2-13.2,3.5-19.5,7c-3.2,1.6-6.1,3.7-8.6,6.3
		c-1,1.2-1.5,2.3-1.6,3.6c0.1,1.4,0.6,2.5,1.5,3.4c2.4,2.4,5.2,4.3,8.6,5.6c1.8,0.8,3.5,1.7,5.1,2.8c2.2,1.4,4,3.2,5.4,5.4
		c1,1.7,1.5,3.6,1.5,5.8l-0.1,2c-0.7,3.3-2.3,6.1-4.9,8.6c-2.6,2.5-5.5,4.5-8.6,6.2c-3.1,1.6-6.4,2.9-9.7,3.7
		C20.2,90.1,17.6,90.5,15.2,90.5z"/>
	<path d="M63.9,71h-0.3c-1.2,0-1.8-0.6-1.8-1.8c0-1,0.3-1.9,0.8-3c-0.1,0-0.1,0-0.2,0.1c-0.1,0-0.2,0.2-0.4,0.4
		c-2.4,1.8-4.4,2.8-5.9,2.8l-0.8-0.1C54.4,69,54,68.4,54,67.7v-0.8c0.1-0.8,0.9-2.3,2.4-4.5c2.6-3.3,5-5.3,7.1-6
		c0.8,0,1.2,0.3,1.2,0.8c0,0.2-0.1,0.4-0.2,0.6c-0.5,1-1.2,1.8-2,2.5l-0.3,0.2c-1.8,1.7-3.4,3.5-4.9,5.5c-0.3,0.3-0.5,0.7-0.8,1.2
		c0,0.1,0,0.1,0.1,0.1H57c0.7-0.1,1.6-0.5,2.6-1.1c0.1-0.1,0.2-0.1,0.3-0.1c1.6-1,3.5-2.3,5.5-4l0.1-0.1c0.5-0.6,1.1-1.3,1.9-2.1
		s1.4-1.3,1.7-1.4v0.1c0.3-0.1,0.6-0.2,0.8-0.2c0.5,0,0.7,0.2,0.7,0.6c0,0.5-0.2,1.2-0.6,1.8c-0.6,1.1-1,1.7-1.2,1.9
		c-1.6,1.9-3.1,3.8-4.3,5.7l-0.4,0.7c0,0.1,0,0.1,0.1,0.1c0.1,0,0.3,0,0.5-0.1l0.2-0.1c3.8-1.2,7.1-3.6,10-7.4
		c0.3-0.3,0.5-0.4,0.8-0.4c0.4,0.1,0.6,0.4,0.6,0.7c0,0.1-0.1,0.3-0.2,0.5c-1.7,2.1-3.7,3.9-5.9,5.4C67.7,69.7,65.6,70.8,63.9,71z"
		/>
	<path d="M67.4,73.7h-0.3c-0.3,0-0.5-0.1-0.6-0.3s-0.1-0.4-0.2-0.6c0-0.3,0.1-0.7,0.4-1.2c0.2-0.5,0.5-0.8,0.8-0.9
		c1.8-2.3,3.7-4.6,5.7-6.8c7.2-8.6,13.1-15.2,17.6-20c2-2.2,3.3-3.4,3.7-3.7c0.9-1.1,1.9-1.9,3.2-2.4l0.4-0.1c0.3,0,0.6,0.1,0.8,0.3
		c0.2,0.2,0.3,0.4,0.3,0.6c0,0.7-0.4,1.4-1.1,2.2l-1.6,1.7l-0.5,0.6c-1.2,1.2-2.3,2.3-3.4,3.6c-0.6,0.5-1.2,1.1-1.7,1.7
		c-7.1,7.3-12.6,13.3-16.5,17.7c4.1-3.4,7.6-5.9,10.7-7.5c1.1-0.6,2.1-0.9,3-0.9c1.1,0,1.6,0.6,1.6,1.9c0,0.9-0.2,1.6-0.5,2.2
		c-1.6,2.9-3.9,5.4-6.8,7.3c0.6-0.1,1.3-0.2,1.9-0.4c3.9-1.1,7.2-3.3,9.9-6.6c0.3-0.3,0.5-0.4,0.8-0.4c0.4,0,0.6,0.2,0.6,0.7
		c0,0.2-0.1,0.4-0.2,0.5c-2.9,3.3-6.2,5.7-10.1,7.2c-2,0.7-3.9,1.2-5.7,1.2c-0.7,0-1.3,0-1.9-0.1c-0.7,0.1-1.4,0.2-2,0.2
		c-2,0-3-0.4-3-1.1c0-0.1,0-0.2,0.1-0.5c0-0.2,0.3-0.5,0.8-0.8c0.5-0.3,0.9-0.4,1.2-0.4c0.3,0,0.5,0,0.7,0.1c2.2-0.4,4.4-1.4,6.3-3
		c2-1.6,3.5-3.4,4.7-5.4c0.1-0.1,0.1-0.2,0.2-0.3c0-0.1,0.1-0.3,0.2-0.5L85.5,60c-2.3,0.7-5.6,3-10,6.7L67.4,73.7z"/>
	<path d="M89.9,70.7c-0.6,0-0.9-0.2-0.9-0.7c0-0.5,0.2-1.1,0.6-1.7c1.6-3.3,4.3-6.8,8.3-10.3c1.4-1.4,2.6-2.1,3.6-2.1
		c0.7,0,1.1,0.3,1.1,0.8l-0.1,0.2c-0.3,0.6-0.6,1.1-1.1,1.5l-0.4,0.3c-0.6,0.7-1.2,1.2-1.7,1.6c-1,1-2,2-2.9,3.1
		c2.5-2.2,5.2-4.2,8-6.2l1.8-1.1c0.5-0.5,1-0.7,1.5-0.7c0.8,0,1.2,0.4,1.2,1.2c0,0.8-0.6,1.9-1.7,3.2l-1.4,1.7l1.5-1
		c1.7-1.3,3-1.9,3.9-1.9c0.1,0,0.3,0,0.6,0.1c0.3,0,0.5,0.3,0.6,0.9v0.3c0,0.4-0.1,1-0.4,1.8c-0.3,0.8-0.4,1.4-0.4,2
		c0,0.6,0.4,0.9,1.2,0.9c2.2-0.1,4.5-1.2,6.9-3.2c0.2-0.1,0.4-0.2,0.5-0.2c0.5,0,0.7,0.2,0.7,0.6c0,0.3-0.1,0.5-0.4,0.8
		c-1.4,1-2.9,1.9-4.5,2.7c-1.6,0.8-3.1,1.2-4.5,1.2c-1.6,0-2.5-0.7-2.8-2.1v-0.4c0-1,0.2-1.8,0.6-2.7l0.2-0.5
		c-0.1,0.1-0.2,0.1-0.3,0.2c-0.1,0-0.5,0.3-1,0.7l-0.5,0.3c-2.2,1.5-4.6,3.3-7,5.4c-0.2,0.1-0.4,0.2-0.5,0.2c-0.3,0-0.6-0.1-0.7-0.3
		c-0.1-0.2-0.2-0.4-0.2-0.6s0.1-0.4,0.3-0.7c0.5-0.7,1.1-1.4,1.5-2.1c2.2-3.1,3.7-4.9,4.4-5.6c-2.7,1.6-6.3,4.5-10.9,8.7
		c-1.2,1.3-2.6,2.5-4,3.6l-0.3,0.2c0,0.1-0.1,0.1-0.2,0.2C90.2,70.7,90.1,70.7,89.9,70.7z"/>
	<path d="M115.4,71.5c-1.2,0-1.7-0.6-1.7-1.9c0-0.7,0.3-1.5,0.8-2.4c1.4-2.4,3.2-4.5,5.4-6.3c2-1.9,3.7-3,5-3.2l0.2-0.1
		c0.7,0,1,0.3,1,0.8c0,0.6-0.5,1.3-1.5,2.1c-3.1,2.7-5.8,5.5-8.2,8.7h0.2c0.3,0,0.6-0.1,0.9-0.2c3.8-1.8,7.4-4,10.8-6.6
		c0.5-0.5,1-0.8,1.3-0.8c0.3,0,0.5,0.1,0.6,0.3l0.1,0.2c0,0.3-0.2,0.6-0.5,0.9c-1.8,1.6-3.8,3-5.8,4.3c0,0.1,0,0.1-0.1,0.1
		c-2,1.3-4,2.4-6.1,3.5C117.1,71.3,116.2,71.5,115.4,71.5z M127.7,55.3c-0.3,0-0.5,0-0.6-0.1c-0.4-0.1-0.6-0.4-0.6-0.8l0.2-0.7
		l0.5-0.8h0.1c0.1-0.1,0.2-0.2,0.3-0.3c0.1-0.1,0.2-0.1,0.2-0.2c0-0.1,0.1-0.1,0.2-0.2c0.1,0,0.1-0.1,0.2-0.1c0,0,0.1-0.1,0.2-0.2
		c0.3-0.2,0.5-0.3,0.8-0.4c0.3,0,0.4-0.1,0.5-0.2c0.3,0,0.6,0.1,0.7,0.2c0.1,0.1,0.2,0.2,0.3,0.2c0,0,0.1,0.1,0.2,0.2
		c0.1,0.1,0.2,0.4,0.2,0.8l-0.1,0.4c-0.1,0.5-0.4,0.9-0.8,1.1v0.1h-0.2c0,0.1,0,0.1-0.1,0.2c-0.1,0-0.2,0.1-0.3,0.2l-1.1,0.5h-0.3
		L127.7,55.3z"/>
	<path d="M128.6,82.4c-0.1,0-0.2,0-0.5-0.1c-0.2,0-0.4-0.2-0.5-0.4c-0.1-0.2-0.2-0.4-0.2-0.5c0-0.3,1.8-2.4,5.3-6.2l14.9-16.5
		c-0.3,0.1-0.5,0.3-0.8,0.6c-4.4,3.5-7.4,5.7-9.3,6.8c-2.3,1.8-4.7,3.3-7.2,4.5c-1.3,0.6-2.4,0.9-3.3,0.9c-0.4,0-0.8-0.1-1.2-0.4
		c-0.4-0.2-0.6-0.8-0.6-1.7c0-0.5,0.1-1,0.2-1.4c1.2-3,3-5.7,5.2-8.3c1.9-2.2,3.8-4.4,5.8-6.5l7.8-8c-11.9,0-18.4,0-19.4,0.1
		c-0.1,0.3-0.3,0.4-0.5,0.4h-1.5c-0.3-0.1-0.6-0.1-0.9-0.2c-0.3,0-0.5-0.2-0.5-0.6c0-0.5,0.3-0.9,0.8-1c1.8-0.4,3.5-0.6,5.1-0.6H146
		c2.3-2.4,4.7-4.7,7.1-7l1.2-1.1c2.2-2.2,4.5-4.2,6.8-6c0.4-0.2,0.7-0.3,1-0.3c0.7,0,1.1,0.3,1.1,0.9c0,0.3-0.1,0.7-0.4,1
		c-0.5,0.6-1.9,2-4.2,4.3c-3.9,3.7-6.7,6.4-8.6,8.3h8.3l3-2c0.1,0,1.8-1.2,5.1-3.7c0.8-0.6,1.4-1.1,1.6-1.3c2.6-2.4,4.3-3.9,5.3-4.5
		c0.9-0.6,1.8-1.3,2.6-1.9c0.3-0.2,0.5-0.3,0.7-0.3c0.4,0,0.6,0.2,0.6,0.7c0,0.2-0.1,0.4-0.2,0.6l-2.5,2.8l-1.4,1.6
		c-0.3,0.3-0.6,0.6-0.9,0.9l-6.9,7.2c6.2,0.1,12.3,0.3,18.5,0.5c0.3,0,0.5,0.1,0.6,0.4c0,0.3-0.1,0.7-0.3,1
		c-0.2,0.3-0.5,0.5-0.9,0.5c-2.9-0.1-9.5-0.3-19.6-0.5c-4.3,4.8-9.3,10.1-15,16l-2,2.2c-4.1,4.2-7.3,7.6-9.6,10.1
		C131.9,79.5,129.1,82.4,128.6,82.4z M128.5,69.3c0.2,0,0.6-0.1,1.1-0.4h0.1c1.3-0.5,2.5-1.2,3.8-2c7.5-4.9,14.6-10.3,21.3-16.3
		c0.4-0.4,0.8-0.8,1.1-1.2c0.3-0.4,0.7-0.8,1.1-1.1l0.2-0.3l2.3-2.4h-1c-1.1,0.6-1.7,0.9-1.8,0.9c-0.1,0-0.3-0.1-0.4-0.2
		c-0.1-0.1-0.2-0.4-0.2-0.7l-7.9-0.1l-2.6,2.6c-4.4,4.4-8.7,8.9-12.8,13.6c-2.7,3.3-4.4,5.7-5.1,7.2c-0.1,0.1-0.1,0.2-0.1,0.3
		c0,0.1,0,0.2,0,0.3v0.1H128.5z"/>
	<path d="M155.9,69.9c-0.5,0-1.4-0.1-2.5-0.2c-1.2-0.1-1.8-1.1-1.9-3c0.1-1.8,0.9-3.4,2.4-4.8c1.5-1.4,3-2.5,4.7-3.3
		c1.2-0.6,2.3-1,3.6-1c0.5,0,0.9,0.1,1.2,0.3c0.6,0.3,0.9,0.8,0.9,1.4V60c0,0.4-0.3,1-1,1.6c-1,1-2.1,1.7-3.5,2.2
		c-1.4,0.5-2.8,0.8-4.2,0.8c-0.4,0.5-0.7,1.1-0.8,1.6c0,1,0.6,1.5,1.9,1.5c2,0,4.1-0.5,6.1-1.5c2.6-1.2,5-2.8,7.2-4.8
		c0.2-0.2,0.4-0.3,0.5-0.3c0.4,0,0.6,0.2,0.7,0.6c0,0.3-0.1,0.5-0.4,0.8c-3.4,3-7.1,5.2-11.2,6.6C158.5,69.7,157.2,69.9,155.9,69.9z
		 M157.3,62.9c1.2-0.2,2.3-0.6,3.4-1.2c0.8-0.4,1.3-0.8,1.4-1.3l-0.6,0.2C160.1,61,158.7,61.8,157.3,62.9z"/>
	<path d="M162,87.8c-0.4,0-0.7-0.1-0.8-0.3c-0.1-0.2-0.2-0.3-0.2-0.5c0-0.2,0.1-0.4,0.3-0.7c5.6-7.4,11.3-14.7,17.2-21.7
		c-0.2,0.2-0.4,0.3-0.5,0.3c-1.5,1.1-3,2.1-4.6,3.1l-0.3,0.2c-2.3,1.4-4.2,2-5.7,2c-0.1,0-0.4,0-0.9-0.1c-0.4-0.1-0.8-0.3-1.1-0.8
		c-0.3-0.4-0.4-0.9-0.4-1.3c0-0.9,0.5-1.9,1.4-3.2s2-2.3,3.2-3.4c3.3-2.7,6.2-4.1,8.8-4.1c1.6,0.1,2.7,0.7,3.3,1.9
		c0.1,0.3,0.2,0.6,0.2,0.9h0.3l5.5-6.3c4.8-5.4,8.7-9.7,11.9-12.9l1.6-1.7c2.7-2.9,4.4-4.4,5.3-4.4c0.6,0,1,0.3,1.2,0.8
		c0.1,0.1,0.1,0.3,0.1,0.5c0,0.3-0.2,0.7-0.5,1.2c-1.6,1.9-3.4,3.7-5.3,5.4c-14.7,14.7-27.8,29.5-39.5,44.4
		C162.5,87.6,162.3,87.8,162,87.8z M168.7,68.2c1.3,0,4.6-1.8,9.9-5.3l1.2-0.9c0-0.1-0.1-0.3-0.3-0.5c-0.2-0.2-0.4-0.4-0.7-0.5
		c-0.3-0.1-0.6-0.2-1-0.2c-0.6,0.1-1.2,0.2-1.8,0.4c-3.3,1.6-5.8,3.7-7.5,6.1l-0.4,0.7C168.2,68.1,168.4,68.2,168.7,68.2z"/>
	<path d="M189.6,71.4c-0.1,0-0.1,0-0.2-0.1c0,0-0.1-0.1-0.1-0.1c0,0-0.1-0.1-0.2-0.1c-0.1,0-0.2-0.1-0.3-0.2
		c-0.1-0.1-0.2-0.4-0.2-0.7v-0.2c0-0.3,0.1-0.5,0.2-0.8l0.1-0.2c0.3-0.4,0.7-0.7,1.2-0.9c0.1-0.1,0.1-0.1,0.2-0.1c0,0,0.1,0,0.2-0.1
		c0.1,0,0.2-0.1,0.4-0.1c0.5,0,0.9,0.2,1,0.7v0.5c0,0.1,0,0.3-0.1,0.4c0,0.1-0.1,0.3-0.2,0.4c-0.1,0.1-0.2,0.2-0.2,0.2
		c0,0-0.1,0.1-0.1,0.1c0,0,0,0.1-0.1,0.2c-0.1,0.1-0.2,0.2-0.3,0.2c-0.1,0-0.2,0.1-0.3,0.3c-0.1,0.1-0.4,0.3-0.8,0.4L189.6,71.4z
		 M192.9,66.5c-0.6,0-0.9-0.2-0.9-0.7c0-0.5,0.8-1.8,2.4-4c0.4-0.5,0.8-1,1.2-1.5c0.4-0.5,0.7-1,1.1-1.5c3-4.1,5.1-6.9,6.3-8.4
		l4-5.2c2.6-3.5,4.2-5.2,4.9-5.2c1,0,1.4,0.3,1.4,0.8c0,0.7-3.2,5.1-9.6,13.2c-4.9,6.2-7.5,9.5-8,9.9
		C194.6,65.7,193.6,66.5,192.9,66.5z"/>
</g>
</svg>
